<?xml version="1.0" standalone="no"?>
<!DOCTYPE svg PUBLIC "-//W3C//DTD SVG 1.1//EN" "http://www.w3.org/Graphics/SVG/1.1/DTD/svg11.dtd" >
<svg xmlns="http://www.w3.org/2000/svg">
<metadata>Generated by IcoMoon</metadata>
<defs>
<font id="donshina" horiz-adv-x="1024">
<font-face units-per-em="1024" ascent="960" descent="-64" />
<missing-glyph horiz-adv-x="1024" />
<glyph unicode="&#x20;" horiz-adv-x="512" d="" />
<glyph unicode="&#xe900;" d="M799.883 496.188h200.945v-96.376h-200.945l156.13-156.13-67.945-68.427-224.557 224.557h-96.378v-96.376l224.558-224.557-68.427-67.945-156.131 156.13v-200.945h-59.309v963.765h59.309v-200.945l156.131 156.13 68.427-67.945-224.558-224.557v-96.376h96.378l224.557 224.557 67.945-68.427-156.13-156.13z" />
<glyph unicode="&#xe901;" d="M463.349 710.208c-136.379-9.575-244.311-123.989-244.311-263.396s107.933-253.818 244.311-263.396v526.792zM173.478 818.677l78.853-78.774-62.207-62.050-78.416 78.774 61.769 62.050zM0 490.821h131.423v-88.016h-131.423v88.016zM173.478 74.951l-61.769 62.048 78.416 79.215 61.769-62.054-78.416-79.209z" />
<glyph unicode="&#xe902;" glyph-name="icon-arrow-left" d="M853.333 839.68l-390.827-391.68 390.827-391.68-120.32-120.32-512 512 512 512 120.32-120.32z" />
<glyph unicode="&#xe903;" glyph-name="icon-arrow-next" d="M512 960l-90.24-90.24 357.12-357.76h-778.88v-128h778.88l-357.12-357.76 90.24-90.24 512 512-512 512z" />
<glyph unicode="&#xe904;" glyph-name="icon-arrow-prev" d="M512-64l90.24 90.24-357.12 357.76h778.88v128h-778.88l357.12 357.76-90.24 90.24-512-512 512-512z" />
<glyph unicode="&#xe905;" glyph-name="icon-arrow-right" d="M170.667 56.32l390.827 391.68-390.827 391.68 120.32 120.32 512-512-512-512-120.32 120.32z" />
<glyph unicode="&#xe906;" glyph-name="icon-attention" d="M460.8 294.4h102.4v-102.4h-102.4v102.4zM460.8 704h102.4v-307.2h-102.4v307.2zM511.488 960c-282.624 0-511.488-229.376-511.488-512s228.864-512 511.488-512c283.136 0 512.512 229.376 512.512 512s-229.376 512-512.512 512zM512 38.4c-226.304 0-409.6 183.296-409.6 409.6s183.296 409.6 409.6 409.6c226.304 0 409.6-183.296 409.6-409.6s-183.296-409.6-409.6-409.6z" />
<glyph unicode="&#xe907;" glyph-name="icon-battery" d="M921.6 857.6h-51.2v102.4h-102.4v-102.4h-512v102.4h-102.4v-102.4h-51.2c-56.32 0-102.4-46.080-102.4-102.4v-716.8c0-56.32 46.080-102.4 102.4-102.4h819.2c56.32 0 102.4 46.080 102.4 102.4v716.8c0 56.32-46.080 102.4-102.4 102.4zM921.6 38.4h-819.2v563.2h819.2v-563.2zM307.2 268.8v-102.4h76.8v102.4h102.4v76.8h-102.4v102.4h-76.8v-102.4h-102.4v-76.8h102.4zM844.8 345.6h-256v-76.8h256v76.8z" />
<glyph unicode="&#xe908;" glyph-name="icon-car" d="M905.671 845.653c-11.378 33.564-43.236 57.458-80.782 57.458h-625.778c-37.547 0-68.836-23.893-80.782-57.458l-118.329-340.764v-455.111c0-31.289 25.6-56.889 56.889-56.889h56.889c31.289 0 56.889 25.6 56.889 56.889v56.889h682.667v-56.889c0-31.289 25.6-56.889 56.889-56.889h56.889c31.289 0 56.889 25.6 56.889 56.889v455.111l-118.329 340.764zM199.111 277.333c-47.218 0-85.333 38.116-85.333 85.333s38.116 85.333 85.333 85.333c47.218 0 85.333-38.116 85.333-85.333s-38.116-85.333-85.333-85.333zM824.889 277.333c-47.218 0-85.333 38.116-85.333 85.333s38.116 85.333 85.333 85.333c47.218 0 85.333-38.116 85.333-85.333s-38.116-85.333-85.333-85.333zM113.778 561.778l85.333 256h625.778l85.333-256h-796.444z" />
<glyph unicode="&#xe909;" glyph-name="icon-card" d="M888.685 832h-789.942c-54.802 0-98.249-42.72-98.249-96l-0.494-576c0-53.28 43.941-96 98.743-96h789.942c54.803 0 98.746 42.72 98.746 96v576c0 53.28-43.942 96-98.746 96zM888.685 160h-789.942v288h789.942v-288zM888.685 640h-789.942v96h789.942v-96z" />
<glyph unicode="&#xe90a;" glyph-name="icon-cart" d="M307.2 140.8c-56.32 0-101.888-46.080-101.888-102.4s45.568-102.4 101.888-102.4c56.32 0 102.4 46.080 102.4 102.4s-46.080 102.4-102.4 102.4zM0 960v-102.4h102.4l184.32-388.608-69.12-125.44c-8.192-14.336-12.8-31.232-12.8-49.152 0-56.32 46.080-102.4 102.4-102.4h614.4v102.4h-592.896c-7.168 0-12.8 5.632-12.8 12.8l1.536 6.144 46.080 83.456h381.44c38.4 0 72.192 20.992 89.6 52.736l183.296 332.288c4.096 7.168 6.144 15.872 6.144 24.576 0 28.16-23.040 51.2-51.2 51.2h-757.248l-48.128 102.4h-167.424zM819.2 140.8c-56.32 0-101.888-46.080-101.888-102.4s45.568-102.4 101.888-102.4c56.32 0 102.4 46.080 102.4 102.4s-46.080 102.4-102.4 102.4z" />
<glyph unicode="&#xe90b;" glyph-name="icon-case" d="M614.4 729.6v102.4h-204.8v-102.4h204.8zM102.4 627.2v-563.2h819.2v563.2h-819.2zM921.6 729.6c56.832 0 102.4-45.568 102.4-102.4v-563.2c0-56.832-45.568-102.4-102.4-102.4h-819.2c-56.832 0-102.4 45.568-102.4 102.4l0.512 563.2c0 56.832 45.056 102.4 101.888 102.4h204.8v102.4c0 56.832 45.568 102.4 102.4 102.4h204.8c56.832 0 102.4-45.568 102.4-102.4v-102.4h204.8z" />
<glyph unicode="&#xe90c;" glyph-name="icon-checked" d="M318.009 244.338l-237.227 237.227-80.782-80.213 318.009-318.009 682.667 682.667-80.213 80.213-602.453-601.884z" />
<glyph unicode="&#xe90d;" glyph-name="icon-checked-double" d="M1093.211 802.389l-87.632 94.356-394.030-424.265 87.632-94.356 394.030 424.265zM1356.726 896.744l-657.545-707.998-259.784 279.050-87.631-94.356 347.415-374.077 745.796 803.026-88.252 94.356zM0 373.44l347.416-374.077 87.631 94.356-346.795 374.077-88.252-94.356z" />
<glyph unicode="&#xe90e;" glyph-name="icon-close" d="M644.608 652.8l-132.608-132.608-132.608 132.608-72.192-72.192 132.608-132.608-132.608-132.608 72.192-72.192 132.608 132.608 132.608-132.608 72.192 72.192-132.608 132.608 132.608 132.608-72.192 72.192zM512 960c-283.136 0-512-228.864-512-512s228.864-512 512-512c283.136 0 512 228.864 512 512s-228.864 512-512 512zM512 38.4c-225.792 0-409.6 183.808-409.6 409.6s183.808 409.6 409.6 409.6c225.792 0 409.6-183.808 409.6-409.6s-183.808-409.6-409.6-409.6z" />
<glyph unicode="&#xe90f;" glyph-name="icon-close-noborder" d="M1024 856.869l-103.131 103.131-408.869-408.869-408.869 408.869-103.131-103.131 408.869-408.869-408.869-408.869 103.131-103.131 408.869 408.869 408.869-408.869 103.131 103.131-408.869 408.869 408.869 408.869z" />
<glyph unicode="&#xe910;" glyph-name="icon-compare" d="M384-64h256v1024h-256v-1024zM0-64h256v512h-256v-512zM768 640v-704h256v704h-256z" />
<glyph unicode="&#xe911;" glyph-name="icon-continue" d="M512 618.667c-129.219 0-246.248-48.274-336.457-126.781l-175.543 175.543v-438.857h438.857l-176.518 176.518c67.779 56.564 154.088 91.672 249.661 91.672 172.617 0 319.39-112.64 370.59-268.19l115.566 38.034c-67.779 204.312-259.413 352.061-486.156 352.061z" />
<glyph unicode="&#xe912;" glyph-name="icon-credit" d="M905.434 724.66h-201.209v100.604c0 27.666-11.066 52.817-29.679 70.925-18.108 18.612-43.259 29.678-70.925 29.678h-201.207c-55.332 0-100.604-45.272-100.604-100.603v-100.604h-201.207c-55.332 0-100.603-45.272-100.603-100.603v-553.318c0-55.33 45.272-100.605 100.603-100.605h804.831c55.33 0 100.598 45.274 100.598 100.605v553.318c0 55.331-45.268 100.603-100.598 100.603zM402.414 825.263h201.207v-100.604h-201.207v100.604zM452.716 146.186l-50.302 50.306 150.905 150.905-150.905 150.905 50.302 50.302 201.207-201.206-201.207-201.211z" />
<glyph unicode="&#xe913;" glyph-name="icon-delivery" d="M847.203 628.706h-133.765v180.706h-624.259c-49.049 0-89.18-40.659-89.18-90.353v-496.941h89.18c0-74.993 59.75-135.529 133.769-135.529s133.769 60.536 133.769 135.529h267.536c0-74.993 59.753-135.529 133.771-135.529s133.771 60.536 133.771 135.529h89.178v225.882l-133.771 180.706zM222.949 154.353c-37.010 0-66.885 30.268-66.885 67.765s29.875 67.765 66.885 67.765c37.009 0 66.885-30.268 66.885-67.765s-29.876-67.765-66.885-67.765zM824.91 560.941l87.395-112.941h-198.867v112.941h111.471zM758.025 154.353c-37.009 0-66.885 30.268-66.885 67.765s29.877 67.765 66.885 67.765c37.009 0 66.885-30.268 66.885-67.765s-29.877-67.765-66.885-67.765z" />
<glyph unicode="&#xe914;" glyph-name="icon-desc" d="M910.222 846.222v-796.444h-796.444v796.444h796.444zM972.8 960h-921.6c-28.444 0-51.2-22.756-51.2-51.2v-921.6c0-22.756 22.756-51.2 51.2-51.2h921.6c22.756 0 51.2 28.444 51.2 51.2v921.6c0 28.444-28.444 51.2-51.2 51.2zM455.111 732.444h341.333v-113.778h-341.333v113.778zM455.111 504.889h341.333v-113.778h-341.333v113.778zM455.111 277.333h341.333v-113.778h-341.333v113.778zM227.556 732.444h113.778v-113.778h-113.778v113.778zM227.556 504.889h113.778v-113.778h-113.778v113.778zM227.556 277.333h113.778v-113.778h-113.778v113.778z" />
<glyph unicode="&#xe915;" glyph-name="icon-detail" d="M512 561.778c-62.578 0-113.778-51.2-113.778-113.778s51.2-113.778 113.778-113.778c62.578 0 113.778 51.2 113.778 113.778s-51.2 113.778-113.778 113.778zM910.222 960h-796.444c-63.147 0-113.778-51.2-113.778-113.778v-796.444c0-62.578 50.631-113.778 113.778-113.778h796.444c63.147 0 113.778 51.2 113.778 113.778v796.444c0 62.578-50.631 113.778-113.778 113.778zM810.667 448c0-13.084-1.138-26.169-2.844-38.684l84.196-65.991c7.396-6.258 9.671-17.067 4.551-25.6l-79.644-137.671c-5.12-8.533-15.36-11.947-24.462-8.533l-98.987 39.822c-20.48-15.929-43.236-29.013-67.129-39.253l-14.791-105.244c-1.707-9.671-10.24-17.067-19.911-17.067h-159.289c-9.671 0-18.204 7.396-19.911 16.498l-14.791 105.244c-24.462 10.24-46.649 23.324-67.129 39.253l-98.987-39.822c-9.102-3.413-19.342 0-24.462 8.533l-79.644 137.671c-5.12 8.533-2.844 19.342 4.551 25.6l84.196 65.991c-1.707 13.084-2.844 26.169-2.844 39.253s1.138 26.169 2.844 38.684l-84.196 65.991c-7.396 6.258-9.671 17.067-4.551 25.6l79.644 137.671c5.12 8.533 15.36 11.947 24.462 8.533l98.987-39.822c20.48 15.929 43.236 29.013 67.129 39.253l14.791 105.244c1.707 9.671 10.24 17.067 19.911 17.067h159.289c9.671 0 18.204-7.396 19.911-16.498l14.791-105.244c24.462-10.24 46.649-23.324 67.129-39.253l98.987 39.822c9.102 3.413 19.342 0 24.462-8.533l79.644-137.671c5.12-8.533 2.844-19.342-4.551-25.6l-84.196-65.991c1.707-13.084 2.844-26.169 2.844-39.253z" />
<glyph unicode="&#xe916;" glyph-name="icon-drive2" d="M428.336 758.469c48.219-0.429 96.141-0.855 143.527-6.155 73.293-8.194 118.676-60.685 120.356-134.735 2.524-112.224 2.959-224.614-0.072-336.798-2.324-85.949-52.731-132.101-146.309-143.063-9.052-1.055-18.263-1.116-27.402-1.137-37.424-0.072-74.842-0.061-112.909-0.051-13.693 0.005-27.47 0.010-41.362 0.010v622.922c21.435-0.613 42.833-0.803 64.172-0.993zM478.295 246.886c70.226-12.636 99.805 11.249 100.445 79.78 0.22 24.535 0.143 49.060 0.067 73.59-0.026 8.776-0.051 17.556-0.067 26.337-0.031 15.191-0.020 30.382-0.005 45.573 0.036 38.369 0.067 76.738-0.635 115.090-0.635 34.114-15.78 57.122-41.431 60.965-12.995 1.959-26.351 1.486-39.938 1.004-6.104-0.216-12.253-0.434-18.436-0.434v-401.906zM0 448.005c0 282.316 229.679 511.995 511.995 511.995s512.005-229.69 512.005-511.995c0-282.327-229.688-512.005-512.005-512.005s-511.995 229.688-511.995 512.005zM82.876 448.005c0-236.621 192.509-429.128 429.119-429.128 236.631 0 429.128 192.497 429.128 429.128 0 236.61-192.497 429.119-429.128 429.119-236.61 0-429.119-192.5-429.119-429.119z" />
<glyph unicode="&#xe917;" glyph-name="icon-drive2-filled" d="M537.83 672.429c28.739-4.311 45.722-30.094 46.423-68.338 0.799-43.308 0.758-86.632 0.717-129.957-0.015-16.709-0.031-33.419 0-50.126 0.020-9.221 0.051-18.442 0.082-27.663 0.092-28.109 0.184-56.228-0.072-84.342-0.712-76.815-33.869-103.598-112.585-89.426v450.483c6.934 0 13.831 0.245 20.676 0.488 15.224 0.541 30.193 1.072 44.759-1.119zM0 448.005c0 282.764 229.221 511.995 512.005 511.995 282.772 0 512.005-229.231 511.995-511.995 0-282.772-229.222-512.005-511.995-512.005s-512.005 229.222-512.005 512.005zM548.106 100.214c104.888 12.283 161.398 64.020 163.994 160.358 3.395 125.752 2.913 251.713 0.082 377.506-1.869 82.996-52.741 141.829-134.897 151.019-53.12 5.942-106.84 6.419-160.899 6.9-23.911 0.212-47.888 0.426-71.909 1.113v-698.216c15.441 0 30.757-0.005 45.982-0.010 42.8-0.010 84.87-0.026 126.942 0.061 10.24 0.020 20.557 0.082 30.705 1.27z" />
<glyph unicode="&#xe918;" glyph-name="icon-dropdown" d="M539.049 183.666l471.401 472.708c15.436 15.488 15.41 40.563-0.080 56.024-15.488 15.45-40.577 15.41-56.025-0.080l-443.344-444.571-443.343 444.587c-15.45 15.488-40.523 15.528-56.013 0.080-7.765-7.751-11.647-17.905-11.647-28.059 0-10.128 3.856-20.242 11.567-27.979l471.39-472.71c7.422-7.459 17.522-11.645 28.045-11.645s20.612 4.198 28.047 11.645z" />
<glyph unicode="&#xe919;" glyph-name="icon-edit" d="M0 191.865v-202.105h202.105l596.076 596.076-202.105 202.105-596.076-596.076zM954.476 742.131c21.019 21.019 21.019 54.973 0 75.992l-126.114 126.114c-21.019 21.019-54.973 21.019-75.992 0l-98.627-98.627 202.105-202.105 98.627 98.627z" />
<glyph unicode="&#xe91a;" glyph-name="icon-email" d="M921.6 846.222h-819.2c-56.32 0-101.888-44.8-101.888-99.556l-0.512-597.333c0-54.756 46.080-99.556 102.4-99.556h819.2c56.32 0 102.4 44.8 102.4 99.556v597.333c0 54.756-46.080 99.556-102.4 99.556zM921.6 149.333h-819.2v497.778l409.6-248.889 409.6 248.889v-497.778zM512 497.778l-409.6 248.889h819.2l-409.6-248.889z" />
<glyph unicode="&#xe91b;" glyph-name="icon-emoji" d="M0 448c0 282.624 228.864 512 511.488 512 283.136 0 512.512-229.376 512.512-512s-229.376-512-512.512-512c-282.624 0-511.488 229.376-511.488 512zM102.4 448c0-226.304 183.296-409.6 409.6-409.6s409.6 183.296 409.6 409.6c0 226.304-183.296 409.6-409.6 409.6s-409.6-183.296-409.6-409.6zM774.144 345.6c-40.96-104.96-142.848-179.2-262.144-179.2s-221.184 74.24-262.144 179.2h85.504c35.84-60.928 100.864-102.4 176.64-102.4s141.312 41.472 176.64 102.4h85.504zM332.8 499.2c42.415 0 76.8 34.385 76.8 76.8s-34.385 76.8-76.8 76.8c-42.415 0-76.8-34.385-76.8-76.8s34.385-76.8 76.8-76.8zM691.2 499.2c42.415 0 76.8 34.385 76.8 76.8s-34.385 76.8-76.8 76.8c-42.415 0-76.8-34.385-76.8-76.8s34.385-76.8 76.8-76.8z" />
<glyph unicode="&#xe91c;" glyph-name="icon-exit" d="M853.333-64h-853.333v853.333h256v-407.040l595.627 577.707 172.373-173.227-584.533-594.773h413.867v-256z" />
<glyph unicode="&#xe91d;" glyph-name="icon-eye" d="M512 800c-232.727 0-431.476-145.963-512-352 80.524-206.037 279.273-352 512-352 232.73 0 431.475 145.963 512 352-80.525 206.037-279.27 352-512 352zM512 213.333c-128.465 0-232.727 105.131-232.727 234.667s104.262 234.667 232.727 234.667c128.467 0 232.73-105.131 232.73-234.667s-104.262-234.667-232.73-234.667zM512 588.8c-77.265 0-139.636-62.891-139.636-140.8s62.371-140.8 139.636-140.8c77.265 0 139.635 62.891 139.635 140.8s-62.37 140.8-139.635 140.8z" />
<glyph unicode="&#xe91e;" glyph-name="icon-facebook" d="M639.811 604.527c0.236 25.671 10.619 35.761 36.536 35.854 22.118 0.062 44.216 0 67.036 0 0 37.843 0 74.619 0 111.105-1.234 0.684-1.894 1.409-2.54 1.399-45.86-0.964-92.022 1.015-137.477-3.771-54.252-5.708-88.335-40.122-98.291-93.162-3.719-19.756-3.865-40.246-4.673-60.437-0.725-18.15-0.165-36.341-0.165-55.806-24.096 0-46.835 0-69.564 0 0-39.967 0-78.628 0-118.429 23.371 0 45.789 0 69.688 0 0-110.372 0-219.566 0-329.037 47.207 0 92.893 0 139.915 0 0 110.029 0 219.249 0 328.289 2.452 0.425 3.604 0.799 4.746 0.799 19.855 0.072 39.706 0.123 59.576 0.123 26.199 0.010 26.583-0.031 29.614 26.045 3.543 30.405 6.344 60.883 9.615 92.769-35.343 0-69.356 0-104.069 0 0 22.304-0.159 43.282 0.051 64.26zM511.995 960c-282.315 0-511.995-229.679-511.995-511.995 0-282.327 229.68-512.005 511.995-512.005 282.317 0 511.995 229.678 511.995 512.005 0 282.306-229.678 511.995-511.995 511.995zM511.995 18.877c-236.62 0-429.119 192.507-429.119 429.128s192.51 429.119 429.119 429.119c236.611 0 429.117-192.509 429.117-429.119s-192.497-429.128-429.117-429.128z" />
<glyph unicode="&#xe91f;" glyph-name="icon-facebook-filled" d="M512.005 960c-282.776 0-512.005-229.242-512.005-512.010 0-282.747 229.23-511.99 512.005-511.99 24.433 0 48.461 1.828 71.972 5.156-0.123 91.336-0.374 182.687-0.020 274.033 0.061 12.052-3.318 15.099-15.037 14.694-26.465-0.922-52.961-0.041-79.424-0.404-10.902-0.164-15.341 4.137-15.24 15.176 0.313 35.84 0.222 71.69-0.121 107.53-0.112 11.438 4.318 15.877 15.988 15.642 27.275-0.573 54.575 0.133 81.869-0.312 9.011-0.154 12.104 2.668 11.945 11.884-0.497 30.541-0.154 61.071-0.266 91.639-0.22 61.343 29.824 104.989 81.551 133.951 18.33 10.285 39.388 15.805 61.768 15.057 34.601-1.153 69.238-0.577 103.844 0.051 11.192 0.202 14.884-3.216 14.643-14.643-0.691-31.743-0.456-63.527-0.041-95.301 0.148-10.618-4.086-14.36-14.484-14.36-26.429 0.020-52.874-0.293-79.309-1.335-13.271-0.526-29.015-15.412-29.44-28.346-0.978-30.103-0.809-60.239-1.121-90.365-0.092-8.847 6.38-8.049 12.012-8.079 28.498-0.072 56.986 0.031 85.514 0.031 3.256 0.020 6.513 0.020 9.789-0.061 15.14-0.323 17.567-3.927 14.377-18.637-2.074-9.436-2.739-19.164-4.163-28.723-4.168-27.576-8.003-55.245-13.066-82.668-0.63-3.338-7.972-7.619-12.308-7.726-25.626-0.727-51.318-1.142-76.954 0-12.995 0.563-15.421-3.937-15.38-15.928 0.292-77.768 0.189-155.592 0.077-233.349 178.55 79.959 303.022 259.077 303.022 467.374-0.010 282.779-229.238 512.020-511.995 512.020z" />
<glyph unicode="&#xe920;" glyph-name="icon-favourite" d="M710.1 911.238c-85.187 0-166.946-39.497-220.311-101.912-53.366 62.415-135.127 101.912-220.315 101.912-150.792 0-269.272-118.004-269.272-268.19 0-184.32 166.459-334.507 418.596-562.712l70.991-63.878 70.988 64.366c252.138 227.718 418.597 377.905 418.597 562.225 0 150.187-118.482 268.19-269.273 268.19zM494.685 152.99l-4.896-4.876-4.897 4.876c-233.043 210.164-386.773 349.135-386.773 490.057 0 97.524 73.438 170.667 171.355 170.667 75.396 0 148.834-48.274 174.782-115.078h91.554c25.459 66.804 98.894 115.078 174.29 115.078 97.919 0 171.354-73.143 171.354-170.667 0-140.922-153.727-279.893-386.77-490.057z" />
<glyph unicode="&#xe921;" glyph-name="icon-filter" d="M0 163.556v-113.778h341.333v113.778h-341.333zM0 846.222v-113.778h568.889v113.778h-568.889zM568.889-64v113.778h455.111v113.778h-455.111v113.778h-113.778v-341.333h113.778zM227.556 618.667v-113.778h-227.556v-113.778h227.556v-113.778h113.778v341.333h-113.778zM1024 391.111v113.778h-568.889v-113.778h568.889zM682.667 618.667h113.778v113.778h227.556v113.778h-227.556v113.778h-113.778v-341.333z" />
<glyph unicode="&#xe922;" d="M454.078 482.684c3.225-4.44 6.862-8.68 10.912-12.669l81.556-81.333c-39.561-20.086-55.19-68.142-34.267-107.48l41.42-79.241c21.145-39.726 60.006-43.986 88.877-9.472 0 0 20.173 25.293 39.157 64.734 16.566-10.542 35.635-15.912 54.477-15.912 9.023 0 18.102 1.234 26.931 3.675-57.242-147.502-200.538-252.069-368.266-252.069-218.096 0-394.876 176.788-394.876 394.874 0 218.091 176.784 394.875 394.876 394.875 69.164 0 134.173-17.78 190.71-49.019l-57.581-57.421c-26.051 11.497-44.101 15.061-44.101 15.061-46.249 9.175-71.492-15.153-65.241-59.738l14.808-105.584c2.377-16.957 9.837-31.813 20.607-43.282zM142.234 565.577c-1.771-2.897-3.527-5.77-5.341-8.637-24.052-38.052-11.998-72.49 32.317-80.319l98.867-17.467c44.307-7.829 85.689 22.231 91.933 66.811l14.808 105.584c6.255 44.584-21.586 70.654-65.241 59.738-25.095-6.293-43.014-13.136-94.66-49.231-45.272-31.638-59.386-54.728-72.683-76.48zM65.901 388.045c0-105.37 78.464-195.556 78.464-195.556 28.877-34.514 70.855-30.254 91.982 9.472l43.382 79.241c21.147 39.737 4.362 88.371-36.099 108.084l-90.977 43.749c-40.464 19.717-75.372 12.028-86.752-17.084v-27.906zM396.731 63.226c64.755 0 101.503 17.118 101.503 17.118 40.798 19.007 48.612 61.042 17.357 93.423l-62.032 64.267c-31.251 32.381-82.393 32.381-113.645 0l-62.032-64.267c-31.251-32.381-23.441-74.416 17.35-93.423 0 0 36.755-17.118 101.499-17.118z" />
<glyph unicode="&#xe923;" d="M497.954 579.305l324.693 323.806 51.211-51.070-86.437-86.203 187.045-186.532c21.424-21.37 21.424-55.779 0-76.786l-199.76-199.21c-10.53-10.502-24.695-15.935-38.497-15.935s-27.967 5.433-38.497 15.935l-199.76 199.21c-21.428 21.007-21.428 55.417 0 76.786zM910.182 540.912l-173.972 173.493-173.971-173.493h347.943z" />
<glyph unicode="&#xe924;" glyph-name="icon-gift" d="M921.6 729.6h-111.616c5.632 15.872 9.216 33.28 9.216 51.2 0 84.992-68.608 153.6-153.6 153.6-53.76 0-100.352-27.648-128-69.12l-25.6-34.304-25.6 34.816c-27.648 40.96-74.24 68.608-128 68.608-84.992 0-153.6-68.608-153.6-153.6 0-17.92 3.584-35.328 9.216-51.2h-111.616c-56.832 0-101.888-45.568-101.888-102.4l-0.512-563.2c0-56.832 45.568-102.4 102.4-102.4h819.2c56.832 0 102.4 45.568 102.4 102.4v563.2c0 56.832-45.568 102.4-102.4 102.4zM665.6 832c28.16 0 51.2-23.040 51.2-51.2s-23.040-51.2-51.2-51.2c-28.16 0-51.2 23.040-51.2 51.2s23.040 51.2 51.2 51.2zM358.4 832c28.16 0 51.2-23.040 51.2-51.2s-23.040-51.2-51.2-51.2c-28.16 0-51.2 23.040-51.2 51.2s23.040 51.2 51.2 51.2zM921.6 64h-819.2v102.4h819.2v-102.4zM921.6 320h-819.2v307.2h260.096l-106.496-144.896 82.944-59.904 173.056 235.52 173.056-235.52 82.944 59.904-106.496 144.896h260.096v-307.2z" />
<glyph unicode="&#xe925;" glyph-name="icon-instagram" d="M802.319 613.445c-11.305 59.515-46.413 100.124-104.248 120.097-29.824 10.297-60.964 11.343-91.981 11.675-59.1 0.642-118.222 0.994-177.302 0.103-27.473-0.425-55.382-1.574-82.254-6.733-59.194-11.385-99.72-46.318-119.672-103.895-10.422-30.022-11.447-61.39-11.789-92.614-0.642-58.873-0.994-117.764-0.093-176.649 0.415-27.474 2.041-55.235 6.641-82.284 7.676-45.199 31.762-80.794 71.2-105.016 30.105-18.488 63.711-24.75 98.394-25.733 40.174-1.147 80.369-1.531 120.553-2.248 0.010 0.282 0.010 0.568 0.010 0.84 27.814 0 55.662-0.85 83.432 0.23 27.484 1.085 55.393 1.633 82.268 6.794 59.192 11.377 99.717 46.336 119.67 103.895 10.414 30.044 11.438 61.389 11.791 92.621 0.63 58.885 0.983 117.779 0.092 176.662-0.435 27.473-1.608 55.361-6.712 82.254zM753.019 316.979c-1.618-33.587-12.298-63.877-39.926-85.847-17.050-13.553-36.89-20.485-58.086-22.574-22.871-2.258-45.921-3.512-68.89-3.773-49.341-0.548-98.684-0.829-148.005 0.102-27.266 0.532-54.978 1.172-81.622 6.292-49.57 9.508-79.768 44.068-84.17 94.572-2.973 34.109-3.761 68.506-3.885 102.804-0.186 53.859 0.611 107.749 1.885 161.618 0.332 14.172 2.559 28.685 6.371 42.339 11.872 42.671 41.262 67.357 84.295 74.029 25.194 3.906 51.010 4.807 76.577 5.201 49.539 0.766 99.1 0.891 148.646-0.041 27.049-0.508 54.533-1.191 80.993-6.195 49.546-9.385 79.498-44.069 84.603-94.354 2.278-22.438 3.149-45.053 3.732-67.606 0.62-23.454 0.143-46.939 0.143-70.413 0.404-0.010 0.799-0.020 1.203-0.020-1.213-45.386-1.659-90.811-3.866-136.133zM513.766 601.076c-85.891 0.083-154.512-67.253-154.543-151.672-0.041-85.673 67.461-153.877 152.305-153.887 84.46-0.036 153.155 67.656 153.247 151.020 0.092 85.608-67.169 154.437-151.009 154.54zM512.128 349.174c-54.303-0.123-99.149 44.621-99.242 98.997-0.104 54.356 44.514 99.078 98.984 99.254 54.274 0.166 99.15-44.597 99.253-98.995 0.092-54.348-44.585-99.159-98.995-99.256zM671.437 642.793c-20.137 0.166-36.229-15.322-36.608-35.243-0.374-19.548 15.795-36.071 35.666-36.424 19.348-0.342 35.758 15.705 35.999 35.191 0.236 20.47-14.981 36.299-35.057 36.475zM511.995 960c-282.316 0-511.995-229.679-511.995-511.995s229.679-512.005 511.995-512.005c282.317 0 511.995 229.678 511.995 512.005 0.010 282.316-229.678 511.995-511.995 511.995zM511.995 18.877c-236.62 0-429.119 192.507-429.119 429.128s192.51 429.119 429.119 429.119c236.611 0 429.117-192.51 429.117-429.119 0.010-236.631-192.497-429.128-429.117-429.128z" />
<glyph unicode="&#xe926;" glyph-name="icon-instagram-filled" d="M714.011 511.593c-0.497 19.221-1.248 38.479-3.179 57.591-4.35 42.85-29.872 72.393-72.080 80.37-22.538 4.274-45.943 4.857-68.993 5.294-42.203 0.777-84.424 0.692-126.631 0.037-21.771-0.34-43.761-1.105-65.217-4.444-36.658-5.695-61.683-26.701-71.81-63.043-3.242-11.657-5.136-23.993-5.415-36.075-1.093-45.874-1.773-91.785-1.615-137.681 0.109-29.194 0.777-58.48 3.314-87.562 3.752-43.008 29.47-72.45 71.689-80.564 22.694-4.345 46.299-4.905 69.527-5.339 42.012-0.805 84.047-0.561 126.085-0.088 19.563 0.219 39.209 1.278 58.685 3.209 18.057 1.77 34.957 7.685 49.479 19.232 23.532 18.71 32.627 44.5 34.011 73.109 1.872 38.624 2.258 77.297 3.282 115.96-0.341 0.012-0.683 0.012-1.024 0.012 0.015 20.010 0.414 39.997-0.107 59.983zM506.158 317.352c-72.271 0.034-129.778 58.124-129.741 131.101 0.024 71.907 58.477 129.268 131.648 129.183 71.422-0.073 128.722-58.721 128.634-131.635-0.073-71.022-58.583-128.673-130.54-128.649zM641.58 552.137c-16.935 0.303-30.705 14.389-30.388 31.035 0.327 16.975 14.024 30.162 31.178 30.016 17.096-0.146 30.067-13.636 29.862-31.073-0.185-16.599-14.16-30.295-30.652-29.979zM506.47 935.619c-269.318 0-487.613-218.308-487.613-487.613 0-269.318 218.308-487.625 487.613-487.625 269.292 0 487.614 218.307 487.614 487.625 0.010 269.293-218.322 487.613-487.614 487.613zM759.408 367.626c-0.293-26.595-1.18-53.321-10.040-78.892-16.989-49.054-51.522-78.814-101.951-88.517-22.899-4.393-46.66-4.857-70.071-5.778-23.654-0.936-47.367-0.205-71.070-0.205 0-0.258 0-0.478-0.010-0.717-34.219 0.605-68.473 0.907-102.69 1.892-29.542 0.839-58.162 6.193-83.807 21.928-33.598 20.617-54.106 50.951-60.651 89.468-3.91 23.020-5.306 46.675-5.658 70.071-0.753 50.161-0.461 100.321 0.085 150.481 0.279 26.604 1.165 53.317 10.042 78.901 16.987 49.043 51.508 78.805 101.935 88.482 22.9 4.408 46.675 5.379 70.073 5.743 50.342 0.777 100.698 0.486 151.025-0.073 26.424-0.279 52.941-1.19 78.356-9.957 49.274-16.999 79.18-51.58 88.795-102.287 4.35-22.913 5.344-46.675 5.71-70.074 0.766-50.136 0.458-100.31-0.073-150.466zM506.363 531.932c-46.386-0.146-84.392-38.236-84.306-84.547 0.073-46.309 38.273-84.426 84.536-84.329 46.348 0.107 84.412 38.259 84.329 84.573-0.098 46.334-38.337 84.449-84.558 84.303z" />
<glyph unicode="&#xe927;" glyph-name="icon-iron" d="M542.090 550.332l135.598 66.482 202.532-419.909 106.542 52.239-202.532 419.907 135.598 66.483-58.875 122.066-120.361-4.016-278.573-137.242 80.070-166.009zM639.109 537.682l-101.197-18.030c-45.366-8.081-87.732 22.943-94.132 68.963l-15.16 108.985c-4.704 33.823 0 61.661 33.4 77.214l98.538 47.194c-48.082 20.338-100.883 31.575-156.291 31.575-223.279 0-404.268-182.477-404.268-407.591 0-225.105 180.985-407.592 404.268-407.592 166.766 0 309.942 101.801 371.735 247.132l-51.026 102.888c-18.022-81.963-67.118-144.023-67.118-144.023-29.558-35.625-69.345-31.222-90.988 9.784l-42.409 81.787c-21.636 41.020-5.089 91.217 36.326 111.565l88.448 45.158c7.055 3.467 13.757 6.113 20.081 7.969l-19.707 39.734c-3.277-1.136-6.774-2.051-10.501-2.713zM140.149 620.588c1.857 2.959 3.655 5.925 5.468 8.915 13.613 22.452 28.063 46.286 74.412 78.943 52.875 37.257 71.22 44.32 96.912 50.815 44.693 11.268 73.197-15.641 66.793-61.661l-15.16-108.985c-6.392-46.015-48.759-77.044-94.12-68.963l-101.218 18.030c-45.368 8.081-57.71 43.628-33.085 82.905zM147.799 244.398c0 0-80.33 93.092-80.33 201.856v28.804c11.65 30.050 47.388 37.986 88.815 17.634l93.142-45.158c41.423-20.347 58.607-70.548 36.957-111.565l-44.413-81.787c-21.63-41.006-64.607-45.409-94.17-9.784zM510.084 128.64c0 0-37.621-17.664-103.917-17.664-66.284 0-103.913 17.664-103.913 17.664-41.761 19.62-49.757 63.012-17.762 96.435l63.507 66.335c31.995 33.423 84.354 33.423 116.348 0l63.505-66.335c32-33.423 24.003-76.815-17.768-96.435z" />
<glyph unicode="&#xe928;" glyph-name="icon-list" d="M10.429 259.918h1003.105v125.388h-1003.105v-125.388zM10.429 9.143h1003.105v125.389h-1003.105v-125.389zM10.429 510.694h1003.105v125.388h-1003.105v-125.388zM10.429 886.857v-125.388h1003.105v125.388h-1003.105z" />
<glyph unicode="&#xe929;" d="M873.936 208.082v17.195c0.853 0.164 1.681 0.319 2.526 0.493 6.211 1.296 12.306 3.068 18.229 5.34 5.226 2.010 10.411 4.241 15.35 6.867l2.896 1.526 8.18 35.301h-47.173v19.829h51.774l1.272 5.53c1.649 7.064 2.707 15.325 0.648 22.405v0.049c-1.953 6.612-6.35 11.526-12.691 14.258-6.292 2.757-13.677 3.454-20.485 3.397-4.816 0-9.607-0.419-14.34-1.28l-0.075-0.016c-2.034-0.411-4.093-0.869-6.103-1.46v20.854c10.747 1.28 21.576 1.789 32.365 1.74h0.057c10.213 0.049 20.575-0.887 30.51-3.413l0.033-0.016c7.679-1.92 15.111-5.070 21.305-10.090 5.456-4.406 8.934-9.993 10.878-16.695 2.372-8.434 1.354-18.090-0.549-26.498l-21.487-92.746c-0.303-1.099-0.82-1.862-1.714-2.551l-0.131-0.098c-1.001-0.78-2.026-1.1-3.29-1.133h-30.69c-0.214 0-0.591 0.025-0.862 0.090 0.016 0.156 0.033 0.337 0.074 0.452l4.783 20.657-14.291-8.335c-5.497-3.191-11.231-5.931-17.113-8.303-3.249-1.287-6.546-2.387-9.886-3.346zM567.537 206.949c0.28-0.066 0.665-0.090 0.87-0.090h35.629c1.239 0.033 2.272 0.352 3.266 1.133l0.074 0.049 0.066 0.049c0.91 0.689 1.419 1.452 1.698 2.551l14.225 61.39h84.927l-14.998-64.63c-0.016-0.115-0.049-0.296-0.066-0.452 0.28-0.066 0.665-0.090 0.878-0.090h35.622c1.223 0.033 2.272 0.352 3.248 1.133l0.067 0.049 0.082 0.049c0.894 0.689 1.436 1.452 1.714 2.551l33.808 145.849c0.025 0.123 0.057 0.279 0.074 0.442-0.287 0.066-0.665 0.090-0.878 0.098h-35.622c-1.246-0.033-2.272-0.352-3.273-1.123l-0.066-0.066c-0.895-0.689-1.493-1.501-1.773-2.576l-13.733-59.257h-84.91l14.496 62.481c0.016 0.123 0.049 0.279 0.066 0.442-0.262 0.066-0.648 0.090-0.861 0.098h-35.613c-1.247-0.033-2.29-0.352-3.266-1.123l-0.074-0.066-0.066-0.049c-0.91-0.673-1.452-1.46-1.732-2.535l-33.783-145.857c-0.041-0.115-0.083-0.296-0.099-0.452zM873.936 358.36v-20.854c-2.388-0.681-4.726-1.501-7.006-2.486-3.906-1.673-7.564-3.888-10.747-6.71l-0.016-0.025-0.033-0.025c-2.092-1.895-4.447-3.421-7.031-4.546-2.675-1.099-5.562-1.542-8.425-1.575h-23.833c-0.221 0-0.599 0.033-0.861 0.098 0 0.147 0.033 0.296 0.049 0.427 1.55 6.407 4.397 12.060 9.041 16.802 5.045 5.225 11.395 8.942 18.114 11.6l0.057 0.025c8.721 3.519 18.205 5.587 27.5 6.883 1.051 0.123 2.125 0.254 3.192 0.385zM873.936 294.616v-19.829h-11.1c-5.571-0.057-11.108-0.894-16.285-2.961-4.659-1.871-8.926-4.529-12.387-8.212l-0.016-0.033-0.033-0.033c-3.266-3.544-5.579-7.712-6.662-12.436-1.133-4.824-0.935-9.673 1.182-14.21 2.125-4.676 5.947-7.966 10.518-10.14l0.066-0.025 0.066-0.033c5.152-2.321 11.058-3.043 16.629-3.092h0.139c6.006 0.049 11.986 0.582 17.893 1.657v-17.195c-3.043-0.879-6.153-1.601-9.287-2.223-7.278-1.444-14.751-2.026-22.168-2.076-9.18 0.008-18.467 0.845-27.384 3.15-6.793 1.781-13.578 4.495-19.164 8.786l-0.058 0.034c-4.569 3.469-7.818 7.785-9.696 13.199l-0.016 0.025c-2.125 6.039-1.641 12.773-0.263 18.91 1.764 7.35 4.865 14.053 9.64 19.886l0.016 0.008c4.922 6.039 10.894 10.845 17.696 14.611 7.663 4.266 15.949 7.195 24.464 9.123 9.557 2.166 19.328 3.101 29.148 3.101h7.064v0.008zM387.896 353.257l-33.783-145.857c-0.033-0.115-0.067-0.288-0.083-0.452 0.271-0.066 0.656-0.090 0.862-0.090h44.785c1.608 0.049 3.159 0.427 4.652 1.009 2.059 0.797 4.027 1.822 5.841 3.085 1.722 1.197 3.298 2.567 4.693 4.143l98.265 120.605-29.747-128.308c-0.016-0.115-0.049-0.296-0.066-0.452 0.28-0.066 0.665-0.090 0.879-0.090h33.316c1.246 0.033 2.289 0.352 3.265 1.133l0.066 0.049 0.074 0.049c0.911 0.689 1.428 1.452 1.699 2.551l33.817 145.849c0.033 0.123 0.049 0.279 0.066 0.442-0.255 0.066-0.648 0.090-0.878 0.098h-44.884c-1.526 0-3.215-0.467-4.635-0.992-2.043-0.763-3.963-1.797-5.76-2.994-1.731-1.198-3.273-2.585-4.626-4.184l-98.405-121.056 29.829 128.694c0.041 0.123 0.074 0.279 0.074 0.442-0.262 0.066-0.656 0.090-0.878 0.098h-33.316c-1.247-0.033-2.273-0.352-3.266-1.123l-0.074-0.066-0.066-0.049c-0.902-0.681-1.436-1.46-1.715-2.535zM90.047 402.899c0.181 0.828 0.287 1.879-0.033 2.683-0.328 0.722-0.796 1.206-1.493 1.616l-0.033 0.025-0.041 0.025c-0.976 0.624-2.158 0.805-3.298 0.805h-30.19c-1.715 0-3.331-0.427-4.873-1.182l-0.049-0.016c-1.69-0.812-3.101-1.887-4.323-3.274-1.083-1.247-1.78-2.625-2.199-4.209l-43.341-187.056c-0.18-0.854-0.295-1.945 0.049-2.781l0.016-0.041 0.033-0.041c0.32-0.796 0.763-1.313 1.501-1.773l0.033-0.033 0.049-0.025c0.894-0.591 2.174-0.755 3.241-0.771h291.263c1.722 0.033 3.315 0.402 4.865 1.182l0.049 0.025c1.731 0.853 3.174 1.952 4.413 3.405l0.049 0.041c1.010 1.156 1.764 2.452 2.108 3.954l43.391 187.205c0.213 0.943 0.311 1.961-0.050 2.896-0.311 0.714-0.738 1.223-1.427 1.632l-0.041 0.025-0.033 0.025c-0.968 0.624-2.158 0.805-3.314 0.805h-30.182c-1.722 0-3.364-0.468-4.906-1.198-1.665-0.796-3.092-1.838-4.315-3.192-0.993-1.181-1.748-2.502-2.149-3.995l-38.148-164.677h-84.91l38.845 167.613c0.188 0.919 0.311 2.067-0.033 2.961-0.321 0.714-0.755 1.223-1.436 1.632l-0.066 0.049c-0.985 0.624-2.166 0.805-3.298 0.805h-30.199c-1.698 0-3.347-0.443-4.865-1.182l-0.057-0.016c-1.649-0.796-3.084-1.838-4.307-3.192-0.992-1.181-1.739-2.502-2.141-3.995l-38.164-164.677h-84.894l38.903 167.917z" />
<glyph unicode="&#xe92a;" d="M379.652 450.006c-1.559-0.033-3.076-0.378-4.479-1.059l-0.057-0.025c-1.502-0.714-2.789-1.649-3.906-2.879-0.91-1.082-1.583-2.248-1.936-3.626l-3.002-12.937c-0.172-0.861-0.213-1.797 0.082-2.634 0.304-0.706 0.714-1.165 1.37-1.575l0.066-0.049c0.796-0.517 2.002-0.673 2.937-0.697h231.054c1.108 0 4.537-0.123 6.211 0.139 0.033 2.272-1.542 7.096-2.076 8.573-6.875 19.419-8.794 20.28-3.987 41.044l29.665 127.956c0.148 0.771 0.263 1.682-0.033 2.428-0.279 0.607-0.648 1.058-1.222 1.403l-0.108 0.057-0.082 0.057c-0.894 0.558-1.977 0.722-3.002 0.722h-78.56c-10.181 0.049-20.379-0.673-30.477-2.158-9.673-1.468-19.131-4.053-28.205-7.802-8.82-3.65-16.777-8.795-23.898-15.177-7.712-6.965-13.659-15.571-18.303-24.817l-32.183-65.18h41.61l29.492 59.216c2.879 5.964 6.687 11.37 11.411 16.022l0.033 0.025c4.66 4.554 10.067 8.139 16.096 10.591 6.243 2.585 12.847 3.791 19.591 3.791h51.586l-30.461-131.394-175.227-0.016z" />
<glyph unicode="&#xe92b;" d="M758.852 429.947c13.068 5.267 24.209 13.159 33.177 24.021 9.598 11.642 15.456 25.622 18.893 40.199 2.847 12.454 4.292 26.909-0.131 39.15-3.724 10.263-10.771 17.367-20.542 22.167-12.855 6.276-28.738 7.933-42.897 7.933-5.948 0-11.929-0.303-17.893-0.984v-17.81c3.536 0.582 7.137 0.845 10.739 0.828 8.049 0.041 16.572-1.264 23.423-5.751 6.817-4.472 10.435-11.354 11.764-19.28 1.65-9.344 0-20.025-2.125-29.165-2.264-9.853-5.661-20.099-11.117-28.664-4.626-7.359-10.657-13.479-18.45-17.45-4.52-2.297-9.295-3.773-14.225-4.611v-17.802c10.066 1.165 19.968 3.446 29.387 7.219zM729.457 562.432c-10.066-1.149-20.009-3.405-29.427-7.154-13.037-5.218-24.186-13.061-33.127-23.874-9.599-11.65-15.456-25.571-18.877-40.166-2.855-12.438-4.307-26.95 0.123-39.214 3.692-10.305 10.755-17.458 20.518-22.299 12.855-6.325 28.689-8.023 42.857-8.023 5.972 0 11.978 0.303 17.942 1v17.802c-3.544-0.59-7.154-0.845-10.763-0.828-8.080-0.049-16.612 1.264-23.471 5.825-6.81 4.529-10.362 11.511-11.666 19.444-1.632 9.336 0.016 20.058 2.125 29.197 2.281 9.861 5.652 20.059 11.125 28.624 4.619 7.318 10.649 13.364 18.409 17.269 4.537 2.272 9.336 3.741 14.242 4.562v17.835h-0.008z" />
<glyph unicode="&#xe92c;" d="M832.58 424.599c0.247-0.066 0.591-0.082 0.772-0.090 32.118 0 38.23 15.751 49.83 59.076h76.969l-13.577-58.584c-0.033-0.106-0.049-0.262-0.066-0.401 0.246-0.066 0.598-0.082 0.804-0.090h32.282c1.133 0.033 2.076 0.319 2.971 1.025l0.049 0.049 0.074 0.049c0.812 0.607 1.288 1.313 1.542 2.297l30.641 132.206c0.033 0.116 0.066 0.271 0.066 0.411-0.254 0.066-0.598 0.082-0.804 0.090h-32.282c-1.116-0.033-2.059-0.328-2.954-1.025l-0.033-0.016-0.033-0.025c-0.82-0.624-1.346-1.362-1.608-2.355l-12.454-53.703h-113.927l-18.187-78.511c-0.042-0.106-0.058-0.262-0.075-0.401z" />
<glyph unicode="&#xe92d;" d="M892.116 522.093l8.81 38.042c0.033 0.115 0.049 0.271 0.066 0.411-0.246 0.066-0.591 0.082-0.796 0.090h-14.291c-11.798 0-21.741 0.41-30.109-35.687l-0.665-2.863 36.984 0.008z" />
<glyph unicode="&#xe92e;" d="M296.628 429.948c11.403 4.602 21.371 11.206 29.69 20.058h-22.43c-8.203 0-15.406-1.296-22.404-4.865-7.785-3.955-16.351-5.497-25.039-5.439-8.064-0.049-20.485 1.264-27.335 5.826-11.372 6.645-11.937 8.606-22.569 9.205-9.714 0.532-20.683 0.147-30.322-0.345-18.599-0.959-54.433-1.395-79.726 0.558-18.163 1.411-29.042 1.961-29.345 10.303-1.067 28.213 7.318 20.806 14.619 22.93 8.483 2.469 17.294 4.922 23.504 7.391 24.333 9.689 43.751 17.795 65.049 33.8-27.786-9.074-122.032-27.179-65.524 4.299 3.765 2.108 7.555 4.11 11.313 6.014 30.682 15.481 60.971 24.537 93.040 33.201 45.409 12.281 102.697 25.383 146.858 39.624 39.034 12.585 78.38 31.527 117.643 45.285 36.303 12.716 62.924 22.224 101.859 23.397l46.976 1.411c42.775 1.288 85.779-1.329 118.463-10.083 56.23-15.071 90.621-40.675 148.228-76.682-6.333-7.342-12.297-15.849-17.565-25.966 10.313 5.079 22.561 3.586 31.651 3.069 9.229 16.137 16.613 25.711 21.445 30.371l4.627 4.044c7.277 6.342 11.215 12.306 21.092 12.478l15.522 0.287c16.013 9.607 3.937 8.040-9.542 12.142-18.426 5.628-25.974 15.981-39.952 29.435-5.981 5.759-9.246-0.394-12.749-4.586-4.48-5.382-7.991-10.452-3.93-13.823l22.471-18.689c-5.579-3.864-11.272-8.040-16.876-12.798-55.4 31.166-92.573 58.641-143.978 73.81-37.86 11.157-88.749 14.414-136.873 12.929l-51.915-1.583c-80.25 1.042-147.169-36.245-219.634-64.261-32.89-12.708-81.21-23.644-129.351-36.154-35.31-9.172-89.374-26.704-128.358-49.699-34.341-20.256-52.817-41.2-53.719-67.871-0.533-15.653 0.894-26.54 3.364-30.567 4.118-6.695 14.119-14.677 33.669-15.423 31.429-1.198 65.763-2.321 98.897-1.165 10.206 0.361 19.501 2.601 28.943-2.084 25.531-12.536 64.418-10.123 90.21 0.214z" />
<glyph unicode="&#xe92f;" glyph-name="icon-menu" d="M0 106.667h682.667v113.778h-682.667v-113.778zM0 789.333v-113.778h1024v113.778h-1024zM0 391.111h1024v113.778h-1024v-113.778z" />
<glyph unicode="&#xe930;" glyph-name="icon-moto" d="M793.6 576c-1.536 0-2.56-0.512-4.096-0.512l-205.312 205.312h-225.792v-102.4h183.808l102.4-102.4h-414.72c-126.976 0-229.888-103.424-229.888-230.4 0-127.488 102.912-230.4 230.4-230.4 113.664 0 207.872 82.944 226.304 190.976l108.544 65.024c-1.024-8.704-2.048-16.896-2.048-25.6 0-127.488 102.912-230.4 230.4-230.4s230.4 102.912 230.4 230.4c0 127.488-102.912 230.4-230.4 230.4zM350.208 306.688c-16.384-51.712-64.512-89.088-121.344-89.088-70.656 0-128 57.344-128 128s57.344 128 128 128c57.344 0 104.96-37.888 121.344-89.6h-145.408v-76.8l145.408-0.512zM792.064 217.6c-70.656 0-128 57.344-128 128s57.344 128 128 128c70.656 0 128-57.344 128-128s-57.344-128-128-128z" />
<glyph unicode="&#xe931;" glyph-name="icon-nonspikes" d="M194.155 323.265l606.619-353.34v-3.807h-680.303v283.461l73.685 73.686zM630.7 419.654l150.311-150.312-490.464 285.679v148.094l170.076 226.768 170.077-226.768v-283.46zM990.401 87.142l-929.769 541.563-60.634-104.099 929.77-541.563 60.633 104.099z" />
<glyph unicode="&#xe932;" glyph-name="icon-notify" d="M1024 449.862l-113.571 129.396 15.825 171.287-168.029 38.167-87.971 148.015-158.255-67.956-158.255 67.956-87.971-148.015-168.029-37.702 15.825-171.287-113.571-129.862 113.571-129.396-15.825-171.753 168.029-38.167 87.971-148.015 158.255 68.422 158.255-67.956 87.971 148.015 168.029 38.167-15.825 171.287 113.571 129.396zM558.545 217.135h-93.091v93.091h93.091v-93.091zM558.545 403.316h-93.091v279.273h93.091v-279.273z" />
<glyph unicode="&#xe933;" glyph-name="icon-oil" d="M801.792 670.208l-289.792 289.792-289.792-289.792c-159.744-159.744-159.744-419.328 0-579.072 79.872-79.872 184.832-119.808 289.792-119.808s209.92 39.936 289.792 119.808c159.744 159.744 159.744 419.328 0 579.072zM512 73.216c-81.92 0-159.232 31.744-217.088 90.112-58.368 58.368-90.112 135.168-90.112 217.088s31.744 159.232 90.112 217.088l217.088 217.6v-741.888z" />
<glyph unicode="&#xe934;" glyph-name="icon-phone" d="M632.248 734.397h-44.416c0.727-2.346 1.224-4.781 1.224-7.344v-7.969c0-14.024-11.474-25.499-25.498-25.499h-87.655c-14.024 0-25.499 11.474-25.499 25.499v7.969c0 2.563 0.497 5.010 1.224 7.344h-59.897c-21.088 0-38.248-17.161-38.248-38.248v-481.165c0-21.089 17.161-38.252 38.248-38.252h240.532c21.084 0 38.246 17.162 38.246 38.252v481.165c-0.010 21.101-17.172 38.248-38.262 38.248zM511.997 201.216c-22.006 0-39.842 17.833-39.842 39.839s17.837 39.844 39.842 39.844c22.004 0 39.842-17.838 39.842-39.844s-17.848-39.839-39.842-39.839zM511.994 960c-282.771 0-511.994-229.223-511.994-511.994 0-282.784 229.223-512.006 511.994-512.006 282.768 0 511.996 229.222 511.996 512.006 0 282.758-229.238 511.994-511.996 511.994zM721.495 214.984c0-49.198-40.049-89.247-89.247-89.247h-240.534c-49.2 0-89.246 40.049-89.246 89.247v481.166c0 49.2 40.046 89.246 89.246 89.246h240.534c49.198 0 89.247-40.046 89.247-89.246v-481.166z" />
<glyph unicode="&#xe935;" glyph-name="icon-phonehandset" d="M1011.627 227.413c-130.133 123.307-305.92 199.253-499.627 199.253s-369.493-75.947-499.627-199.253c-7.68-7.68-12.373-18.347-12.373-30.293s4.693-22.613 12.373-30.293l105.813-105.813c7.68-7.68 18.347-12.373 30.293-12.373 11.52 0 22.187 4.693 29.867 11.947 33.707 31.573 72.107 58.027 113.493 78.933 14.080 6.827 23.893 21.333 23.893 38.4v132.267c61.867 20.48 128 31.147 196.267 31.147s134.4-10.667 196.267-30.72v-132.267c0-16.64 9.813-31.573 23.893-38.4 41.813-20.907 79.787-47.787 113.493-78.933 7.68-7.68 18.347-11.947 29.867-11.947 11.947 0 22.613 4.693 30.293 12.373l105.813 105.813c7.68 7.68 12.373 18.347 12.373 30.293 0 11.52-4.693 22.187-12.373 29.867zM902.827 671.573l-60.16 60.16-151.893-151.467 60.16-60.16c0 0 147.2 150.187 151.893 151.467zM554.667 853.333h-85.333v-213.333h85.333v213.333zM273.067 520.107l60.16 60.16-151.467 151.893-60.587-60.587c4.693-1.28 151.893-151.467 151.893-151.467z" />
<glyph unicode="&#xe936;" glyph-name="icon-phone-nobg" horiz-adv-x="652" d="M558.080 959.535l-465.455 0.465c-51.2 0-92.625-41.891-92.625-93.091v-837.818c0-51.2 41.425-93.091 92.625-93.091h465.455c51.2 0 93.091 41.891 93.091 93.091v837.818c0 51.2-41.891 92.625-93.091 92.625zM558.080 122.182h-465.455v651.636h465.455v-651.636z" />
<glyph unicode="&#xe937;" glyph-name="icon-photo" d="M264.704 806.4l93.696 102.4h307.2l93.696-102.4h162.304c56.32 0 102.4-46.080 102.4-102.4v-614.4c0-56.32-46.080-102.4-102.4-102.4h-819.2c-56.32 0-102.4 46.080-102.4 102.4v614.4c0 56.32 46.080 102.4 102.4 102.4h162.304zM256 396.8c0-141.312 114.688-256 256-256s256 114.688 256 256c0 141.312-114.688 256-256 256s-256-114.688-256-256zM675.83 396.81c0-90.486-73.354-163.84-163.84-163.84s-163.84 73.354-163.84 163.84c0 90.486 73.354 163.84 163.84 163.84s163.84-73.354 163.84-163.84z" />
<glyph unicode="&#xe938;" glyph-name="icon-placemark" d="M512 960c-198.144 0-358.4-160.256-358.4-358.4 0-268.8 358.4-665.6 358.4-665.6s358.4 396.8 358.4 665.6c0 198.144-160.256 358.4-358.4 358.4zM512 473.6c-70.656 0-128 57.344-128 128s57.344 128 128 128c70.656 0 128-57.344 128-128s-57.344-128-128-128z" />
<glyph unicode="&#xe939;" glyph-name="icon-plane" d="M998.4 243.2v102.4l-409.6 256v281.6c0 42.496-34.304 76.8-76.8 76.8s-76.8-34.304-76.8-76.8v-281.6l-409.6-256v-102.4l409.6 128v-281.6l-102.4-76.8v-76.8l179.2 51.2 179.2-51.2v76.8l-102.4 76.8v281.6l409.6-128z" />
<glyph unicode="&#xe93a;" glyph-name="icon-points" d="M967.111 903.111h-910.222v-113.778h910.222v113.778zM1024 334.222v113.778l-56.889 284.444h-910.222l-56.889-284.444v-113.778h56.889v-341.333h568.889v341.333h227.556v-341.333h113.778v341.333h56.889zM512 106.667h-341.333v227.556h341.333v-227.556z" />
<glyph unicode="&#xe93b;" glyph-name="icon-readmore" d="M1024 448c0 282.624-229.376 512-512 512s-512-229.376-512-512c0-282.624 229.376-512 512-512s512 229.376 512 512zM281.6 550.4h460.8l-230.4-307.2-230.4 307.2z" />
<glyph unicode="&#xe93c;" glyph-name="icon-readmore-reversed" d="M1024 448c0-282.624-229.376-512-512-512s-512 229.376-512 512c0 282.624 229.376 512 512 512s512-229.376 512-512zM281.6 345.6h460.8l-230.4 307.2-230.4-307.2z" />
<glyph unicode="&#xe93d;" glyph-name="icon-readmore-right" d="M0 448c0-282.624 229.376-512 512-512s512 229.376 512 512c0 282.624-229.376 512-512 512s-512-229.376-512-512zM614.4 448l-204.8-204.8v409.6l204.8-204.8z" />
<glyph unicode="&#xe93e;" glyph-name="icon-repair" d="M467.41 333.35l-185.202 185.201-61.734-61.734 246.936-246.934 529.147 529.147-61.731 61.734-467.416-467.413zM905.48 535.417c0 0 10.596-48.14 10.596-91.783 0-0.482 0-0.482-0.011-0.451-0.016-0.528 12.121-0.957 26.985-0.957 14.859 0 25.654-15.513 23.999-34.478l-10.154-68.853c-4.252-18.551-19.090-30.316-32.984-26.161-13.883 4.166-30.623-7.028-37.193-24.862l-23.067-51.502c-9.022-16.702-6.688-36.686 5.185-44.447 11.862-7.75 12.363-26.543 1.11-41.779l-45.697-53.501c-13.258-13.479-31.674-15.656-40.928-4.845-9.254 10.79-29.087 10.289-44.097-1.153l-46.473-30.337c-16.449-9.167-25.099-27.314-19.219-40.313 5.891-13.021-3.686-29.125-21.272-35.797l-67.094-20.022c-18.34-4.047-34.978 4.22-36.977 18.373-2.010 14.169-18.905 24.048-37.562 21.978 0 0-7.1-0.792-28.19-0.792-20.791 0-27.3 0.722-27.3 0.722-18.662 2.053-35.531-7.869-37.51-22.032-1.966-14.169-18.592-22.479-36.937-18.47l-67.158 19.887c-17.587 6.64-27.198 22.717-21.337 35.732 5.857 13.026-2.833 31.157-19.296 40.286l-46.539 30.246c-15.027 11.415-34.866 11.895-44.093 1.046-9.232-10.827-27.652-8.688-40.943 4.759l-45.808 53.42c-11.286 15.214-10.818 34.024 1.032 41.795 11.849 7.766 14.141 27.767 5.081 44.442l-22.99 50.974c-6.619 17.828-23.104 29.087-36.633 25.039-13.529-4.053-27.872 7.858-31.882 26.452l-10.003 70.099c-1.366 18.987 9.034 34.554 23.113 34.572 14.084 0.031 25.59 0.327 25.581 0.653v0.29c0 42.704 10.016 89.181 10.016 89.181 4.006 18.589-3.799 37.080-17.349 41.081-13.542 3.988-19.293 21.857-12.771 39.722l28.93 64.579c8.968 16.738 26.021 24.092 37.897 16.372 11.885-7.721 30.79-1.556 42.014 13.702l36.086 42.472c13.242 13.483 16.485 33.351 7.218 44.148-9.267 10.783-4.592 28.984 10.396 40.442l58.627 38.515c16.437 9.183 34.72 6.062 40.62-6.93 5.905-13 25.092-18.119 42.639-11.369l53.017 15.822c18.323 4.127 31.649 19.076 29.622 33.231-2.023 14.15 11.629 26.864 30.344 28.237l69.718 0.201c18.729-1.261 32.441-13.895 30.501-28.058-1.946-14.177 11.463-29.051 29.815-33.061l53.102-15.482c17.597-6.63 36.756-1.39 42.588 11.65 5.831 13.037 24.091 16.269 40.588 7.189l58.842-38.157c15.064-11.364 19.855-29.528 10.644-40.379s-5.842-30.696 7.475-44.112l16.163-18.782-104.135-104.136c-52.467 63.437-131.158 103.833-218.973 103.833-138.221 0-253.836-100.077-280.151-232.551l-44.181-44.182 39.752-39.752c12.603-140.085 123.86-251.696 262.495-262.496l7.049-7.049 6.325 6.327c2.893-0.092 5.797-0.135 8.711-0.135 157.565 0 285.764 130.064 285.77 289.92 0 1.555-0.011 3.109-0.038 4.659l167.278 167.278c6.144-17.531 0.48-34.935-12.832-38.948-13.517-4.091-21.24-22.63-17.149-41.211z" />
<glyph unicode="&#xe93f;" glyph-name="icon-reviews" d="M972.8 755.2h-102.4v-460.8h-665.6v-102.4c0-28.16 23.040-51.2 51.2-51.2h563.2l204.8-204.8v768c0 28.16-23.040 51.2-51.2 51.2zM768 448v460.8c0 28.16-23.040 51.2-51.2 51.2h-665.6c-28.16 0-51.2-23.040-51.2-51.2v-716.8l204.8 204.8h512c28.16 0 51.2 23.040 51.2 51.2z" />
<glyph unicode="&#xe940;" glyph-name="icon-scales" d="M512.007 910.452c-18.852 0-34.132-15.282-34.132-34.134v-34.134h-307.205c-18.852 0-34.134-15.282-34.134-34.134 0-11.463 5.65-21.606 14.317-27.796l-2.123-3.324c0.003 0.004 0 0 28.766-18.374v0l-28.766 18.374-0.456-0.716-1.245-1.966c-1.082-1.712-2.656-4.214-4.652-7.412-3.991-6.395-9.672-15.586-16.482-26.836-13.604-22.474-31.788-53.299-50.014-86.562-18.167-33.155-36.678-69.28-50.742-102.241-13.354-31.301-25.138-65.12-25.138-91.466 0-95.209 81.509-168.805 177.496-168.805s177.496 73.596 177.496 168.805c0 26.347-11.783 60.165-25.138 91.466-14.063 32.961-32.575 69.087-50.742 102.241-18.226 33.263-36.41 64.088-50.014 86.562-6.81 11.251-12.492 20.441-16.482 26.836-1.87 2.998-3.37 5.383-4.442 7.080h269.702v-682.675c0-1.741 0.129-3.452 0.38-5.12h-171.063c-18.852 0-34.134-15.284-34.134-34.136s15.282-34.132 34.134-34.132h421.554c18.852 0 34.132 15.281 34.132 34.132s-15.281 34.136-34.132 34.136h-182.985c0.251 1.668 0.38 3.379 0.38 5.12v682.675h260.79c-3.475-5.986-7.706-13.333-12.499-21.764-13.583-23.894-31.731-56.606-49.922-91.748-18.131-35.038-36.577-73.011-50.569-107.31-13.289-32.57-24.929-67.254-24.929-93.366 0-95.209 81.51-168.805 177.496-168.805s177.496 73.596 177.496 168.805c0 26.112-11.641 60.796-24.929 93.366-13.996 34.299-32.438 72.272-50.572 107.31-18.188 35.142-36.335 67.854-49.918 91.748-6.798 11.96-12.47 21.74-16.45 28.547l-2.956 5.035c5.176 5.984 8.304 13.784 8.304 22.315 0 18.852-15.281 34.134-34.132 34.134h-307.207v34.134c0 18.852-15.281 34.134-34.132 34.134zM177.496 693.346c12.213-20.42 26.995-45.792 41.746-72.714 17.608-32.135 34.874-65.935 47.676-95.892h-178.846c12.803 29.957 30.068 63.758 47.676 95.892 14.752 26.922 29.533 52.294 41.746 72.714zM177.496 359.189c-61.099 0-107.316 45.102-109.17 97.283h218.341c-1.854-52.181-48.072-97.283-109.17-97.283zM805.138 629.026c14.597 28.206 29.22 54.894 41.366 76.517 12.146-21.622 26.769-48.311 41.366-76.517 17.705-34.212 35.103-70.137 47.989-101.719 0.353-0.862 0.7-1.718 1.041-2.567h-180.792c0.34 0.849 0.687 1.704 1.037 2.567 12.889 31.582 30.284 67.507 47.993 101.719zM737.333 456.473h218.343c-1.856-52.181-48.072-97.28-109.172-97.28s-107.315 45.099-109.172 97.28z" />
<glyph unicode="&#xe941;" glyph-name="icon-search" d="M450.948 960c-248.646 0-450.948-202.302-450.948-450.948 0-248.66 202.302-450.948 450.948-450.948 248.66 0 450.948 202.288 450.948 450.948 0 248.646-202.288 450.948-450.948 450.948zM450.948 141.354c-202.746 0-367.696 164.95-367.696 367.696s164.95 367.698 367.696 367.698c202.746 0 367.696-164.95 367.696-367.696s-164.95-367.698-367.696-367.698zM1011.804 7.056l-238.656 238.656c-16.262 16.262-42.598 16.262-58.86 0-16.262-16.248-16.262-42.612 0-58.86l238.656-238.656c8.13-8.13 18.774-12.196 29.43-12.196 10.642 0 21.298 4.066 29.43 12.196 16.262 16.248 16.262 42.612 0 58.86z" />
<glyph unicode="&#xe942;" glyph-name="icon-services" d="M963.207 140.132l-403.1 403.103c39.866 101.882 17.715 221.483-66.447 305.647-88.593 88.593-221.484 106.312-327.796 57.586l190.476-190.476-132.89-132.89-194.906 190.476c-53.156-106.312-31.008-239.203 57.586-327.796 84.164-84.164 203.765-106.31 305.647-66.444l403.101-403.1c17.721-17.721 44.296-17.721 62.017 0l101.883 101.883c22.145 17.715 22.145 48.726 4.43 62.011z" />
<glyph unicode="&#xe943;" glyph-name="icon-services-aircond" d="M512 448c0 139.636 116.364 256 256 256s256-116.364 256-256h-512zM512 448c0-139.636-116.364-256-256-256s-256 116.364-256 256h512zM512 448c-139.636 0-256 116.364-256 256s116.364 256 256 256v-512zM512 448c139.636 0 256-116.364 256-256s-116.364-256-256-256v512z" />
<glyph unicode="&#xe944;" glyph-name="icon-services-store" d="M146.286 521.143v-341.333h146.286v341.333h-146.286zM438.857 521.143v-341.333h146.286v341.333h-146.286zM48.762-64h926.476v146.286h-926.476v-146.286zM731.429 521.143v-341.333h146.286v341.333h-146.286zM512 960l-463.238-243.81v-97.524h926.476v97.524l-463.238 243.81z" />
<glyph unicode="&#xe945;" glyph-name="icon-services-tires" d="M690.678 626.715c-45.896 45.866-108.882 74.335-178.835 74.335-139.901 0-252.899-113.243-252.899-253.055 0-139.817 112.997-253.061 252.899-253.061 118.061 0 216.498 80.666 244.668 189.793h-65.833c-25.958-73.702-96.225-126.525-178.835-126.525-104.768 0-189.912 85.089-189.912 189.793 0 104.7 85.144 189.791 189.912 189.791 52.54 0 99.388-21.826 133.569-56.305l-101.919-101.856h221.568v221.425l-74.383-74.335zM958.638 540.274c0 0 11.218-50.814 11.218-96.882 0-0.512 0-0.512-0.010-0.476-0.020-0.558 12.831-1.009 28.564-1.009s27.162-16.379 25.411-36.393l-10.747-72.678c-4.5-19.579-20.214-32-34.924-27.612-14.7 4.393-32.42-7.424-39.373-26.25l-24.422-54.359c-9.549-17.628-7.081-38.728 5.489-46.915 12.554-8.182 13.087-28.022 1.178-44.104l-48.379-56.474c-14.039-14.228-33.536-16.527-43.336-5.115-9.795 11.392-30.797 10.865-46.684-1.213l-49.203-32.020c-17.413-9.682-26.573-28.836-20.347-42.557 6.236-13.742-3.901-30.74-22.518-37.78l-71.035-21.14c-19.42-4.275-37.028 4.46-39.148 19.4-2.13 14.95-20.014 25.38-39.767 23.199 0 0-7.516-0.84-29.846-0.84-22.011 0-28.902 0.763-28.902 0.763-19.758 2.166-37.617-8.305-39.712-23.255-2.081-14.956-19.683-23.731-39.105-19.497l-71.101 20.992c-18.619 7.009-28.794 23.977-22.589 37.719 6.2 13.747-3 32.886-20.43 42.522l-49.271 31.928c-15.909 12.047-36.913 12.549-46.682 1.101-9.774-11.428-29.275-9.175-43.346 5.023l-48.497 56.387c-11.948 16.067-11.453 35.917 1.092 44.119 12.546 8.197 14.971 29.312 5.38 46.915l-24.339 53.806c-7.008 18.811-24.461 30.7-38.784 26.429-14.323-4.28-29.509 8.289-33.754 27.919l-10.59 73.994c-1.446 20.040 9.564 36.475 24.47 36.49 14.911 0.036 27.092 0.348 27.083 0.691v0.307c0 45.075 10.605 94.134 10.605 94.134 4.241 19.622-4.022 39.14-18.368 43.363-14.337 4.209-20.425 23.071-13.52 41.929l30.629 68.167c9.494 17.668 27.549 25.431 40.122 17.281 12.582-8.15 32.597-1.642 44.48 14.464l38.205 44.831c14.019 14.233 17.453 35.204 7.642 46.601-9.811 11.382-4.861 30.594 11.006 42.689l62.068 40.654c17.402 9.693 36.759 6.399 43.005-7.314 6.252-13.723 26.565-19.126 45.143-12l56.13 16.7c19.399 4.356 33.507 20.136 31.361 35.077-2.141 14.936 12.312 28.357 32.126 29.805l73.812 0.212c19.825-1.331 34.345-14.667 32.292-29.617-2.063-14.964 12.134-30.664 31.565-34.897l56.223-16.342c18.627-6.999 38.912-1.468 45.082 12.298 6.175 13.761 25.508 17.172 42.972 7.588l62.3-40.277c15.944-11.996 21.018-31.17 11.269-42.622-1.71-2.009-3.016-4.31-3.917-6.816v21.214l-141.010-135.585c-48.896 34.336-108.232 54.478-172.127 54.478-166.825 0-302.546-137.291-302.546-306.025s135.721-306.028 302.546-306.028c150.551 0 275.781 111.821 298.77 257.664 0 0 14.367 58.851 14.367 94.162s0 94.579 0 94.579v205.486c2.048-6.957 6.052-13.894 11.827-19.693l38.487-44.595c11.986-16.035 32.051-22.42 44.57-14.19 12.529 8.221 30.633 0.557 40.233-17.046l31.027-67.954c7.020-18.805 1.060-37.705-13.266-42.009-14.305-4.318-22.482-23.888-18.15-43.501z" />
<glyph unicode="&#xe946;" glyph-name="icon-services-vin" d="M910.222 960h-796.444c-62.578 0-113.778-51.2-113.778-113.778v-398.222c0-62.578 51.2-113.778 113.778-113.778h796.444c62.578 0 113.778 51.2 113.778 113.778v398.222c0 62.578-51.2 113.778-113.778 113.778zM910.222 618.667h-227.556c0-92.16-78.507-170.667-170.667-170.667s-170.667 78.507-170.667 170.667h-227.556v227.556h796.444v-227.556zM682.667 220.444h341.333v-170.667c0-62.578-51.2-113.778-113.778-113.778h-796.444c-62.578 0-113.778 51.2-113.778 113.778v170.667h341.333c0-94.436 76.231-170.667 170.667-170.667s170.667 76.231 170.667 170.667z" />
<glyph unicode="&#xe947;" glyph-name="icon-services-wheel-painted" d="M932.545 447.914l-169.824 169.386-169.824-169.386c-46.809-46.768-70.21-109.126-70.21-169.083 0-59.961 23.4-123.216 70.21-169.988 46.805-46.768 108.315-70.451 169.824-70.451s123.015 23.683 169.824 70.451c46.805 46.772 70.21 110.027 70.21 169.988 0 59.957-23.405 122.315-70.21 169.083zM582.693 268.038c0.299 59.957 18.604 98.034 52.81 131.908l127.218 129.814 127.218-131.313c34.206-33.575 52.507-70.451 52.81-130.408h-360.055zM17.364 575.323c64.037 210.349 286.453 328.95 496.803 264.913 98.128-29.874 176.292-94.217 225.26-175.725l-56.41-56.654c-5.808 11.4-12.808 23.387-21.156 35.131-40.808 57.423-88.658 82.971-88.658 82.971-41.914 22.43-73.404 6.377-80.466-38.46l-16.72-106.184c-7.062-44.836 24.027-85.977 69.063-91.436l18.268-2.214-10.412-10.458c-57.819-58.173-86.733-135.743-86.733-210.328 0-63.283 20.816-129.52 62.444-183.677-76.853-26.714-162.57-30.192-246.369-4.682-210.352 64.037-328.947 286.462-264.913 496.802zM206.75 705.034c-2.559-2.275-5.097-4.53-7.687-6.762-34.371-29.639-32.856-66.394 7.587-86.956l90.228-45.876c40.435-20.561 89.175-3.718 108.287 37.446l45.285 97.488c19.124 41.164-0.078 74.484-45.386 76.773-26.052 1.299-45.344-0.039-105.755-19.688-52.955-17.222-73.348-35.348-92.559-52.423zM81 556.218c-30.94-101.631 18.258-211.654 18.258-211.654 17.718-41.767 59.458-49.979 91.499-17.867l65.107 63.685c32.063 32.117 30.155 83.954-3.081 114.847l-74.902 68.909c-33.239 30.898-69.165 33.732-88.688 8.994l-8.194-26.915zM304.711 145.793c62.457-19.014 102.925-13.296 102.925-13.296 44.931 6.353 64.809 44.601 44.173 85.008l-40.96 80.2c-20.635 40.407-69.962 55.423-109.611 33.37l-78.7-43.774c-39.65-22.053-44.459-64.889-10.697-95.199 0 0 30.425-27.3 92.871-46.309z" />
<glyph unicode="&#xe948;" glyph-name="icon-services-wheel-rolled" horiz-adv-x="1071" d="M816.026 62.189c0 69.66 56.534 126.199 126.194 126.199s126.199-56.539 126.199-126.199c0-69.66-56.539-126.194-126.199-126.194s-126.194 56.534-126.194 126.194zM942.22-13.526c41.775 0 75.72 33.946 75.72 75.715s-33.946 75.72-75.72 75.72c-41.77 0-75.715-33.95-75.715-75.72s33.946-75.715 75.715-75.715zM20.695 623.616c76.311 250.669 341.36 392.003 592.030 315.692 250.666-76.311 392.001-341.365 315.69-592.027-76.307-250.666-341.364-392.001-592.027-315.695-250.673 76.311-392 341.369-315.692 592.030zM788.731 704.251c-48.631 68.43-105.654 98.876-105.654 98.876-49.948 26.729-87.478 7.599-95.893-45.833l-19.921-126.538c-8.415-53.431 28.63-102.457 82.302-108.963l119.724-14.511c53.672-6.516 82.586 39.951 73.789 78.384 0 0-13.917 61.692-54.346 118.584zM246.382 778.19c-3.049-2.71-6.073-5.398-9.161-8.058-40.96-35.32-39.154-79.12 9.041-103.624l107.523-54.67c48.186-24.502 106.268-4.431 129.044 44.624l53.965 116.175c22.789 49.055-0.088 88.761-54.086 91.489-31.045 1.548-54.035-0.047-126.026-23.463-63.105-20.523-87.407-42.124-110.301-62.472zM96.529 600.849c-36.87-121.114 21.759-252.223 21.759-252.223 21.114-49.771 70.854-59.56 109.037-21.295l77.588 75.897c38.209 38.27 35.935 100.043-3.672 136.858l-89.259 82.118c-39.61 36.821-82.422 40.198-105.688 10.719l-9.764-32.074zM363.121 111.751c74.429-22.654 122.655-15.844 122.655-15.844 53.541 7.573 77.233 53.15 52.638 101.306l-48.812 95.572c-24.589 48.151-83.37 66.048-130.62 39.764l-93.785-52.159c-47.25-26.284-52.981-77.331-12.748-113.45 0 0 36.257-32.531 110.672-55.189zM706.648 154.74c88.283 0 159.851 71.568 159.851 159.851 0 88.278-71.568 159.846-159.851 159.846s-159.846-71.568-159.846-159.846c0-88.283 71.564-159.851 159.846-159.851zM799.188 314.591c0-51.111-41.433-92.544-92.544-92.544s-92.544 41.433-92.544 92.544c0 51.111 41.433 92.544 92.544 92.544s92.544-41.433 92.544-92.544z" />
<glyph unicode="&#xe949;" glyph-name="icon-settings" d="M788.524 64.566v348.223l95.52-99.494v-248.73c0-54.721-42.984-99.494-95.52-99.494h-668.625c-52.535 0-95.518 44.773-95.518 99.494v696.449c0 54.721 42.983 99.493 95.518 99.493h262.675c-12.417-30.843-20.537-64.173-22.924-99.493h-239.75v-696.449h668.625zM884.044 736.141c0-43.776-12.42-84.071-33.431-118.894l149.007-154.711-67.818-70.641-149.007 155.21c-32.953-21.888-72.119-34.822-114.147-34.822-118.443 0-214.436 99.99-214.436 223.859s95.993 223.859 214.914 223.859c118.921 0 214.918-99.99 214.918-223.859zM549.732 736.141c0-68.65 53.487-124.366 119.394-124.366s119.398 55.716 119.398 124.366c0 68.65-53.492 124.366-119.398 124.366s-119.394-55.716-119.394-124.366zM608.134 338.164c0-7.558-0.566-14.833-1.409-21.826l47.114-36.937c4.515-3.36 5.642-9.236 2.823-14.273l-45.144-77.512c-2.818-5.037-8.743-6.992-13.824-5.037l-56.14 22.387c-11.571-8.675-24.264-16.228-38.090-21.826l-8.464-59.324c-0.564-5.593-5.36-9.513-11.003-9.513h-90.282c-5.642 0-10.157 3.92-11.285 9.513l-8.464 59.324c-13.824 5.598-26.238 12.873-38.087 21.826l-56.143-22.387c-5.078-1.677-11.003 0-13.824 5.037l-45.14 77.512c-2.539 4.759-1.411 10.913 2.821 14.273l47.68 36.937c-1.129 6.992-1.693 14.551-1.693 21.826s0.847 14.828 1.975 21.826l-47.68 36.937c-4.514 3.36-5.642 9.236-2.821 14.273l45.141 77.509c2.821 5.037 8.746 6.996 13.824 5.037l56.143-22.384c11.567 8.672 24.263 16.227 38.087 21.824l8.464 59.323c0.846 5.596 5.36 9.514 11.003 9.514h90.282c5.642 0 10.438-3.918 11.285-9.514l8.464-59.323c13.826-5.596 26.236-12.872 38.085-21.824l56.144 22.384c5.081 1.679 11.006 0 13.824-5.037l45.144-77.509c2.536-4.759 1.409-10.913-2.823-14.273l-47.679-36.937c1.126-6.997 1.692-14.273 1.692-21.826zM354.219 338.164c0-46.173 38.087-83.948 84.638-83.948s84.641 37.776 84.641 83.948c0 46.173-38.089 83.948-84.641 83.948s-84.638-37.776-84.638-83.948z" />
<glyph unicode="&#xe94a;" glyph-name="icon-share" d="M819.2 239.104c-38.912 0-73.728-15.36-100.352-39.424l-365.056 212.48c2.56 11.776 4.608 23.552 4.608 35.84s-2.048 24.064-4.608 35.84l360.96 210.432c27.648-25.6 64-41.472 104.448-41.472 84.992 0 153.6 68.608 153.6 153.6s-68.608 153.6-153.6 153.6c-84.992 0-153.6-68.608-153.6-153.6 0-12.288 2.048-24.064 4.608-35.84l-360.96-210.432c-27.648 25.6-64 41.472-104.448 41.472-84.992 0-153.6-68.608-153.6-153.6s68.608-153.6 153.6-153.6c40.448 0 76.8 15.872 104.448 41.472l364.544-212.992c-2.56-10.752-4.096-22.016-4.096-33.28 0-82.432 67.072-149.504 149.504-149.504s149.504 67.072 149.504 149.504c0 82.432-67.072 149.504-149.504 149.504z" />
<glyph unicode="&#xe94b;" glyph-name="icon-shield" horiz-adv-x="838" d="M418.909 960l-418.909-186.182v-279.273c0-258.327 178.735-499.898 418.909-558.545 240.175 58.647 418.909 300.218 418.909 558.545v279.273l-418.909 186.182zM325.818 215.273l-186.182 186.182 65.629 65.629 120.553-120.087 306.735 306.735 65.629-66.095-372.364-372.364z" />
<glyph unicode="&#xe94c;" glyph-name="icon-spikes" d="M874.33 237.178l-181.436 180.705v301.176l-181.434 240.941-181.435-240.941v-301.176l-181.434-180.705v-301.178h725.74v301.178z" />
<glyph unicode="&#xe94d;" d="M595.359 796.275c-17.141-21.889-32.201-45.489-44.914-70.486-21.14 8.306-34.978 11.038-34.978 11.038-49.266 9.774-76.155-16.142-69.497-63.634l15.775-112.472c3.9-27.82 20.642-50.33 43.33-62.528 4.801-42.756 19.616-82.474 42.047-116.753-14.015-24.154-15.657-54.694-1.427-81.448l44.124-84.406c22.522-42.32 63.92-46.859 94.674-10.092 0 0 18.113 22.71 36.733 58.954 16.538-3.174 33.616-4.841 51.086-4.841 13.978 0 27.711 1.064 41.114 3.123-60.626-157.821-213.629-269.83-392.793-269.83-232.321 0-420.633 188.325-420.633 420.634 0 232.317 188.316 420.633 420.633 420.633 62.339 0 121.51-13.56 174.726-37.891zM151.511 602.916c-1.886-3.086-3.757-6.147-5.689-9.2-25.621-40.534-12.78-77.218 34.425-85.558l105.316-18.607c47.197-8.339 91.279 23.682 97.93 71.17l15.774 112.472c6.663 47.492-22.994 75.262-69.497 63.634-26.732-6.703-45.819-13.992-100.835-52.441-48.225-33.703-63.26-58.299-77.424-81.469zM70.2 413.804c0-112.247 83.582-208.31 83.582-208.31 30.76-36.767 75.477-32.228 97.983 10.092l46.211 84.406c22.526 42.328 4.647 94.135-38.453 115.133l-96.912 46.603c-43.104 21.002-80.288 12.813-92.41-18.199v-29.726zM422.609 67.8c68.979 0 108.124 18.227 108.124 18.227 43.458 20.252 51.781 65.024 18.489 99.521l-66.079 68.46c-33.29 34.492-87.768 34.492-121.058 0l-66.078-68.46c-33.29-34.497-24.97-79.269 18.481-99.521 0 0 39.152-18.227 108.12-18.227z" />
<glyph unicode="&#xe94e;" d="M808.078 903.111c0 0 21.049-75.39 21.049-136.554 0-58.605-38.4-106.115-96.996-106.115-58.88 0-103.253 47.51-103.253 106.115l0.853 10.241c-57.458-68.277-91.873-156.753-91.873-252.91 0-125.744 101.829-227.593 227.553-227.593s227.556 101.849 227.556 227.593c0 153.339-73.671 290.179-184.889 379.224zM757.163 381.643c-50.631 0-91.591 39.828-91.591 89.329 0 46.087 29.867 78.519 79.929 88.761 50.347 10.241 102.4 34.423 131.413 73.398 11.093-36.699 16.782-75.39 16.782-114.934 0-75.389-61.156-136.554-136.533-136.554z" />
<glyph unicode="&#xe94f;" glyph-name="icon-summer" d="M268.102 759.408l-83.782 83.697-65.629-65.929 83.316-83.697 66.095 65.928zM139.636 494.758h-139.636v-93.516h139.636v93.516zM558.545 960h-93.091v-137.936h93.091v137.936zM905.312 777.176l-65.632 65.929-83.315-83.697 65.626-65.928 83.322 83.697zM755.898 136.589l83.315-84.16 65.632 65.926-83.782 83.699-65.165-65.466zM884.365 494.758v-93.516h139.635v93.516h-139.635zM512 728.548c-154.065 0-279.273-125.779-279.273-280.548 0-154.771 125.208-280.55 279.273-280.55 154.067 0 279.27 125.779 279.27 280.55 0 154.769-125.203 280.548-279.27 280.548zM465.455-64h93.091v137.939h-93.091v-137.939zM118.691 118.822l65.629-65.926 83.316 84.166-65.629 65.926-83.316-84.166z" />
<glyph unicode="&#xe950;" glyph-name="icon-target" d="M460.542 856.056v103.944c-103.429-10.291-197.595-51.457-273.752-113.721l73.069-73.584c57.118 44.253 125.555 74.099 200.683 83.361zM837.211 846.279c-76.159 62.263-170.325 103.429-273.753 113.721v-103.944c75.127-9.262 143.565-39.108 200.681-83.361l73.072 73.584zM920.056 499.458h103.944c-10.293 103.429-51.458 197.595-113.721 273.752l-73.584-73.069c44.252-57.118 74.1-125.555 83.361-200.683zM187.304 700.141l-73.584 73.069c-62.263-76.157-103.429-170.323-113.721-273.752h103.944c9.262 75.127 39.108 143.565 83.361 200.683zM103.944 396.542h-103.944c10.291-103.428 51.457-197.594 113.721-273.753l73.584 73.584c-44.253 56.604-74.099 125.042-83.361 200.169zM666.374 448c0 85.421-68.953 154.372-154.374 154.372s-154.372-68.951-154.372-154.372c0-85.421 68.951-154.374 154.372-154.374s154.374 68.953 154.374 154.374zM836.695 195.861l73.584-73.584c62.263 76.155 103.428 170.837 113.721 273.749h-103.944c-9.262-74.612-39.109-143.049-83.361-200.165zM563.458 39.944v-103.944c103.428 10.293 197.594 51.458 273.753 113.721l-73.584 73.584c-56.604-44.252-125.042-74.1-200.169-83.361zM186.79 49.721c76.157-62.263 170.838-103.428 273.752-113.721v103.944c-75.127 9.262-143.565 39.109-200.683 83.361l-73.069-73.584z" />
<glyph unicode="&#xe951;" glyph-name="icon-tg" d="M485.18 259.657c-20.323-18.505-39.443-36.23-58.923-53.594-27.511-24.513-54.926-18.047-66.714 16.979-14.171 42.091-27.030 84.651-39.334 127.347-3.444 11.991-9.488 17.603-21.082 21.129-29.534 8.972-58.634 19.315-87.915 29.116-3.6 1.214-7.26 2.311-10.692 3.901-18.276 8.426-32.906 20.841-33.507 42.208-0.614 21.819 13.93 34.388 32.592 42.262 164.803 69.519 329.749 138.772 494.506 208.436 45.436 19.216 70.734-10.499 69.096-39.359-0.951-16.639-5.598-33.098-8.802-49.592-25.8-131.994-51.361-264.025-77.595-395.921-8.26-41.516-52.955-58.407-87.040-33.148-34.865 25.873-68.964 52.834-104.59 80.238zM717.214 657.359c-167.307-70.446-331.532-139.615-499.514-210.349 39.214-13.088 75.081-23.43 109.576-37.264 18.927-7.597 32.412-4.54 48.906 5.91 82.004 51.953 164.743 102.749 247.482 153.546 5.754 3.528 13.507 3.756 20.334 5.538-3.131-6.056-6.017-12.221-9.44-18.096-1.321-2.264-3.803-3.829-5.788-5.695-62.44-58.129-124.396-116.798-187.644-174.040-16.699-15.097-26.837-30.964-28.836-53.526-2.215-24.854-7.043-49.464-11.365-78.395 29.365 26.658 55.323 50.23 81.583 74.060 4.154-3.048 7.657-5.564 11.065-8.177 39.224-30.052 78.331-60.236 117.677-90.107 14.668-11.123 18.71-9.377 22.094 7.924 21.348 108.456 42.754 216.888 64.039 325.343 6.529 33.326 12.8 66.689 19.831 103.327zM509.381 859.767c224.788 0 407.65-182.875 407.65-407.649 0-224.786-182.862-407.662-407.65-407.662-224.786 0-407.649 182.877-407.649 407.662 0 224.774 182.863 407.649 407.649 407.649zM509.381 935.619c-267.034 0-483.501-216.466-483.501-483.501 0-267.047 216.466-483.511 483.501-483.511s483.499 216.464 483.499 483.511c0 267.034-216.464 483.501-483.499 483.501z" />
<glyph unicode="&#xe952;" glyph-name="icon-tg-filled" d="M319.136 403.159c20.042-8.044 34.321-4.808 51.788 6.262 86.837 55.013 174.453 108.804 262.067 162.594 6.093 3.736 14.305 3.978 21.535 5.864-3.318-6.413-6.374-12.941-9.999-19.163-1.403-2.397-4.029-4.054-6.129-6.030-66.12-61.554-131.729-123.681-198.702-184.292-17.683-15.99-28.419-32.794-30.535-56.684-2.346-26.317-7.458-52.378-12.035-83.016 31.096 28.227 58.583 53.192 86.389 78.423 4.399-3.226 8.109-5.888 11.717-8.658 41.539-31.821 82.95-63.785 124.616-95.416 15.529-11.781 19.809-9.933 23.393 8.392 22.605 114.847 45.271 229.668 67.814 344.515 6.912 35.278 13.537 70.594 20.987 109.39-177.167-74.597-351.072-147.843-528.952-222.747 41.55-13.844 79.532-24.796 116.046-39.434zM511.993 960c-282.77 0-511.993-229.223-511.993-511.994 0-282.784 229.223-512.006 511.993-512.006s511.996 229.222 511.996 512.006c0.010 282.771-229.228 511.994-511.996 511.994zM771.482 613.584c-27.32-139.772-54.385-279.586-82.166-419.254-8.75-43.96-56.074-61.85-92.17-35.098-36.936 27.397-73.042 55.956-110.766 84.961-21.521-19.594-41.768-38.364-62.396-56.75-29.132-25.953-58.163-19.108-70.645 17.981-15.006 44.57-28.622 89.641-41.652 134.851-3.646 12.698-10.046 18.637-22.324 22.374-31.274 9.498-62.090 20.449-93.097 30.828-3.812 1.285-7.688 2.447-11.321 4.132-19.354 8.924-34.845 22.067-35.482 44.698-0.65 23.103 14.751 36.413 34.512 44.752 174.515 73.615 349.181 146.95 523.645 220.719 48.118 20.348 74.906-11.118 73.17-41.678-0.993-17.607-5.903-35.036-9.308-52.515z" />
<glyph unicode="&#xe953;" glyph-name="icon-tile" d="M9.767 506.514h292.571v351.086h-292.571v-351.086zM9.767 96.911h292.571v351.089h-292.571v-351.089zM360.852 96.911h292.572v351.089h-292.572v-351.089zM711.939 96.911h292.57v351.089h-292.57v-351.089zM360.852 506.514h292.572v351.086h-292.572v-351.086zM711.939 857.6v-351.086h292.57v351.086h-292.57z" />
<glyph unicode="&#xe954;" glyph-name="icon-time" d="M0 448c0 282.624 228.864 512 511.488 512 283.136 0 512.512-229.376 512.512-512s-229.376-512-512.512-512c-282.624 0-511.488 229.376-511.488 512zM102.4 448c0-226.304 183.296-409.6 409.6-409.6s409.6 183.296 409.6 409.6c0 226.304-183.296 409.6-409.6 409.6s-409.6-183.296-409.6-409.6zM460.8 704h76.8v-268.8l230.4-136.704-38.4-62.976-268.8 161.28v307.2z" />
<glyph unicode="&#xe955;" glyph-name="icon-tires" d="M966.968 443.392c0 46.066-11.18 96.882-11.18 96.882-4.319 19.612 3.831 39.182 18.097 43.5 14.28 4.304 20.224 23.203 13.224 42.009l-30.939 67.954c-9.565 17.602-27.62 25.266-40.108 17.045-12.483-8.23-32.484-1.846-44.437 14.19l-38.372 44.595c-14.057 14.162-17.613 35.11-7.889 46.563 9.719 11.453 4.664 30.627-11.236 42.623l-62.115 40.277c-17.413 9.584-36.687 6.172-42.84-7.588-6.153-13.765-26.377-19.296-44.954-12.298l-56.055 16.342c-19.368 4.233-33.522 19.933-31.465 34.897 2.043 14.95-12.432 28.286-32.2 29.617l-73.593-0.212c-19.753-1.449-34.163-14.87-32.028-29.805 2.14-14.94-11.926-30.721-31.267-35.076l-55.963-16.701c-18.522-7.126-38.775-1.722-45.008 12.001-6.228 13.713-25.527 17.007-42.878 7.314l-61.884-40.655c-15.82-12.095-20.755-31.306-10.973-42.688 9.782-11.397 6.359-32.368-7.619-46.601l-38.091-44.831c-11.847-16.106-31.802-22.614-44.348-14.464-12.536 8.15-30.537 0.387-40.003-17.281l-30.537-68.167c-6.884-18.857-0.814-37.72 13.48-41.929 14.303-4.224 22.541-23.742 18.313-43.364 0 0-10.573-49.061-10.573-94.135 0-0.307 0-0.307 0-0.307 0.009-0.344-12.136-0.656-27.002-0.689-14.862-0.019-25.839-16.449-24.397-36.492l10.559-73.993c4.233-19.628 19.374-32.2 33.654-27.918 14.28 4.268 31.681-7.619 38.668-26.433l24.267-53.807c9.564-17.603 7.145-38.717-5.363-46.913-12.508-8.201-13.001-28.053-1.088-44.116l48.352-56.39c14.029-14.196 33.472-16.449 43.217-5.022 9.741 11.45 30.681 10.943 46.543-1.103l49.125-31.926c17.378-9.635 26.551-28.774 20.369-42.519-6.186-13.745 3.958-30.715 22.522-37.72l70.889-20.992c19.364-4.236 36.914 4.538 38.989 19.493 2.088 14.95 19.894 25.423 39.593 23.259 0 0 6.87-0.768 28.816-0.768 22.263 0 29.757 0.842 29.757 0.842 19.693 2.183 37.53-8.243 39.647-23.198 2.113-14.941 19.675-23.673 39.033-19.395l70.824 21.136c18.558 7.042 28.667 24.036 22.454 37.781-6.209 13.722 2.918 32.875 20.285 42.557l49.054 32.023c15.844 12.074 36.78 12.605 46.55 1.21 9.765-11.408 29.203-9.109 43.203 5.115l48.235 56.474c11.874 16.081 11.343 35.924-1.173 44.106-12.535 8.187-14.997 29.286-5.474 46.918l24.348 54.356c6.931 18.823 24.604 30.641 39.256 26.247 14.666-4.389 30.334 8.034 34.821 27.611l10.715 72.681c1.745 20.019-9.649 36.394-25.335 36.394s-28.5 0.451-28.481 1.010c0.009-0.037 0.009-0.037 0.009 0.475zM509.254 137.37c-166.329 0-301.646 137.29-301.646 306.027 0 168.734 135.317 306.025 301.646 306.025 166.321 0 301.647-137.286 301.647-306.025-0.005-168.741-135.326-306.027-301.647-306.027z" />
<glyph unicode="&#xe956;" glyph-name="icon-tool" d="M963.207 140.132l-403.1 403.103c39.866 101.882 17.715 221.483-66.447 305.647-88.593 88.593-221.484 106.312-327.796 57.586l190.476-190.476-132.89-132.89-194.906 190.476c-53.156-106.312-31.008-239.203 57.586-327.796 84.164-84.164 203.765-106.31 305.647-66.444l403.101-403.1c17.721-17.721 44.296-17.721 62.017 0l101.883 101.883c22.145 17.715 22.145 48.726 4.43 62.011z" />
<glyph unicode="&#xe957;" glyph-name="icon-trash" d="M170.667 49.778c0-62.578 51.2-113.778 113.778-113.778h455.111c62.578 0 113.778 51.2 113.778 113.778v682.667h-682.667v-682.667zM284.444 618.667h455.111v-568.889h-455.111v568.889zM711.111 903.111l-56.889 56.889h-284.444l-56.889-56.889h-199.111v-113.778h796.444v113.778h-199.111z" />
<glyph unicode="&#xe958;" glyph-name="icon-twitter" d="M814.131 671.149c-9.795-28.789-26.957-50.14-50.98-66.445 23.020 2.134 44.774 8.619 65.925 17.466 0.241-0.279 0.466-0.571 0.696-0.866 0.169-0.219 0.338-0.44 0.517-0.656-2.934-3.422-5.827-6.885-8.714-10.349-6.774-8.122-13.553-16.242-20.915-23.817-5.309-5.449-11.172-10.345-17.044-15.247-3.656-3.048-7.306-6.098-10.834-9.284-1.633-1.492-2.98-4.289-2.949-6.464 1.654-90.759-27.008-170.933-84.639-240.693-39.388-47.672-88.822-81.331-147.364-101.202-41.84-14.193-84.977-19.835-129.139-18.212-45.572 1.669-89.185 11.668-130.592 30.643-9.821 4.511-19.289 9.82-28.759 15.13-4.195 2.355-8.39 4.705-12.616 6.989-0.203 0.118-0.365 0.312-0.668 0.681-0.209 0.251-0.484 0.584-0.886 1.029 51.808-4.879 100.155 4.183 145.26 28.6 10.568 5.724 20.507 12.657 30.459 19.594 0.876 0.609 1.752 1.219 2.629 1.833-55.443 5.284-92.883 33.347-113.301 85.181 3.018-0.123 5.951-0.302 8.823-0.471 6.463-0.384 12.618-0.753 18.743-0.522 8.371 0.328 16.685 1.843 24.95 3.348l1.010 0.184c-71.843 17.766-98.881 83.114-95.639 121.662 16.648-8.537 34-13.975 54.284-14.648-26.79 19.434-43.965 43.82-50.844 74.888-6.817 30.861-2.258 60.085 13.374 88.117 66.352-78.038 150.005-120.75 252.128-127.898-0.246 2.479-0.507 4.904-0.763 7.293-0.568 5.238-1.116 10.301-1.403 15.374-1.541 27.349 5.565 52.502 21.289 74.805 22.897 32.529 54.543 50.523 94.341 52.771 34.76 1.927 65.162-9.396 90.542-33.347 3.855-3.646 7.025-4.796 12.36-3.502 22.303 5.491 43.668 13.167 63.734 24.428 1.275 0.732 2.591 1.394 4.383 2.293 0.768 0.386 1.623 0.815 2.601 1.312zM0 448.005c0 282.316 229.679 511.995 511.994 511.995 282.317 0 512.006-229.679 512.006-511.995 0-282.327-229.688-512.005-512.006-512.005-282.315 0-511.994 229.688-511.994 512.005zM82.875 448.005c0-236.621 192.509-429.128 429.119-429.128 236.632 0 429.128 192.507 429.128 429.128 0 236.61-192.497 429.119-429.128 429.119-236.61 0-429.119-192.499-429.119-429.119z" />
<glyph unicode="&#xe959;" glyph-name="icon-twitter-filled" d="M512.005 960c-282.784 0-512.005-229.231-512.005-511.995 0-282.783 229.231-512.005 512.005-512.005 282.772 0 511.995 229.233 511.995 512.005 0.010 282.764-229.222 511.995-511.995 511.995zM832.538 599.214c-9.134-9.39-19.85-17.224-29.588-26.036-1.746-1.577-3.174-4.563-3.144-6.856 1.766-96.319-28.652-181.385-89.81-255.426-41.8-50.586-94.249-86.298-156.37-107.382-44.407-15.068-90.18-21.048-137.035-19.333-48.37 1.777-94.647 12.396-138.59 32.532-15.047 6.897-29.295 15.57-43.911 23.46-0.368 0.21-0.62 0.65-1.651 1.818 54.984-5.181 106.277 4.429 154.152 30.346 12.198 6.625 23.617 14.74 35.11 22.733-58.832 5.617-98.559 35.384-120.231 90.399 10.41-0.44 19.874-1.408 29.254-1.050 9.243 0.358 18.422 2.084 27.55 3.732-76.246 18.852-104.931 88.212-101.482 129.106 17.666-9.054 36.078-14.816 57.602-15.541-28.422 20.62-46.666 46.488-53.964 79.463-7.235 32.734-2.387 63.743 14.206 93.512 70.41-82.807 159.179-128.138 267.547-135.719-0.819 8.412-1.869 16.215-2.299 24.059-1.644 29.022 5.908 55.709 22.574 79.379 24.3 34.511 57.897 53.627 100.116 55.993 36.884 2.050 69.156-9.969 96.087-35.384 4.101-3.87 7.465-5.079 13.123-3.711 23.67 5.825 46.341 13.975 67.63 25.919 1.946 1.104 3.958 2.061 7.404 3.817-10.388-30.547-28.59-53.207-54.098-70.504 24.428 2.271 47.519 9.138 69.944 18.549 0.445-0.537 0.865-1.094 1.306-1.619-10.419-12.134-20.306-24.795-31.432-36.256z" />
<glyph unicode="&#xe95a;" glyph-name="icon-user" d="M512 448c141.44 0 256 114.56 256 256s-114.56 256-256 256c-141.44 0-256-114.56-256-256s114.56-256 256-256zM512 320c-170.88 0-512-85.76-512-256v-128h1024v128c0 170.24-341.12 256-512 256z" />
<glyph unicode="&#xe95b;" glyph-name="icon-view" d="M796.444 533.333v199.111c0 31.289-25.6 56.889-56.889 56.889h-682.667c-31.289 0-56.889-25.6-56.889-56.889v-568.889c0-31.289 25.6-56.889 56.889-56.889h682.667c31.289 0 56.889 25.6 56.889 56.889v199.111l227.556-227.556v625.778l-227.556-227.556z" />
<glyph unicode="&#xe95c;" glyph-name="icon-vk" d="M731.812 378.501c23.649-23.173 46.131-47.59 68.147-72.361 6.287-7.066 10.276-16.814 13.292-26.010 3.666-11.244-1.213-20.741-12.488-20.925l-3.098-0.051c-40.392-0.63-80.968-1.26-121.108 2.227-10.532 0.906-20.833 10.547-30.275 19.384-1.946 1.823-3.855 3.61-5.724 5.279-6.487 5.791-12.175 12.452-17.869 19.128-4.040 4.731-8.084 9.472-12.426 13.906-6.036 6.195-12.82 12.083-20.229 16.451-13.076 7.7-25.39 4.434-30.438-9.672-4.669-13.117-6.856-27.484-7.88-41.462-1.567-21.606-6.871-27.366-28.81-27.689-35.524-0.497-70.808 0.527-104.611 13.425-44.929 17.147-78.007 49.055-106.702 86.231-51.321 66.519-91.060 139.803-124.945 216.4-7.645 17.239-1.761 25.743 17.073 25.847 9.832 0.048 19.664-0.007 29.494-0.062 17.914-0.1 35.823-0.201 53.723 0.321 15.881 0.466 24.22-6.599 31.057-20.387 17.456-35.212 35.875-69.978 55.092-104.268 5.925-10.577 14.886-19.911 23.971-28.149 12.017-10.926 23.226-8.038 27.577 7.202 9.987 34.912 12.401 70.434 2.466 105.822-4.227 15.094-13.073 26.914-29.846 30.27-1.026 0.207-2.041 0.777-2.911 1.368-0.369 0.233-0.64 0.603-1.21 1.38-0.344 0.467-0.795 1.083-1.441 1.904 1.299 0.988 2.554 2.073 3.808 3.158 2.704 2.339 5.402 4.673 8.53 6.010 42.702 18.274 86.419 19.020 130.427 5.646 14.203-4.33 19.338-12.784 19.021-28.406-0.343-15.608-0.886-31.212-1.428-46.816-0.614-17.559-1.224-35.119-1.546-52.687-0.174-9.002 0.901-18.346 3.333-26.986 4.531-16.118 15.903-19.579 27.535-7.706 11.689 11.912 23.291 24.623 31.58 38.93 17.132 29.576 32.722 60.126 47.57 90.925 9.82 20.367 11.31 22.584 34.381 22.584 9.185 0 18.365 0.007 27.551 0.013 22.948 0.017 45.891 0.034 68.844-0.055 19.671-0.062 26.957-8.805 19.384-27.059-7.327-17.694-16.753-34.86-27.597-50.658-11.679-17.010-24.172-33.45-36.664-49.89-6.938-9.132-13.875-18.265-20.675-27.493-22.139-30.034-20.439-39.014 6.067-65.019zM0 448.005c0 282.316 229.679 511.995 511.995 511.995s512.005-229.679 511.995-511.995c0-282.327-229.678-512.005-511.995-512.005-282.316 0-511.995 229.688-511.995 512.005zM82.875 448.005c0-236.621 192.499-429.128 429.119-429.128s429.128 192.507 429.117 429.128c0 236.61-192.507 429.119-429.117 429.119s-429.119-192.499-429.119-429.119z" />
<glyph unicode="&#xe95d;" glyph-name="icon-vk-filled" d="M511.994 960c-282.783 0-511.994-229.223-511.994-511.993 0-282.784 229.223-512.007 511.994-512.007 282.758 0 511.996 229.222 511.996 512.007 0 282.77-229.238 511.993-511.996 511.993zM748.728 407.388c6.487-7.921 13.778-15.15 20.854-22.579 22.405-23.475 45.148-46.602 67.026-70.533 6.615-7.229 11.54-16.333 15.99-25.216 7.557-15.084 2.586-26.685-13.476-32-6.2-2.053-12.995-3.154-19.548-3.328-30.228-0.794-60.493-1.3-90.752-1.521-19.604-0.154-36.234 8.187-50.294 21.028-10.824 9.866-20.424 21.11-30.587 31.729-9.574 10.010-18.514 20.797-28.928 29.86-17.531 15.263-33.736 11.387-41.155-10.706-4.695-13.978-6.298-29.158-7.818-43.95-1.72-16.727-7.854-25.411-24.248-26.148-40.364-1.848-80.385-0.753-118.876 14.572-48.665 19.379-86.913 51.651-118.825 92.385-47.709 60.877-84.606 128.232-118.29 197.488-6.668 13.719-13.081 27.577-19.111 41.614-7 16.281-1.555 25.742 16.129 26.252 33.021 0.905 66.055 1.147 99.089 0.943 14.241-0.076 23.165-8.3 28.558-21.585 18.334-45.172 41.449-87.831 70.352-127.176 5.228-7.101 11.258-13.846 17.964-19.519 13.655-11.601 25.563-8.389 29.911 8.848 3.493 13.872 5.597 28.419 5.775 42.698 0.293 22.987-0.791 46.013-2.639 68.923-1.632 19.966-13.209 32.346-33.175 36.425-1.862 0.37-3.634 1.173-6.821 2.244 4.016 10.493 11.411 16.536 20.527 19.073 11.653 3.251 23.842 6.235 35.839 6.362 28.801 0.331 57.78 0.587 86.364-2.295 24.863-2.473 32.307-12.686 32.333-37.917 0-31.083-1.3-62.141-1.746-93.224-0.154-10.519 0.317-21.062 1.034-31.593 0.266-4.067 1.567-8.21 3.098-12.036 5.75-14.458 15.529-17.568 27.003-7.28 9.421 8.44 18.028 18.13 25.549 28.342 27.095 36.872 48.128 77.16 65.024 119.642 6.451 16.268 10.772 19.099 27.945 19.162 35.814 0.153 71.613 0.306 107.428 0.637 28.8 0.268 36.91-10.238 24.34-36.298-10.557-21.865-23.624-42.723-37.432-62.766-17.162-24.874-36.362-48.346-54.364-72.634-4.92-6.655-9.119-13.947-12.877-21.33-4.695-9.216-3.697-18.611 2.831-26.593z" />
<glyph unicode="&#xe95e;" glyph-name="icon-wallet" d="M970.105 124.632v-53.895c0-59.284-48.505-107.789-107.789-107.789h-754.526c-59.823 0-107.789 48.505-107.789 107.789v754.526c0 59.284 47.966 107.789 107.789 107.789h754.526c59.284 0 107.789-48.505 107.789-107.789v-53.895h-485.053c-59.823 0-107.789-48.505-107.789-107.789v-431.158c0-59.284 47.966-107.789 107.789-107.789h485.053zM485.053 232.421h538.947v431.158h-538.947v-431.158zM700.632 367.158c-44.733 0-80.842 36.109-80.842 80.842s36.109 80.842 80.842 80.842c44.733 0 80.842-36.109 80.842-80.842s-36.109-80.842-80.842-80.842z" />
<glyph unicode="&#xe95f;" glyph-name="icon-wapp" d="M547.369 943.406c-7.547 0.607-14.966 2.604-22.41 3.944-13.579 0-27.156 0-40.734 0-35.777-6.523-72.362-10.202-107.216-19.974-303.141-84.941-450.471-421.154-307.705-701.942 10.923-21.468 12.806-39.936 4.728-62.607-22.768-63.903-43.501-128.527-64.866-192.916-3.135-9.441-5.234-19.226-9.165-33.915 14.361 3.011 24.766 4.347 34.589 7.434 67.129 21.197 134.346 42.097 201.032 64.599 22.376 7.557 41.288 6.385 63.159-3.425 292.396-130.872 618.581 27.709 691.009 335.212 69.166 293.598-140.59 579.698-442.419 603.591zM741.033 114.017c-138.834-95.206-286.656-98.857-435.325-19.456-18.153 9.697-33.45 11.53-52.54 4.792-38.95-13.732-78.62-25.385-117.975-37.888-2.288 2.074-4.589 4.157-6.877 6.231 9.684 29.404 17.092 59.837 29.646 87.962 15.979 35.794 10.075 63.995-8.964 98.76-136.811 249.87 11.833 547.588 281.485 600.798 228.071 45.018 452.67-111.388 484.138-341.067 22.702-165.85-34.289-304.607-173.588-400.131zM735.749 341.386c-11.116 6.154-22.252 12.288-33.48 18.253-58.998 31.365-59.556 31.872-105.784-17.055-16.323-17.28-31.478-18.673-51.722-8.238-56.343 29-101.777 69.606-136.366 122.637-23.008 35.283-23.817 36.282 3.54 67.394 18.647 21.201 25.41 42.414 12.414 69.417-10.252 21.315-17.079 44.247-26.055 66.193-13.438 32.894-47.837 44.335-78.418 25.132-10.467-6.586-19.974-15.98-27.42-25.954-38.419-51.529-39.923-107.596-12.528-163.183 60.289-122.311 144.889-220.778 277.628-268.553 27.648-9.948 56.028-17.848 70.415-22.39 72.238 0.43 121.528 33.567 132.567 79.104 8.1 33.372 4.941 40.719-24.791 57.242z" />
<glyph unicode="&#xe960;" glyph-name="icon-wapp-filled" d="M558.813 956.006c-7.707 0.614-15.279 2.637-22.882 3.994-13.861 0-27.722 0-41.584 0-36.525-6.605-73.876-10.33-109.458-20.224-309.478-86.003-459.887-426.419-314.137-710.718 11.151-21.736 13.074-40.437 4.827-63.386-23.244-64.706-44.41-130.14-66.222-195.331-3.201-9.561-5.343-19.467-9.357-34.342 14.661 3.045 25.283 4.403 35.312 7.529 68.532 21.461 137.154 42.62 205.235 65.407 22.844 7.653 42.152 6.462 64.48-3.471 298.509-132.506 631.514 28.058 705.452 339.407 70.613 297.266-143.527 586.942-451.665 611.134zM776.451 288.536c-11.264-46.102-61.586-79.651-135.335-80.088-14.697 4.581-43.671 12.579-71.885 22.668-135.517 48.371-221.886 148.070-283.435 271.91-27.968 56.282-26.432 113.050 12.79 165.222 7.602 10.099 17.307 19.61 27.993 26.279 31.22 19.443 66.338 7.847 80.057-25.446 9.163-22.221 16.133-45.453 26.6-67.021 13.255-27.341 6.35-48.819-12.674-70.285-27.929-31.501-27.116-32.512-3.614-68.237 35.311-53.697 81.696-94.808 139.218-124.175 20.663-10.547 36.136-9.151 52.801 8.348 47.196 49.535 47.767 49.023 108 17.268 11.474-6.058 22.846-12.25 34.175-18.486 30.354-16.74 33.582-24.188 25.309-57.958z" />
<glyph unicode="&#xe961;" glyph-name="icon-warranty" d="M482.909 960l-418.909-186.182v-279.273c0-258.328 178.735-499.896 418.909-558.545 240.176 58.65 418.909 300.218 418.909 558.545v279.273l-418.909 186.182zM389.818 215.27l-186.182 186.184 65.629 65.629 120.553-120.087 306.735 306.735 65.629-66.095-372.364-372.366z" />
<glyph unicode="&#xe962;" glyph-name="icon-wheels" d="M512 960c-282.779 0-512-229.221-512-512 0-282.768 229.216-512 512-512 282.773 0 512 229.227 512 512s-229.222 512-512 512zM627.433 841.517c0 0 68.44-13.51 140.158-68.874 59.625-46.029 93.384-105.347 93.384-105.347 21.155-36.916 5.911-93.976-51.549-104.118l-128.168-22.648c-57.451-10.151-111.109 28.82-119.217 86.629l-19.2 136.902c-8.104 57.808 24.627 89.353 84.592 77.456zM177.496 667.32c20.007 31.624 34.648 63.877 101.167 110.363 66.966 46.801 90.199 55.673 122.738 63.833 56.603 14.154 92.703-19.648 84.595-77.456l-19.205-136.902c-8.093-57.803-61.75-96.78-119.199-86.629l-128.192 22.648c-57.459 10.152-73.089 54.803-41.903 104.142zM187.185 194.769c0 0-101.737 116.931-101.737 253.561 0 36.18 0 36.18 0 36.18 14.754 37.749 60.016 47.718 112.483 22.153l117.962-56.727c52.462-25.558 74.225-88.618 46.806-140.144l-56.249-102.74c-27.394-51.507-81.824-57.032-119.266-12.283zM646.014 49.357c0 0-47.644-22.188-131.607-22.188-83.949 0-131.606 22.188-131.606 22.188-52.89 24.646-63.016 79.151-22.496 121.135l80.432 83.33c40.521 41.984 106.834 41.984 147.352 0l80.431-83.33c40.527-41.984 30.394-96.489-22.505-121.135zM833.173 194.769c-37.437-44.749-87.827-39.224-115.242 12.283l-53.704 102.74c-27.406 51.53-6.447 114.586 46.006 140.144l112.016 56.727c52.447 25.56 89.451 15.596 104.206-22.153 0 0 0 0 0-36.18 0-136.611-93.282-253.561-93.282-253.561z" />
<glyph unicode="&#xe963;" glyph-name="icon-winter" d="M967.903 496.188h-201.758l156.762 156.13-68.222 68.427-225.461-224.557h-96.766v96.376l225.465 224.557-68.704 67.945-156.761-156.13v200.945h-96.765v-200.945l-156.759 156.13-68.703-67.945 225.463-224.557v-96.376h-96.765l-225.463 224.557-68.219-68.427 156.759-156.13h-201.755v-96.376h201.755l-156.759-156.13 68.219-68.427 225.463 224.557h96.765v-96.376l-225.463-224.557 68.703-67.945 156.759 156.13v-200.945h96.765v200.945l156.761-156.13 68.704 67.945-225.465 224.557v96.376h96.766l225.461-224.557 68.222 68.427-156.762 156.13h201.758v96.376z" />
<glyph unicode="&#xe964;" glyph-name="icon-youtube" d="M749.276 668.774c40.991-4.061 70.554-28.188 78.843-68.466 17.070-80.731 14.054-140.42 11.976-181.6-0.568-11.279-1.070-21.171-1.065-29.722-0.425-4.838-6.712-69.356-11.904-96.312-6.518-33.925-34.816-60.042-67.159-63.785-25.882-3.011-51.871-5.407-77.885-6.441-43.756-1.731-87.567-2.796-131.354-3.005-4.383-0.020-8.765-0.041-13.148-0.061-88.564-0.415-177.125-0.835-265.461 7.875-40.837 4.029-70.113 27.74-78.649 67.83-3.335 15.683-5.231 31.693-7.123 47.667-0.494 4.173-0.988 8.34-1.507 12.503-0.932 7.455-1.418 14.966-1.904 22.477-0.216 3.333-0.431 6.666-0.686 9.999v119.289c0.127 1.329 0.269 2.658 0.411 3.986 0.33 3.091 0.659 6.182 0.812 9.284 1.389 27.774 4.019 55.382 10.297 82.534 7.863 34.041 35.171 60.644 67.647 64.343 26.085 2.963 52.316 5.366 78.525 6.423 43.334 1.73 86.709 2.86 130.083 3.015 6.228 0.022 12.456 0.047 18.684 0.071 86.927 0.346 173.844 0.691 260.567-7.903zM426.111 563.17v-217.001l208.61 108.165c-38.661 20.165-76.933 40.135-115.144 60.071-31.141 16.248-62.239 32.474-93.466 48.765zM0 448.005c0 282.316 229.68 511.995 511.995 511.995 282.307 0 511.995-229.69 512.005-511.995 0-282.327-229.688-512.005-512.005-512.005-282.315 0-511.995 229.688-511.995 512.005zM82.875 448.005c0-236.621 192.51-429.128 429.119-429.128 236.621 0 429.117 192.497 429.128 429.128 0 236.61-192.497 429.119-429.128 429.119-236.61 0-429.119-192.499-429.119-429.119z" />
<glyph unicode="&#xe965;" glyph-name="icon-youtube-filled" d="M446.814 356.009l-21.968-11.387v220.259c38.892-20.289 77.588-40.479 116.41-60.733l95.334-49.74c-63.724-33.028-126.456-65.56-189.776-98.4zM0 448.005c0 282.764 229.221 511.995 512.005 511.995 282.772 0 512.005-229.22 511.995-511.995 0-282.772-229.222-512.005-511.995-512.005s-512.005 229.222-512.005 512.005zM831.877 290.34c5.268 27.361 11.653 92.851 12.083 97.761 0 8.663 0.507 18.678 1.085 30.1 2.109 41.796 5.176 102.397-12.16 184.398-8.402 40.872-38.42 65.362-80.031 69.495-88.028 8.723-176.256 8.372-264.49 8.022-6.319-0.025-12.638-0.051-18.957-0.072-44.027-0.158-88.054-1.305-132.039-3.060-26.604-1.062-53.228-3.512-79.706-6.519-32.954-3.754-60.683-30.757-68.664-65.31-6.372-27.56-9.043-55.583-10.452-83.774-0.146-3.128-0.481-6.25-0.818-9.378-0.146-1.362-0.292-2.726-0.423-4.091v-121.084c0.259-3.379 0.478-6.764 0.697-10.148 0.493-7.629 0.985-15.247 1.932-22.815 0.526-4.219 1.026-8.443 1.526-12.672 1.922-16.23 3.847-32.486 7.233-48.399 8.665-40.694 38.392-64.763 79.832-68.854 89.675-8.837 179.558-8.417 269.453-7.992l13.343 0.061c44.447 0.2 88.914 1.295 133.335 3.052 26.399 1.050 52.782 3.482 79.053 6.538 32.824 3.799 61.553 30.305 68.168 64.742z" />
<glyph unicode="&#xe966;" glyph-name="icon-zoom" d="M682.667 960l130.844-130.844-164.409-163.271 80.782-80.782 163.271 164.409 130.844-130.844v341.333h-341.333zM0 618.667l130.844 130.844 163.271-164.409 80.782 80.782-164.409 163.271 130.844 130.844h-341.333v-341.333zM341.333-64l-130.844 130.844 164.409 163.271-80.782 80.782-163.271-164.409-130.844 130.844v-341.333h341.333zM1024 277.333l-130.844-130.844-163.271 164.409-80.782-80.782 164.409-163.271-130.844-130.844h341.333v341.333z" />
</font>
</defs>
</svg>
