<svg width="20" height="20" viewBox="0 0 20 20" fill="none" xmlns="http://www.w3.org/2000/svg">
<path fill-rule="evenodd" clip-rule="evenodd" d="M10.6908 0.324106C10.5434 0.312254 10.3985 0.273243 10.2531 0.24707C9.98789 0.24707 9.7227 0.24707 9.45751 0.24707C8.75875 0.374477 8.04419 0.446326 7.36345 0.63719C1.44272 2.2962 -1.43481 8.86285 1.35358 14.347C1.56692 14.7663 1.6037 15.127 1.44593 15.5698C1.00124 16.8179 0.596297 18.0801 0.179013 19.3377C0.117779 19.5221 0.07679 19.7132 0 20.0001C0.280493 19.9413 0.483708 19.9152 0.67556 19.8549C1.98667 19.4409 3.2995 19.0327 4.60197 18.5932C5.039 18.4456 5.40838 18.4685 5.83554 18.6601C11.5464 21.2162 17.9172 18.1189 19.3318 12.113C20.6827 6.37866 16.5859 0.790772 10.6908 0.324106ZM14.4733 16.5231C11.7617 18.3826 8.87455 18.4539 5.97085 16.9031C5.61629 16.7137 5.31752 16.6779 4.94468 16.8095C4.18394 17.0777 3.40913 17.3053 2.64049 17.5495C2.5958 17.509 2.55087 17.4683 2.50617 17.4278C2.69531 16.8535 2.84 16.2591 3.08519 15.7098C3.39728 15.0107 3.28197 14.4599 2.91012 13.7809C0.238027 8.90063 3.14123 3.08583 8.40788 2.04657C12.8624 1.16731 17.2491 4.22212 17.8637 8.70804C18.3071 11.9473 17.194 14.6574 14.4733 16.5231Z" fill="currentColor"/>
<path fill-rule="evenodd" clip-rule="evenodd" d="M14.3701 12.0823C14.153 11.9621 13.9355 11.8423 13.7162 11.7258C12.5639 11.1132 12.553 11.1033 11.6501 12.0589C11.3313 12.3964 11.0353 12.4236 10.6399 12.2198C9.53946 11.6534 8.65206 10.8603 7.9765 9.82454C7.52712 9.13541 7.51132 9.1159 8.04564 8.50825C8.40983 8.09417 8.54193 7.67986 8.2881 7.15245C8.08786 6.73615 7.95452 6.28825 7.77922 5.85961C7.51675 5.21715 6.8449 4.99369 6.24761 5.36875C6.04317 5.49739 5.85749 5.68085 5.71206 5.87566C4.96169 6.88208 4.93231 7.97714 5.46737 9.06282C6.64489 11.4517 8.29724 13.3749 10.8898 14.308C11.4298 14.5023 11.9841 14.6566 12.2651 14.7453C13.676 14.7369 14.6387 14.0897 14.8543 13.2003C15.0125 12.5485 14.9508 12.405 14.3701 12.0823Z" fill="currentColor"/>
</svg>