<svg width="20" height="20" viewBox="0 0 20 20" fill="none" xmlns="http://www.w3.org/2000/svg">
<path d="M9.99988 0C4.47677 0 0 4.47701 0 9.99987C0 15.523 4.47701 20 9.99988 20C15.5225 20 19.9998 15.523 19.9998 9.99987C19.9998 4.47701 15.5225 0 9.99988 0ZM14.6236 10.7932C14.7503 10.9479 14.8927 11.0891 15.0309 11.2342C15.4685 11.6927 15.9127 12.1444 16.34 12.6118C16.4692 12.753 16.5654 12.9308 16.6523 13.1043C16.7999 13.3989 16.7028 13.6255 16.3891 13.7293C16.268 13.7694 16.1353 13.7909 16.0073 13.7943C15.4169 13.8098 14.8258 13.8197 14.2348 13.824C13.8519 13.827 13.5271 13.6641 13.2525 13.4133C13.0411 13.2206 12.8536 13.001 12.6551 12.7936C12.4681 12.5981 12.2935 12.3874 12.0901 12.2104C11.7477 11.9123 11.4312 11.988 11.2863 12.4195C11.1946 12.6925 11.1633 12.989 11.1336 13.2779C11.1 13.6046 10.9802 13.7742 10.66 13.7886C9.87164 13.8247 9.08998 13.8033 8.33821 13.504C7.38773 13.1255 6.64069 12.4952 6.01741 11.6996C5.0856 10.5106 4.36495 9.19506 3.70706 7.84242C3.57683 7.57448 3.45157 7.30381 3.33379 7.02965C3.19708 6.71166 3.30341 6.52688 3.6488 6.51692C4.29374 6.49924 4.93893 6.49451 5.58413 6.4985C5.86228 6.49999 6.03658 6.66061 6.14191 6.92008C6.5 7.80234 6.95146 8.63553 7.51597 9.40398C7.61807 9.54268 7.73585 9.67441 7.86683 9.78522C8.13352 10.0118 8.3661 9.94907 8.45102 9.61241C8.51925 9.34148 8.56034 9.05736 8.56382 8.77846C8.56955 8.32949 8.54838 7.87977 8.51228 7.4323C8.4804 7.04234 8.25429 6.80055 7.86434 6.72087C7.82798 6.71364 7.79337 6.69796 7.73111 6.67704C7.80955 6.4721 7.95399 6.35407 8.13203 6.30452C8.35963 6.24102 8.59769 6.18275 8.83201 6.18026C9.39453 6.17379 9.96053 6.1688 10.5188 6.22508C11.0044 6.27339 11.1498 6.47285 11.1503 6.96565C11.1503 7.57274 11.1249 8.17934 11.1162 8.78643C11.1132 8.99187 11.1224 9.1978 11.1364 9.40349C11.1416 9.48292 11.167 9.56385 11.1969 9.63856C11.3092 9.92094 11.5002 9.98169 11.7243 9.78074C11.9083 9.61589 12.0764 9.42664 12.2233 9.22719C12.7525 8.50704 13.1633 7.72016 13.4933 6.89044C13.6193 6.5727 13.7037 6.51742 14.0391 6.51618C14.7386 6.51319 15.4378 6.51021 16.1373 6.50373C16.6998 6.4985 16.8582 6.70369 16.6127 7.21267C16.4065 7.63973 16.1513 8.04711 15.8816 8.43856C15.5464 8.92439 15.1714 9.38282 14.8198 9.85719C14.7237 9.98717 14.6417 10.1296 14.5683 10.2738C14.4766 10.4538 14.4961 10.6373 14.6236 10.7932Z" fill="currentColor"/>
</svg>