<svg width="20" height="20" viewBox="0 0 20 20" fill="none" xmlns="http://www.w3.org/2000/svg">
<path d="M12.3486 4.40631H11.4811C11.4953 4.45213 11.505 4.49969 11.505 4.54974V4.70538C11.505 4.97929 11.2809 5.2034 11.007 5.2034H9.29498C9.02107 5.2034 8.79696 4.97929 8.79696 4.70538V4.54974C8.79696 4.49969 8.80667 4.45188 8.82087 4.40631H7.651C7.23913 4.40631 6.90396 4.74148 6.90396 5.15335V14.5511C6.90396 14.963 7.23913 15.2982 7.651 15.2982H12.3489C12.7607 15.2982 13.0959 14.963 13.0959 14.5511V5.15335C13.0957 4.74123 12.7605 4.40631 12.3486 4.40631ZM9.99994 14.82C9.57014 14.82 9.22177 14.4717 9.22177 14.0419C9.22177 13.6121 9.57014 13.2637 9.99994 13.2637C10.4297 13.2637 10.7781 13.6121 10.7781 14.0419C10.7781 14.4717 10.4295 14.82 9.99994 14.82Z" fill="currentColor"/>
<path d="M9.99988 0C4.47701 0 0 4.47701 0 9.99988C0 15.523 4.47701 20 9.99988 20C15.5227 20 19.9998 15.523 19.9998 9.99988C19.9998 4.47726 15.5225 0 9.99988 0ZM14.0917 14.5511C14.0917 15.512 13.3095 16.2942 12.3486 16.2942H7.65068C6.68974 16.2942 5.90759 15.512 5.90759 14.5511V5.15333C5.90759 4.19239 6.68974 3.41024 7.65068 3.41024H12.3486C13.3095 3.41024 14.0917 4.19239 14.0917 5.15333V14.5511Z" fill="currentColor"/>
</svg>