<svg width="20" height="20" viewBox="0 0 20 20" fill="none" xmlns="http://www.w3.org/2000/svg">
<path d="M15.6703 6.76865C15.4495 5.60624 14.7638 4.8131 13.6342 4.423C13.0517 4.22188 12.4435 4.20145 11.8377 4.19497C10.6834 4.18243 9.52868 4.17555 8.37477 4.19295C7.83819 4.20125 7.2931 4.2237 6.76825 4.32446C5.61212 4.54683 4.82059 5.2291 4.4309 6.35366C4.22735 6.94002 4.20732 7.55269 4.20064 8.16252C4.1881 9.31238 4.18122 10.4626 4.19882 11.6127C4.20692 12.1493 4.23868 12.6915 4.32852 13.2198C4.47845 14.1026 4.94887 14.7978 5.71915 15.2709C6.30713 15.632 6.9635 15.7543 7.64091 15.7735C8.42556 15.7959 9.21061 15.8034 9.99546 15.8174C9.99566 15.8119 9.99566 15.8063 9.99566 15.801C10.5389 15.801 11.0828 15.8176 11.6252 15.7965C12.162 15.7753 12.7071 15.7646 13.232 15.6638C14.3881 15.4416 15.1796 14.7588 15.5693 13.6346C15.7727 13.0478 15.7927 12.4356 15.7996 11.8256C15.8119 10.6755 15.8188 9.52523 15.8014 8.37517C15.7929 7.83858 15.77 7.2939 15.6703 6.76865ZM14.7074 12.559C14.6758 13.215 14.4672 13.8066 13.9276 14.2357C13.5946 14.5004 13.2071 14.6358 12.7931 14.6766C12.3464 14.7207 11.8962 14.7452 11.4476 14.7503C10.4839 14.761 9.52018 14.7665 8.55687 14.7483C8.02433 14.7379 7.48309 14.7254 6.96269 14.6254C5.99453 14.4397 5.40473 13.7647 5.31874 12.7783C5.26067 12.1121 5.24529 11.4403 5.24286 10.7704C5.23922 9.71846 5.25479 8.66592 5.27968 7.61379C5.28616 7.337 5.32966 7.05353 5.40412 6.78686C5.63599 5.95345 6.21001 5.47129 7.0505 5.34099C7.54258 5.26471 8.04679 5.2471 8.54615 5.23941C9.5137 5.22444 10.4817 5.22201 11.4494 5.24022C11.9777 5.25014 12.5145 5.26349 13.0313 5.36122C13.999 5.54453 14.584 6.22194 14.6837 7.20407C14.7282 7.64232 14.7452 8.08401 14.7566 8.52449C14.7687 8.98257 14.7594 9.44126 14.7594 9.89975C14.7673 9.89995 14.775 9.90015 14.7829 9.90015C14.7592 10.7866 14.7505 11.6738 14.7074 12.559Z" fill="currentColor"/>
<path d="M10.0345 7.01024C8.35695 7.00862 7.01669 8.32378 7.01609 9.97259C7.01528 11.6459 8.33368 12.978 9.99079 12.9782C11.6404 12.9789 12.9821 11.6568 12.9839 10.0286C12.9857 8.35656 11.672 7.01226 10.0345 7.01024ZM10.0025 11.9302C8.94189 11.9326 8.066 11.0587 8.06418 9.99667C8.06215 8.93503 8.9336 8.06156 9.99747 8.05812C11.0575 8.05488 11.934 8.92916 11.936 9.99161C11.9378 11.0531 11.0652 11.9283 10.0025 11.9302Z" fill="currentColor"/>
<path d="M13.114 6.19544C12.7207 6.1922 12.4064 6.49469 12.399 6.88378C12.3917 7.26558 12.7075 7.5883 13.0956 7.59518C13.4735 7.60186 13.794 7.28844 13.7987 6.90785C13.8033 6.50804 13.5061 6.19888 13.114 6.19544Z" fill="currentColor"/>
<path d="M9.9999 0C4.48592 0 0 4.48592 0 9.9999C0 15.5139 4.48592 20 9.9999 20C15.5139 20 19.9998 15.5141 19.9998 9.9999C20 4.48592 15.5139 0 9.9999 0ZM9.9999 18.3813C5.37841 18.3813 1.61866 14.6214 1.61866 9.9999C1.61866 5.37841 5.37862 1.61866 9.9999 1.61866C14.6212 1.61866 18.3811 5.37862 18.3811 9.9999C18.3813 14.6216 14.6214 18.3813 9.9999 18.3813Z" fill="currentColor"/>
</svg>
