<svg width="20" height="21" viewBox="0 0 20 21" fill="none" xmlns="http://www.w3.org/2000/svg">
<path fill-rule="evenodd" clip-rule="evenodd" d="M15.6709 18.9596V11.8183L17.6298 13.8587V18.9596C17.6298 20.0818 16.7483 21 15.6709 21H1.95886C0.881489 21 0 20.0818 0 18.9596V4.67695C0 3.55474 0.881489 2.63657 1.95886 2.63657H7.34574C7.09109 3.26909 6.92458 3.95262 6.87561 4.67695H1.95886V18.9596H15.6709ZM17.6298 5.18705C17.6298 6.08482 17.3751 6.91117 16.9442 7.6253L20 10.7981L18.6092 12.2468L15.5534 9.06377C14.8776 9.51266 14.0744 9.77791 13.2125 9.77791C10.7835 9.77791 8.81489 7.72732 8.81489 5.18705C8.81489 2.64677 10.7835 0.596191 13.2223 0.596191C15.6611 0.596191 17.6298 2.64677 17.6298 5.18705ZM10.7738 5.18705C10.7738 6.59491 11.8707 7.73752 13.2223 7.73752C14.5739 7.73752 15.6709 6.59491 15.6709 5.18705C15.6709 3.77919 14.5739 2.63657 13.2223 2.63657C11.8707 2.63657 10.7738 3.77919 10.7738 5.18705ZM11.9715 13.3487C11.9715 13.5036 11.9599 13.6528 11.9426 13.7963L12.9088 14.5538C13.0014 14.6227 13.0245 14.7432 12.9667 14.8465L12.0409 16.4361C11.9831 16.5393 11.8616 16.5795 11.7574 16.5393L10.6061 16.0803C10.3688 16.2582 10.1085 16.4131 9.82496 16.5279L9.65138 17.7444C9.63981 17.8592 9.54145 17.9396 9.42574 17.9396H7.57426C7.45855 17.9396 7.36597 17.8592 7.34283 17.7444L7.16925 16.5279C6.88575 16.4131 6.63117 16.2639 6.38816 16.0803L5.23678 16.5393C5.13264 16.5738 5.01113 16.5393 4.95327 16.4361L4.02754 14.8465C3.97547 14.7489 3.99861 14.6227 4.0854 14.5538L5.06321 13.7963C5.04006 13.6528 5.02849 13.4979 5.02849 13.3487C5.02849 13.1995 5.04585 13.0446 5.06899 12.9011L4.09118 12.1436C3.99861 12.0747 3.97547 11.9542 4.03332 11.8509L4.95906 10.2613C5.01692 10.1581 5.13842 10.1179 5.24257 10.1581L6.39395 10.6171C6.63117 10.4392 6.89153 10.2843 7.17504 10.1695L7.34862 8.95296C7.36597 8.83818 7.45855 8.75784 7.57426 8.75784H9.42574C9.54145 8.75784 9.63981 8.83818 9.65717 8.95296L9.83075 10.1695C10.1143 10.2843 10.3688 10.4335 10.6118 10.6171L11.7632 10.1581C11.8674 10.1236 11.9889 10.1581 12.0467 10.2613L12.9725 11.8509C13.0245 11.9485 13.0014 12.0747 12.9146 12.1436L11.9368 12.9011C11.9599 13.0446 11.9715 13.1938 11.9715 13.3487ZM6.76425 13.3487C6.76425 14.2956 7.54533 15.0703 8.5 15.0703C9.45467 15.0703 10.2358 14.2956 10.2358 13.3487C10.2358 12.4018 9.45467 11.6271 8.5 11.6271C7.54533 11.6271 6.76425 12.4018 6.76425 13.3487Z" fill="currentColor"/>
</svg>
