<svg width="20" height="20" viewBox="0 0 20 20" fill="none" xmlns="http://www.w3.org/2000/svg">
<path d="M14.2932 11.3574C14.7551 11.81 15.1942 12.2869 15.6242 12.7707C15.747 12.9087 15.8249 13.0991 15.8838 13.2787C15.9554 13.4983 15.8601 13.6838 15.6399 13.6874L15.5794 13.6884C14.7905 13.7007 13.998 13.713 13.214 13.6449C13.0083 13.6272 12.8071 13.4389 12.6227 13.2663C12.5847 13.2307 12.5474 13.1958 12.5109 13.1632C12.3842 13.0501 12.2731 12.92 12.1619 12.7896C12.083 12.6972 12.004 12.6046 11.9192 12.518C11.8013 12.397 11.6688 12.282 11.5241 12.1967C11.2687 12.0463 11.0282 12.1101 10.9296 12.3856C10.8384 12.6418 10.7957 12.9224 10.7757 13.1954C10.7451 13.6174 10.6415 13.7299 10.213 13.7362C9.51918 13.7459 8.83003 13.7259 8.16982 13.474C7.2923 13.1391 6.64625 12.5159 6.08579 11.7898C5.08343 10.4906 4.30728 9.05927 3.64545 7.56323C3.49613 7.22654 3.61105 7.06043 3.9789 7.05841C4.17094 7.05747 4.36297 7.05855 4.55496 7.05962C4.90485 7.06158 5.25463 7.06354 5.60424 7.05335C5.91441 7.04424 6.07729 7.18223 6.21083 7.45154C6.55176 8.13927 6.91151 8.8183 7.28684 9.48802C7.40257 9.6946 7.57759 9.8769 7.75503 10.0378C7.98974 10.2512 8.20866 10.1948 8.29364 9.89714C8.48869 9.21527 8.53584 8.52148 8.3418 7.83031C8.25925 7.53551 8.08646 7.30465 7.75888 7.23909C7.73885 7.23504 7.71902 7.22391 7.70202 7.21238C7.69482 7.20783 7.68952 7.20061 7.67838 7.18543C7.67167 7.1763 7.66285 7.16428 7.65023 7.14824C7.67561 7.12895 7.70011 7.10775 7.7246 7.08657C7.77741 7.04089 7.8301 6.99531 7.8912 6.96918C8.72522 6.61226 9.57907 6.59769 10.4386 6.8589C10.716 6.94348 10.8163 7.10858 10.8101 7.4137C10.8034 7.71855 10.7928 8.0233 10.7822 8.32807C10.7702 8.67101 10.7583 9.01398 10.752 9.35711C10.7486 9.53294 10.7696 9.71544 10.8171 9.88419C10.9056 10.199 11.1277 10.2666 11.3549 10.0347C11.5832 9.80204 11.8098 9.55378 11.9717 9.27435C12.3063 8.69669 12.6108 8.10002 12.9008 7.49848C13.0926 7.10069 13.1217 7.05739 13.5723 7.05739C13.7517 7.05739 13.931 7.05726 14.1104 7.05713C14.5586 7.0568 15.0067 7.05647 15.455 7.0582C15.8392 7.05942 15.9815 7.23018 15.8336 7.5867C15.6905 7.93228 15.5064 8.26755 15.2946 8.57611C15.0665 8.90833 14.8225 9.22943 14.5785 9.55053C14.443 9.72889 14.3075 9.90726 14.1747 10.0875C13.7423 10.6741 13.7755 10.8495 14.2932 11.3574Z" fill="currentColor"/>
<path fill-rule="evenodd" clip-rule="evenodd" d="M0 9.9999C0 4.48592 4.48592 0 9.9999 0C15.5139 0 20 4.48592 19.9998 9.9999C19.9998 15.5141 15.5139 20 9.9999 20C4.48592 20 0 15.5139 0 9.9999ZM1.61866 9.9999C1.61866 14.6214 5.37841 18.3813 9.9999 18.3813C14.6214 18.3813 18.3813 14.6214 18.3811 9.9999C18.3811 5.37861 14.6212 1.61866 9.9999 1.61866C5.37862 1.61866 1.61866 5.37841 1.61866 9.9999Z" fill="currentColor"/>
</svg>
