<svg width="19" height="19" viewBox="0 0 19 19" fill="none" xmlns="http://www.w3.org/2000/svg">
<path fill-rule="evenodd" clip-rule="evenodd" d="M10.3686 0.0740991C10.2256 0.0626991 10.0851 0.025175 9.94403 0C9.68684 0 9.42965 0 9.17246 0C8.49475 0.12255 7.80172 0.191663 7.1415 0.37525C1.39923 1.97101 -1.39156 8.28732 1.31278 13.5624C1.51968 13.9657 1.55536 14.3127 1.40234 14.7385C0.971055 15.9391 0.578324 17.1532 0.173618 18.3628C0.114229 18.5402 0.0744754 18.724 0 19C0.272039 18.9435 0.469125 18.9183 0.655194 18.8603C1.92678 18.4621 3.20005 18.0695 4.46326 17.6467C4.88712 17.5047 5.24537 17.5268 5.65966 17.7111C11.1984 20.1697 17.3772 17.1905 18.7491 11.4135C20.0593 5.89783 16.086 0.522974 10.3686 0.0740991ZM14.4068 12.4588C14.1978 13.3142 13.2641 13.9367 11.8957 13.9448C11.623 13.8598 11.0854 13.7114 10.5619 13.5242C8.04742 12.6267 6.44488 10.7768 5.30285 8.47899C4.78391 7.4347 4.81241 6.38139 5.54016 5.41334C5.68121 5.22595 5.86129 5.04949 6.05957 4.92575C6.63885 4.56499 7.29045 4.78016 7.54501 5.3979C7.71503 5.8102 7.84435 6.24126 8.03856 6.64145C8.2845 7.14875 8.15638 7.54727 7.8034 7.94556C7.28518 8.53005 7.30027 8.54881 7.73635 9.21167C8.39154 10.208 9.2522 10.9708 10.3195 11.5157C10.7029 11.7114 10.99 11.6855 11.2992 11.3608C12.1749 10.4417 12.1855 10.4512 13.3031 11.0404C13.516 11.1528 13.727 11.2677 13.9372 11.3834C14.5004 11.694 14.5603 11.8322 14.4068 12.4588Z" fill="currentColor"/>
</svg>