<svg width="17" height="12" viewBox="0 0 17 12" fill="none" xmlns="http://www.w3.org/2000/svg">
<path d="M14.0649 3H11.8442V0H1.48052C0.666234 0 0 0.675 0 1.5V9.75H1.48052C1.48052 10.995 2.47247 12 3.7013 12C4.93013 12 5.92208 10.995 5.92208 9.75H10.3636C10.3636 10.995 11.3556 12 12.5844 12C13.8132 12 14.8052 10.995 14.8052 9.75H16.2857V6L14.0649 3ZM3.7013 10.875C3.08688 10.875 2.59091 10.3725 2.59091 9.75C2.59091 9.1275 3.08688 8.625 3.7013 8.625C4.31571 8.625 4.81169 9.1275 4.81169 9.75C4.81169 10.3725 4.31571 10.875 3.7013 10.875ZM13.6948 4.125L15.1457 6H11.8442V4.125H13.6948ZM12.5844 10.875C11.97 10.875 11.474 10.3725 11.474 9.75C11.474 9.1275 11.97 8.625 12.5844 8.625C13.1988 8.625 13.6948 9.1275 13.6948 9.75C13.6948 10.3725 13.1988 10.875 12.5844 10.875Z" fill="currentColor"/>
</svg>