<svg width="22" height="22" viewBox="0 0 22 22" fill="none" xmlns="http://www.w3.org/2000/svg">
<path d="M20.7747 11.099C20.7747 10.1093 20.5345 9.01755 20.5345 9.01755C20.4417 8.5962 20.6168 8.17575 20.9233 8.08298C21.2301 7.99052 21.3578 7.58447 21.2074 7.18044L20.5427 5.72049C20.3372 5.34232 19.9493 5.17767 19.681 5.35428C19.4128 5.5311 18.9831 5.39393 18.7263 5.04942L17.9019 4.09132C17.5999 3.78706 17.5235 3.33701 17.7324 3.09095C17.9412 2.84488 17.8326 2.43295 17.491 2.17523L16.1565 1.3099C15.7824 1.10399 15.3683 1.17729 15.2361 1.47293C15.1039 1.76867 14.6694 1.8875 14.2703 1.73714L13.066 1.38604C12.6499 1.2951 12.3458 0.957792 12.39 0.636297C12.4339 0.315107 12.1229 0.0285908 11.6982 0L10.1171 0.00456217C9.69272 0.0356876 9.38312 0.324028 9.42899 0.644914C9.47496 0.965901 9.17276 1.30494 8.75723 1.39851L7.55491 1.75732C7.15697 1.91041 6.72186 1.79432 6.58794 1.49949C6.45413 1.20487 6.0395 1.1341 5.66674 1.34235L4.33721 2.21579C3.99733 2.47564 3.8913 2.88838 4.10146 3.13292C4.31163 3.37777 4.23807 3.82833 3.93777 4.13411L3.1194 5.09727C2.86487 5.4433 2.43615 5.58311 2.16662 5.40802C1.8973 5.23293 1.51055 5.3997 1.30719 5.77929L0.651113 7.24381C0.503209 7.64895 0.633624 8.05419 0.940723 8.14462C1.24802 8.23536 1.42501 8.6547 1.33417 9.07626C1.33417 9.07626 1.10702 10.1303 1.10702 11.0987C1.10702 11.1053 1.10702 11.1053 1.10702 11.1053C1.10722 11.1127 0.846286 11.1194 0.526894 11.1201C0.207602 11.1205 -0.0282451 11.4735 0.00273466 11.9041L0.229587 13.4938C0.320528 13.9155 0.645816 14.1856 0.952616 14.0936C1.25942 14.0019 1.63327 14.2573 1.78337 14.6615L2.30473 15.8175C2.5102 16.1957 2.45823 16.6493 2.18951 16.8254C1.92078 17.0016 1.91019 17.4281 2.16613 17.7732L3.20495 18.9847C3.50635 19.2897 3.92408 19.3381 4.13344 19.0926C4.34271 18.8466 4.79261 18.8575 5.13339 19.1163L6.1888 19.8022C6.56216 20.0092 6.75923 20.4204 6.62642 20.7157C6.49351 21.011 6.71146 21.3756 7.1103 21.5261L8.63331 21.9771C9.04934 22.0681 9.42639 21.8796 9.47096 21.5583C9.51583 21.2371 9.89838 21.0121 10.3216 21.0586C10.3216 21.0586 10.4692 21.0751 10.9407 21.0751C11.419 21.0751 11.58 21.057 11.58 21.057C12.0031 21.0101 12.3863 21.2341 12.4318 21.5554C12.4772 21.8764 12.8545 22.064 13.2704 21.9721L14.792 21.518C15.1907 21.3667 15.4079 21.0016 15.2744 20.7063C15.141 20.4115 15.3371 20 15.7102 19.792L16.7641 19.104C17.1045 18.8446 17.5543 18.8332 17.7642 19.078C17.974 19.3231 18.3916 19.2737 18.6924 18.9681L19.7287 17.7548C19.9838 17.4093 19.9724 16.983 19.7035 16.8072C19.4342 16.6313 19.3813 16.178 19.5859 15.7992L20.109 14.6314C20.2579 14.227 20.6376 13.9731 20.9524 14.0675C21.2675 14.1618 21.6041 13.8949 21.7005 13.4743L21.9307 11.9128C21.9682 11.4827 21.7234 11.1309 21.3864 11.1309C21.0494 11.1309 20.7741 11.1212 20.7745 11.1092C20.7747 11.11 20.7747 11.11 20.7747 11.099ZM10.941 17.6737C7.36753 17.6737 4.46033 14.7241 4.46033 11.0989C4.46033 7.47375 7.36753 4.52414 10.941 4.52414C14.5143 4.52414 17.4217 7.47365 17.4217 11.0989C17.4216 14.7242 14.5143 17.6737 10.941 17.6737Z" fill="currentColor"/>
</svg>