<svg width="21" height="20" viewBox="0 0 21 20" fill="none" xmlns="http://www.w3.org/2000/svg">
<path d="M10.1639 0C4.64083 0 0.164062 4.47701 0.164062 9.99988C0.164062 15.523 4.64108 20 10.1639 20C15.6866 20 20.1638 15.523 20.1638 9.99988C20.1641 4.47701 15.6866 0 10.1639 0ZM13.2308 5.39886C13.2335 5.59981 13.1531 5.66978 12.9576 5.66978C12.4596 5.66978 11.9613 5.67576 11.4633 5.69518C11.2133 5.70514 10.917 5.98578 10.9087 6.22932C10.8903 6.79632 10.8933 7.36432 10.8876 7.93207C10.8856 8.09841 11.0073 8.08372 11.1134 8.08372C11.6505 8.08521 12.1877 8.08372 12.725 8.08347C12.786 8.08322 12.8478 8.08322 12.9091 8.08446C13.1944 8.09044 13.2405 8.15867 13.1797 8.43532C13.1414 8.61287 13.1284 8.79614 13.1018 8.97643C13.0234 9.49637 12.9514 10.0173 12.8558 10.534C12.8441 10.5973 12.7056 10.6777 12.6237 10.6799C12.1409 10.6936 11.6565 10.7008 11.1742 10.6794C10.9294 10.6692 10.8833 10.7541 10.8841 10.98C10.8911 12.8598 10.8858 14.7396 10.8841 16.6194C10.0245 16.6194 9.16465 16.6194 8.30531 16.6194C8.30332 14.7319 8.29709 12.8444 8.30431 10.9568C8.3053 10.7297 8.24156 10.6725 8.02093 10.6799C7.52241 10.6971 7.02314 10.6809 6.52411 10.6876C6.31893 10.6906 6.23575 10.61 6.237 10.4018C6.24322 9.7267 6.24198 9.05114 6.23501 8.37581C6.23302 8.16066 6.31619 8.07675 6.53632 8.08098C7.05028 8.09194 7.56475 8.07849 8.07821 8.08696C8.24829 8.08994 8.30656 8.03641 8.30382 7.86309C8.29411 7.28787 8.30058 6.7124 8.29833 6.13643C8.29435 4.98076 8.86036 4.15852 9.835 3.61293C10.1811 3.41895 10.5771 3.31487 10.9991 3.32906C11.6506 3.35023 12.3032 3.34002 12.9551 3.32757C13.1663 3.32408 13.2358 3.38857 13.2308 3.60372C13.2181 4.2026 13.2228 4.80123 13.2308 5.39886Z" fill="currentColor"/>
</svg>