<svg width="20" height="20" viewBox="0 0 20 20" fill="none" xmlns="http://www.w3.org/2000/svg">
<path d="M15.901 5.64163C15.7097 6.20391 15.3745 6.62092 14.9053 6.93939C15.3549 6.89771 15.7798 6.77105 16.1929 6.59826C16.1976 6.60371 16.202 6.60942 16.2065 6.61518C16.2098 6.61946 16.2131 6.62377 16.2166 6.628C16.1593 6.69483 16.1028 6.76248 16.0464 6.83012C15.9141 6.98875 15.7817 7.14734 15.6379 7.29529C15.5342 7.40171 15.4197 7.49735 15.305 7.59309C15.2336 7.65263 15.1623 7.7122 15.0934 7.77442C15.0615 7.80356 15.0352 7.85818 15.0358 7.90067C15.0681 9.67331 14.5083 11.2392 13.3827 12.6017C12.6134 13.5328 11.6479 14.1902 10.5045 14.5783C9.68731 14.8555 8.84479 14.9657 7.98225 14.934C7.09218 14.9014 6.24036 14.7061 5.43163 14.3355C5.23981 14.2474 5.05489 14.1437 4.86993 14.04C4.788 13.994 4.70606 13.9481 4.62352 13.9035C4.61956 13.9012 4.61639 13.8974 4.61047 13.8902C4.60639 13.8853 4.60101 13.8788 4.59317 13.8701C5.60504 13.9654 6.54932 13.7884 7.43028 13.3115C7.63669 13.1997 7.83081 13.0643 8.02519 12.9288C8.0423 12.9169 8.05941 12.905 8.07653 12.893C6.99365 12.7898 6.26241 12.2417 5.86362 11.2293C5.92257 11.2317 5.97986 11.2352 6.03595 11.2385C6.16219 11.246 6.2824 11.2532 6.40203 11.2487C6.56553 11.2423 6.7279 11.2127 6.88934 11.1833L6.90907 11.1797C5.50589 10.8327 4.9778 9.55637 5.04113 8.80348C5.36628 8.97021 5.70519 9.07643 6.10136 9.08958C5.57812 8.71001 5.24266 8.23372 5.10831 7.62692C4.97517 7.02417 5.0642 6.45339 5.36952 5.90588C6.66546 7.43005 8.2993 8.26427 10.2939 8.40388C10.2891 8.35546 10.284 8.30809 10.279 8.26144C10.2679 8.15914 10.2572 8.06025 10.2516 7.96117C10.2215 7.42701 10.3603 6.93575 10.6674 6.50013C11.1146 5.8648 11.7327 5.51335 12.51 5.46944C13.1889 5.43181 13.7827 5.65296 14.2784 6.12075C14.3537 6.19197 14.4156 6.21443 14.5198 6.18914C14.9554 6.0819 15.3727 5.93198 15.7646 5.71204C15.7895 5.69774 15.8152 5.68482 15.8502 5.66726C15.8652 5.65973 15.8819 5.65135 15.901 5.64163Z" fill="currentColor"/>
<path fill-rule="evenodd" clip-rule="evenodd" d="M0 9.9999C0 4.48592 4.48592 0 9.99989 0C15.5139 0 20 4.48592 20 9.9999C20 15.5141 15.5139 20 9.99989 20C4.48592 20 0 15.5139 0 9.9999ZM1.61866 9.9999C1.61866 14.6214 5.37861 18.3813 9.99989 18.3813C14.6216 18.3813 18.3813 14.6214 18.3813 9.9999C18.3813 5.37862 14.6216 1.61866 9.99989 1.61866C5.37861 1.61866 1.61866 5.37841 1.61866 9.9999Z" fill="currentColor"/>
</svg>
