<svg width="18" height="16" viewBox="0 0 18 16" fill="none" xmlns="http://www.w3.org/2000/svg">
<path fill-rule="evenodd" clip-rule="evenodd" d="M10.4653 1.87797C9.52986 1.45027 8.48974 1.21191 7.39394 1.21191C3.31024 1.21191 0 4.52215 0 8.60585C0 12.6894 3.31017 15.9998 7.39394 15.9998C10.5433 15.9998 13.2328 14.0309 14.2985 11.2567C14.0629 11.2929 13.8215 11.3116 13.5758 11.3116C13.2687 11.3116 12.9685 11.2823 12.6778 11.2265C12.3505 11.8636 12.0321 12.2628 12.0321 12.2628C11.4915 12.9091 10.7638 12.8293 10.3679 12.0854L9.59229 10.6017C9.34216 10.1314 9.37102 9.59457 9.61738 9.16999C9.2231 8.56743 8.96267 7.86926 8.87828 7.11769C8.47947 6.90327 8.18518 6.50759 8.11662 6.01857L7.83933 4.04153C7.72229 3.20671 8.19496 2.75116 9.06096 2.92297C9.06096 2.92297 9.3042 2.97098 9.6758 3.11699C9.89926 2.67758 10.164 2.26274 10.4653 1.87797ZM2.66328 5.27686C2.63012 5.33111 2.59724 5.38491 2.56328 5.43858C2.11291 6.1511 2.33863 6.79593 3.16841 6.94253L5.01966 7.2696C5.8493 7.41619 6.62418 6.85332 6.74109 6.01857L7.01836 4.04153C7.13548 3.20671 6.61416 2.71856 5.79674 2.92297C5.32684 3.0408 4.99132 3.16893 4.02425 3.84479C3.17655 4.43722 2.91226 4.86957 2.66328 5.27686ZM1.23398 8.6011C1.23398 10.5742 2.70319 12.2628 2.70319 12.2628C3.2439 12.9091 4.02993 12.8293 4.42554 12.0854L5.23785 10.6017C5.63381 9.85766 5.31953 8.94699 4.56191 8.57787L2.85838 7.75867C2.10069 7.38949 1.44706 7.53345 1.23398 8.07857V8.6011ZM7.42867 14.6832C8.6412 14.6832 9.32929 14.3628 9.32929 14.3628C10.0932 14.0068 10.2395 13.2198 9.6543 12.6134L8.49276 11.41C7.90759 10.8037 6.94997 10.8037 6.36479 11.41L5.20326 12.6134C4.61809 13.2198 4.76433 14.0068 5.52813 14.3628C5.52813 14.3628 6.21635 14.6832 7.42867 14.6832Z" fill="#008BD1"/>
<path d="M14.2045 0C14.2045 0 14.5745 1.32521 14.5745 2.40037C14.5745 3.43054 13.8995 4.26567 12.8695 4.26567C11.8345 4.26567 11.0545 3.43054 11.0545 2.40037L11.0695 2.22035C10.0595 3.42053 9.45454 4.97578 9.45454 6.66604C9.45454 8.87639 11.2445 10.6667 13.4545 10.6667C15.6645 10.6667 17.4545 8.87639 17.4545 6.66604C17.4545 3.97062 16.1595 1.56524 14.2045 0ZM13.3095 9.16643C12.4195 9.16643 11.6995 8.46632 11.6995 7.59619C11.6995 6.78606 12.2245 6.21597 13.1045 6.03594C13.9895 5.85592 14.9045 5.43085 15.4145 4.74574C15.6095 5.39084 15.7095 6.07095 15.7095 6.76606C15.7095 8.09126 14.6345 9.16643 13.3095 9.16643Z" fill="#F3CA2C"/>
</svg>