<svg width="20" height="23" viewBox="0 0 20 23" fill="none" xmlns="http://www.w3.org/2000/svg">
<path fill-rule="evenodd" clip-rule="evenodd" d="M19.9222 15.2329C19.459 12.1718 17.0872 9.69211 14.2308 9.60242C13.4471 9.57751 12.6968 9.72646 11.8427 9.80198C11.3408 8.95391 10.8013 8.00985 10.2221 7.03197C10.5436 6.81012 10.8451 6.61973 11.1247 6.41047C11.2149 6.34307 11.3413 6.22742 11.3432 6.13197C11.3582 5.09928 11.3551 4.06633 11.3551 2.97385C10.4199 3.42726 9.53358 3.85758 8.62381 4.29893C8.53668 4.15548 8.46312 4.03617 8.39196 3.91554C7.6775 2.71004 6.95966 1.50715 6.25391 0.29561C6.13532 0.0921134 6.00657 0.0147563 5.78294 0.0168542C4.43583 0.0278682 3.08581 0.0711295 1.74137 0.00216098C1.05111 -0.0340278 0.690981 0.390024 0.233313 0.845006C1.52548 1.30287 2.76997 1.73189 4.00478 2.19264C4.21437 2.27105 4.43244 2.44754 4.55708 2.64527C5.05517 3.4325 5.51864 4.24544 5.99398 5.04972C6.07021 5.17927 6.14137 5.31222 6.22535 5.4617C6.08086 5.54063 5.9751 5.60251 5.86595 5.6581C4.4593 6.37191 3.04854 7.0776 1.6477 7.80504C1.39648 7.93564 1.16971 7.93118 0.933247 7.75941C0.639671 7.54569 0.484049 7.33512 0 7.1227V17.9909C1.45215 17.9877 2.93624 17.988 4.37943 17.9964C4.64832 17.998 4.7795 17.9109 4.85041 17.6259C5.37173 15.5272 5.92331 13.434 6.45891 11.34C6.4911 11.2134 6.52208 11.0681 6.59614 10.9737C7.13367 10.2874 7.68597 9.61187 8.26417 8.89124C8.77242 9.74797 9.24679 10.5465 9.71196 11.33C9.68703 11.3838 9.68122 11.4111 9.66597 11.4294C9.6258 11.4795 9.58272 11.5259 9.53988 11.5742C8.22593 13.0543 7.63926 14.8178 7.78302 16.8656C7.98971 19.8124 10.074 22.3299 12.7622 22.8811C15.5005 23.4433 18.1518 21.9727 19.3198 19.2966C19.633 18.5773 20.209 17.1276 19.9222 15.2329ZM15.8475 19.3936C14.3862 20.4218 12.4139 20.1121 11.334 18.6848C10.2679 17.276 10.2379 15.1849 11.2902 13.9952C11.5898 14.4992 11.8866 14.9959 12.1828 15.4939C12.4802 15.9937 12.7774 16.4946 13.0993 17.0363C13.8206 16.5355 14.5256 16.0459 15.2703 15.5285C14.696 14.5569 14.1325 13.6029 13.5638 12.6399C14.7352 12.3323 16.4006 13.1403 17.0903 14.753C17.7719 16.3446 17.2297 18.4207 15.8475 19.3936Z" fill="currentColor"/>
</svg>
