<svg width="18" height="16" viewBox="0 0 18 16" fill="none" xmlns="http://www.w3.org/2000/svg">
<path fill-rule="evenodd" clip-rule="evenodd" d="M7.98184 7.39032C7.79252 7.18872 7.66139 6.92759 7.6196 6.62951L7.3593 4.77354C7.24942 3.98983 7.69314 3.56218 8.50611 3.72346C8.50611 3.72346 8.82341 3.7861 9.28133 3.9882L10.2935 2.97885C9.29969 2.42973 8.15695 2.11719 6.94118 2.11719C3.10754 2.11719 0 5.22473 0 9.05836C0 12.8919 3.10747 15.9995 6.94118 15.9995C9.88951 15.9995 12.4084 14.1614 13.4146 11.5686C13.2594 11.6115 13.0998 11.6332 12.9412 11.6332C12.61 11.6332 12.2748 11.5388 11.9836 11.3535C11.6499 12.0468 11.2953 12.4914 11.2953 12.4914C10.7878 13.0981 10.1047 13.0232 9.73301 12.3249L9.00492 10.932C8.63714 10.2405 8.91186 9.39578 9.60727 9.0427L8.17366 7.61301C8.10246 7.5429 8.03853 7.46837 7.98184 7.39032ZM2.5002 5.93322C2.46907 5.98414 2.4382 6.03465 2.40632 6.08504C1.98353 6.75393 2.19542 7.35927 2.97439 7.49689L4.71229 7.80393C5.49112 7.94155 6.21855 7.41315 6.3283 6.62951L6.5886 4.77354C6.69855 3.98983 6.20915 3.53157 5.44178 3.72346C5.00066 3.83408 4.68568 3.95436 3.77783 4.58885C2.98204 5.14499 2.73393 5.55087 2.5002 5.93322ZM1.15842 9.0539C1.15842 10.9061 2.53767 12.4914 2.53767 12.4914C3.04527 13.0981 3.78316 13.0232 4.15454 12.3249L4.91711 10.932C5.28883 10.2335 4.99379 9.37861 4.28256 9.03209L2.68335 8.26306C1.97206 7.91648 1.35845 8.05163 1.15842 8.56337V9.0539ZM6.97378 14.7636C8.11206 14.7636 8.75802 14.4627 8.75802 14.4627C9.47518 14.1286 9.61253 13.3897 9.06312 12.8205L7.97271 11.6908C7.42337 11.1216 6.52439 11.1216 5.97505 11.6908L4.88464 12.8205C4.3353 13.3897 4.47259 14.1286 5.18962 14.4627C5.18962 14.4627 5.8357 14.7636 6.97378 14.7636Z" fill="#008BD1"/>
<path d="M8.7531 5.6919L14.4606 0L15.3608 0.897716L13.8414 2.41301L17.1293 5.6919C17.5059 6.06754 17.5059 6.67239 17.1293 7.04166L13.6179 10.5434C13.4328 10.728 13.1838 10.8235 12.9412 10.8235C12.6986 10.8235 12.4496 10.728 12.2645 10.5434L8.7531 7.04166C8.37643 6.67239 8.37643 6.06754 8.7531 5.6919ZM15.9993 6.36678L12.9412 3.31709L9.88312 6.36678H15.9993Z" fill="#F3CA2C"/>
</svg>