<svg width="23" height="22" viewBox="0 0 23 22" fill="none" xmlns="http://www.w3.org/2000/svg">
<path d="M17.5318 19.2889C17.5318 17.7923 18.7464 16.5776 20.243 16.5776C21.7396 16.5776 22.9543 17.7923 22.9543 19.2889C22.9543 20.7855 21.7396 22.0001 20.243 22.0001C18.7464 22.0001 17.5318 20.7855 17.5318 19.2889ZM20.243 20.9156C21.1405 20.9156 21.8698 20.1863 21.8698 19.2889C21.8698 18.3915 21.1405 17.6621 20.243 17.6621C19.3456 17.6621 18.6163 18.3915 18.6163 19.2889C18.6163 20.1863 19.3456 20.9156 20.243 20.9156Z" fill="currentColor"/>
<path fill-rule="evenodd" clip-rule="evenodd" d="M0.444615 7.22701C2.08411 1.84155 7.77852 -1.19492 13.164 0.444567C18.5494 2.08406 21.5859 7.77857 19.9464 13.1639C18.307 18.5493 12.6124 21.5858 7.22706 19.9464C1.84151 18.3069 -1.19482 12.6123 0.444615 7.22701ZM16.9454 5.4946C15.9006 4.02442 14.6755 3.37031 14.6755 3.37031C13.6024 2.79606 12.7961 3.20706 12.6153 4.355L12.1873 7.07358C12.0065 8.22151 12.8024 9.2748 13.9555 9.41458L16.5277 9.72634C17.6808 9.86633 18.302 8.86802 18.113 8.04231C18.113 8.04231 17.814 6.71689 16.9454 5.4946ZM5.29337 3.90607C5.22786 3.9643 5.16289 4.02204 5.09656 4.0792C4.21657 4.83803 4.25536 5.77904 5.29079 6.3055L7.60086 7.48005C8.63611 8.00645 9.88397 7.57525 10.3733 6.52134L11.5327 4.0254C12.0223 2.97148 11.5308 2.11843 10.3707 2.05982C9.70371 2.02656 9.20979 2.06083 7.66311 2.5639C6.30734 3.00483 5.78522 3.4689 5.29337 3.90607ZM2.07386 7.71614C1.28173 10.3182 2.54133 13.135 2.54133 13.135C2.99495 14.2043 4.06359 14.4146 4.88393 13.5925L6.55085 11.9619C7.37175 11.1397 7.32289 9.81253 6.47196 9.02159L4.55428 7.25734C3.70328 6.46627 2.78349 6.39372 2.28364 7.02705L2.07386 7.71614ZM7.80143 18.2241C9.40048 18.7108 10.4366 18.5645 10.4366 18.5645C11.5869 18.4018 12.0959 17.4226 11.5675 16.388L10.5188 14.3347C9.99053 13.3002 8.72764 12.9157 7.71251 13.4804L5.69759 14.601C4.68246 15.1657 4.55932 16.2624 5.42371 17.0384C5.42371 17.0384 6.20266 17.7373 7.80143 18.2241ZM15.1819 17.3005C17.0786 17.3005 18.6162 15.7629 18.6162 13.8662C18.6162 11.9696 17.0786 10.432 15.1819 10.432C13.2852 10.432 11.7477 11.9696 11.7477 13.8662C11.7477 15.7629 13.2852 17.3005 15.1819 17.3005Z" fill="currentColor"/>
<circle cx="15.1818" cy="13.8662" r="1.98825" fill="currentColor"/>
</svg>