<svg width="20" height="20" viewBox="0 0 20 20" fill="none" xmlns="http://www.w3.org/2000/svg">
<path d="M13.4898 6.50948C12.5934 5.61365 11.3632 5.05762 9.99693 5.05762C7.26448 5.05762 5.0575 7.2694 5.0575 10.0001C5.0575 12.7309 7.26448 14.9427 9.99693 14.9427C12.3028 14.9427 14.2254 13.3672 14.7756 11.2358H13.4898C12.9828 12.6753 11.6104 13.707 9.99693 13.707C7.95068 13.707 6.28772 12.0451 6.28772 10.0001C6.28772 7.95517 7.95068 6.29325 9.99693 6.29325C11.0231 6.29325 11.9381 6.71954 12.6057 7.39296L10.6151 9.38233H14.9426V5.05762L13.4898 6.50948Z" fill="currentColor"/>
<path fill-rule="evenodd" clip-rule="evenodd" d="M18.7234 8.19778C18.7234 8.19778 18.9425 9.19025 18.9425 10.09C18.9425 10.1 18.9425 10.1 18.9423 10.0993C18.9419 10.1102 19.1929 10.119 19.5002 10.119C19.8075 10.119 20.0307 10.4389 19.9965 10.8298L19.7866 12.2493C19.6987 12.6317 19.3918 12.8743 19.1045 12.7886C18.8174 12.7028 18.4713 12.9336 18.3355 13.3013L17.8585 14.363C17.672 14.7073 17.7202 15.1194 17.9657 15.2793C18.2109 15.4391 18.2213 15.8266 17.9887 16.1407L17.0438 17.2437C16.7696 17.5216 16.3888 17.5665 16.1974 17.3436C16.0061 17.1211 15.5959 17.1314 15.2856 17.3673L14.3246 17.9927C13.9845 18.1818 13.8056 18.5559 13.9272 18.8239C14.049 19.0923 13.851 19.4243 13.4874 19.5618L12.1 19.9747C11.7207 20.0582 11.3768 19.8876 11.3354 19.5958C11.2938 19.3038 10.9445 19.1001 10.5587 19.1427C10.5587 19.1427 10.4119 19.1591 9.97578 19.1591C9.54587 19.1591 9.41129 19.1442 9.41129 19.1442C9.02539 19.1019 8.67658 19.3064 8.63566 19.5984C8.59502 19.8905 8.25123 20.0619 7.87189 19.9792L6.4832 19.5692C6.11954 19.4323 5.92081 19.1009 6.042 18.8325C6.1631 18.564 5.9834 18.1902 5.64298 18.002L4.68065 17.3784C4.36993 17.1431 3.9597 17.1333 3.76889 17.3569C3.57799 17.5801 3.19711 17.5361 2.92228 17.2588L1.97508 16.1575C1.74172 15.8437 1.75138 15.456 1.9964 15.2958C2.24143 15.1357 2.28881 14.7233 2.10147 14.3795L1.62609 13.3286C1.48922 12.9612 1.14834 12.729 0.868599 12.8124C0.588858 12.896 0.292259 12.6505 0.209339 12.2671L0.00249348 10.8219C-0.025754 10.4305 0.189293 10.1095 0.480424 10.1092C0.771647 10.1085 1.00956 10.1024 1.00938 10.0957V10.0897C1.00938 9.20933 1.2165 8.25114 1.2165 8.25114C1.29933 7.8679 1.13795 7.48669 0.857756 7.4042C0.577741 7.32199 0.458828 6.95359 0.593687 6.58528L1.1919 5.2539C1.37733 4.90882 1.72997 4.75721 1.97554 4.91638C2.22129 5.07556 2.6122 4.94846 2.84429 4.63388L3.59048 3.75828C3.86429 3.4803 3.93136 3.0707 3.73973 2.84811C3.5481 2.6258 3.64478 2.25058 3.95469 2.01435L5.16696 1.22032C5.50684 1.031 5.8849 1.09533 6.00691 1.36318C6.12902 1.6312 6.52576 1.73674 6.8886 1.59756L7.98488 1.27138C8.36376 1.1863 8.63931 0.878092 8.59739 0.586286C8.55557 0.294571 8.83786 0.0324433 9.22485 0.00414743L10.6665 0C11.0537 0.0259916 11.3373 0.286461 11.2972 0.578452C11.2569 0.870719 11.5342 1.17736 11.9137 1.26004L13.0118 1.57922C13.3756 1.71591 13.7718 1.60789 13.8923 1.33903C14.0129 1.07027 14.3905 1.00363 14.7316 1.19082L15.9484 1.97748C16.2598 2.21178 16.3589 2.58626 16.1685 2.80995C16.1351 2.84919 16.1096 2.89413 16.092 2.94307V2.52874L13.3379 5.17688C12.3829 4.50625 11.224 4.11285 9.97605 4.11285C6.71775 4.11285 4.06695 6.79432 4.06695 10.0899C4.06695 13.3855 6.71775 16.067 9.97605 16.067C12.9165 16.067 15.3624 13.883 15.8114 11.0345C15.8114 11.0345 16.092 9.88506 16.092 9.1954C16.092 8.50575 16.092 7.34816 16.092 7.34816V3.33476C16.132 3.47064 16.2102 3.60612 16.323 3.71938L17.0747 4.59038C17.3088 4.90357 17.7007 5.02827 17.9452 4.86753C18.1899 4.70697 18.5435 4.85666 18.731 5.20045L19.337 6.52768C19.4741 6.89497 19.3577 7.26411 19.0779 7.34816C18.7985 7.4325 18.6388 7.81472 18.7234 8.19778Z" fill="currentColor"/>
</svg>
