<svg width="20" height="20" viewBox="0 0 20 20" fill="none" xmlns="http://www.w3.org/2000/svg">
<path fill-rule="evenodd" clip-rule="evenodd" d="M10.0001 0C4.47714 0 0 4.47738 0 10.0002C0 15.5226 4.47714 20 10.0001 20C10.4773 20 10.9466 19.9643 11.4058 19.8993C11.4034 18.1154 11.3985 16.3312 11.4054 14.5471C11.4066 14.3117 11.3406 14.2522 11.1117 14.2601C10.5948 14.2781 10.0773 14.2609 9.56045 14.268C9.34753 14.2712 9.26082 14.1872 9.2628 13.9716C9.26892 13.2716 9.26714 12.5714 9.26043 11.8714C9.25825 11.648 9.34476 11.5613 9.57269 11.5659C10.1054 11.5771 10.6386 11.5633 11.1717 11.572C11.3477 11.575 11.4081 11.5199 11.405 11.3399C11.3953 10.7434 11.402 10.1471 11.3998 9.55007C11.3955 8.35196 11.9823 7.49951 12.9926 6.93383C13.3506 6.73296 13.7619 6.62513 14.199 6.63974C14.8748 6.66226 15.5513 6.651 16.2272 6.63875C16.4458 6.6348 16.5179 6.70156 16.5132 6.92475C16.4997 7.54474 16.5043 8.16552 16.5124 8.7861C16.5153 8.99349 16.4326 9.06656 16.2295 9.06656C15.7133 9.06617 15.1968 9.07229 14.6805 9.09263C14.4213 9.1029 14.1138 9.39364 14.1055 9.64626C14.0864 10.2342 14.0897 10.8228 14.0836 11.4112C14.0818 11.584 14.2082 11.5684 14.3182 11.569C14.8748 11.5704 15.4312 11.5684 15.9884 11.5684C16.052 11.568 16.1156 11.568 16.1796 11.5696C16.4753 11.5759 16.5227 11.6463 16.4604 11.9336C16.4199 12.1179 16.4069 12.3079 16.3791 12.4946C16.2977 13.0332 16.2228 13.5736 16.1239 14.1092C16.1116 14.1744 15.9682 14.258 15.8835 14.2601C15.383 14.2743 14.8812 14.2824 14.3805 14.2601C14.1267 14.2491 14.0793 14.337 14.0801 14.5712C14.0858 16.0901 14.0838 17.6101 14.0816 19.1288C17.5689 17.5671 20 14.0687 20 10.0004C19.9998 4.47738 15.5227 0 10.0001 0Z" fill="currentColor"/>
</svg>
