<svg width="20" height="20" viewBox="0 0 20 20" fill="none" xmlns="http://www.w3.org/2000/svg">
<path d="M10.8528 5.70864C8.91691 5.34654 6.88799 6.28693 6.06554 8.02015C5.63107 8.93579 5.5904 10.0006 5.63131 10.6338C5.78218 12.9628 8.11469 14.5886 10.4168 14.3432C12.7839 14.0909 14.4981 12.0173 14.3112 9.60466C14.164 7.70474 12.7116 6.0565 10.8528 5.70864ZM9.99227 12.4232C8.66236 12.4043 7.58003 11.3045 7.59305 9.98567C7.60607 8.65003 8.70072 7.55742 10.0132 7.56886C11.3373 7.58077 12.4199 8.68037 12.4124 10.0062C12.4052 11.3355 11.2978 12.4417 9.99227 12.4232Z" fill="currentColor"/>
<path d="M8.54874 5.16209C8.54874 5.16209 9.44418 4.95407 10.1999 4.99306C11.027 5.03602 11.5707 5.16209 11.5707 5.16209V3.92684H13.3116L11.7655 1.92863L10.2199 0L8.6738 1.96318L7.12817 3.92661H8.54874V5.16209Z" fill="currentColor"/>
<path d="M11.8032 14.84C11.8032 14.84 10.9078 15.048 10.1521 15.0091C9.32496 14.9661 8.78123 14.84 8.78123 14.84V16.0669H6.9599L8.506 18.0695L10.0516 20L11.5977 18.0336L13.1434 16.0669H11.8032V14.84Z" fill="currentColor"/>
<path d="M18.0824 8.69601L16.2199 7.14349V8.59609H14.7798C14.7798 8.59609 14.987 9.49563 14.9481 10.2544C14.9056 11.0853 14.7798 11.6311 14.7798 11.6311H16.2199V13.3538L18.1045 11.8011L20 10.2488L18.0824 8.69601Z" fill="currentColor"/>
<path d="M5.14366 8.59607H3.89953V6.97467L1.91664 8.5272L0 10.0795L1.94965 11.6322L3.89953 13.1845V11.8645H5.14366C5.14366 11.8645 4.93654 10.8483 4.97536 10.0893C5.0179 9.25863 5.14366 8.59607 5.14366 8.59607Z" fill="currentColor"/>
</svg>
