<svg width="19" height="18" viewBox="0 0 19 18" fill="none" xmlns="http://www.w3.org/2000/svg">
<path d="M8.67264 11.1273L5.23627 7.69095L4.09082 8.83641L8.67264 13.4182L18.4908 3.60004L17.3454 2.45459L8.67264 11.1273Z" fill="currentColor"/>
<path fill-rule="evenodd" clip-rule="evenodd" d="M16.8009 7.378C16.8009 7.378 16.9975 8.27123 16.9975 9.08101C16.9975 9.08996 16.9975 9.08996 16.9973 9.08938C16.997 9.09917 17.2222 9.10714 17.498 9.10714C17.7737 9.10714 17.974 9.39498 17.9433 9.74686L17.7549 11.0244C17.676 11.3686 17.4007 11.5869 17.1429 11.5098C16.8853 11.4325 16.5747 11.6402 16.4528 11.9711L16.0248 12.9267C15.8574 13.2366 15.9007 13.6074 16.121 13.7514C16.3411 13.8952 16.3504 14.2439 16.1416 14.5266L15.2937 15.5193C15.0477 15.7694 14.706 15.8098 14.5343 15.6092C14.3626 15.409 13.9946 15.4183 13.7161 15.6306L12.8538 16.1935C12.5486 16.3636 12.3881 16.7003 12.4972 16.9415C12.6065 17.1831 12.4288 17.4819 12.1025 17.6057L10.8576 17.9772C10.5173 18.0523 10.2086 17.8989 10.1715 17.6363C10.1342 17.3734 9.82073 17.1901 9.47454 17.2285C9.47454 17.2285 9.34281 17.2432 8.95149 17.2432C8.56572 17.2432 8.44495 17.2298 8.44495 17.2298C8.09868 17.1917 7.78568 17.3758 7.74897 17.6386C7.7125 17.9015 7.404 18.0557 7.06362 17.9813L5.81752 17.6123C5.4912 17.4891 5.31287 17.1908 5.42161 16.9493C5.53028 16.7076 5.36904 16.3712 5.06357 16.2018L4.20005 15.6406C3.92123 15.4288 3.55312 15.4199 3.38191 15.6212C3.21061 15.8221 2.86883 15.7824 2.62223 15.5329L1.77228 14.5417C1.56288 14.2594 1.57155 13.9104 1.79142 13.7662C2.01128 13.6221 2.0538 13.251 1.88569 12.9416L1.45912 11.9958C1.33631 11.665 1.03043 11.4561 0.779413 11.5312C0.528395 11.6064 0.26225 11.3854 0.187844 11.0404L0.00223745 9.73973C-0.0231097 9.38743 0.169856 9.09859 0.431095 9.09826C0.692416 9.09768 0.905903 9.0922 0.90574 9.08615V9.08076C0.90574 8.2884 1.09159 7.42603 1.09159 7.42603C1.16592 7.08112 1.02111 6.73803 0.769683 6.66378C0.518419 6.58979 0.411716 6.25823 0.532728 5.92675L1.06952 4.72851C1.23591 4.41794 1.55234 4.28149 1.77269 4.42474C1.99321 4.568 2.34398 4.45361 2.55224 4.1705L3.22181 3.38245C3.46752 3.13227 3.52769 2.76363 3.35574 2.5633C3.18379 2.36322 3.27054 2.02552 3.54863 1.81292L4.63643 1.09828C4.94141 0.9279 5.28065 0.985801 5.39013 1.22686C5.4997 1.46808 5.8557 1.56306 6.18129 1.43781L7.165 1.14424C7.50498 1.06767 7.75224 0.790283 7.71463 0.527657C7.6771 0.265114 7.93041 0.029199 8.27766 0.00373269L9.57126 0C9.91877 0.0233925 10.1732 0.257815 10.1372 0.520607C10.1011 0.783648 10.3499 1.05963 10.6904 1.13404L11.6757 1.4213C12.0022 1.54432 12.3577 1.4471 12.4659 1.20513C12.5741 0.963239 12.9129 0.903264 13.219 1.07174L14.3108 1.77974C14.5903 1.9906 14.6792 2.32763 14.5083 2.52896C14.3374 2.73028 14.3999 3.09851 14.647 3.34745L14.9469 3.69595L13.0147 5.62816C12.0412 4.45111 10.5811 3.70157 8.95173 3.70157C6.38709 3.70157 4.24188 5.55847 3.75361 8.01649L2.93384 8.83627L3.67143 9.57386C3.90527 12.1731 5.96962 14.244 8.54195 14.4444L8.67274 14.5752L8.7901 14.4578C8.84378 14.4595 8.89766 14.4603 8.95173 14.4603C11.8753 14.4603 14.254 12.047 14.2541 9.08092C14.2541 9.05206 14.2539 9.02324 14.2534 8.99448L17.3572 5.89069C17.4712 6.21598 17.3661 6.5389 17.1191 6.61335C16.8683 6.68925 16.725 7.03325 16.8009 7.378Z" fill="currentColor"/>
</svg>