<svg width="17" height="16" viewBox="0 0 17 16" fill="none" xmlns="http://www.w3.org/2000/svg">
<path d="M13.2793 7.2H16.6153V8.8H13.2793L15.8713 11.392L14.7433 12.528L11.0153 8.8H9.41528V10.4L13.1433 14.128L12.0073 15.256L9.41528 12.664V16H8.43066V0H9.41528V3.336L12.0073 0.744L13.1433 1.872L9.41528 5.6V7.2H11.0153L14.7433 3.472L15.8713 4.608L13.2793 7.2Z" fill="#008BD1"/>
<path fill-rule="evenodd" clip-rule="evenodd" d="M7.69231 3.64693C5.42821 3.80589 3.63636 5.70534 3.63636 8.01972C3.63636 10.3341 5.42821 12.2335 7.69231 12.3925V3.64693ZM2.88 1.84619L4.18909 3.15396L3.15636 4.18408L1.85454 2.87631L2.88 1.84619ZM0 7.2891H2.18182V8.7503H0V7.2891ZM2.88 14.1932L1.85454 13.1631L3.15636 11.848L4.18182 12.8782L2.88 14.1932Z" fill="#F3CA2C"/>
</svg>