<svg width="24" height="24" viewBox="0 0 24 24" fill="none" xmlns="http://www.w3.org/2000/svg">
<path fill-rule="evenodd" clip-rule="evenodd" d="M0 12C0 5.376 5.364 0 11.988 0C18.624 0 24 5.376 24 12C24 18.624 18.624 24 11.988 24C5.364 24 0 18.624 0 12ZM2.4 12C2.4 17.304 6.696 21.6 12 21.6C17.304 21.6 21.6 17.304 21.6 12C21.6 6.696 17.304 2.4 12 2.4C6.696 2.4 2.4 6.696 2.4 12ZM18.144 14.4C17.184 16.86 14.796 18.6 12 18.6C9.204 18.6 6.816 16.86 5.856 14.4H7.86C8.7 15.828 10.224 16.8 12 16.8C13.776 16.8 15.312 15.828 16.14 14.4H18.144ZM7.8 10.8C8.79411 10.8 9.6 9.99411 9.6 9C9.6 8.00589 8.79411 7.2 7.8 7.2C6.80589 7.2 6 8.00589 6 9C6 9.99411 6.80589 10.8 7.8 10.8ZM16.2 10.8C17.1941 10.8 18 9.99411 18 9C18 8.00589 17.1941 7.2 16.2 7.2C15.2059 7.2 14.4 8.00589 14.4 9C14.4 9.99411 15.2059 10.8 16.2 10.8Z" fill="currentColor"/>
</svg>