<svg width="21" height="20" viewBox="0 0 21 20" fill="none" xmlns="http://www.w3.org/2000/svg">
<path d="M9.48438 11.9196C10.6119 11.2809 11.668 10.682 12.804 10.0381C11.6685 9.39387 10.6226 8.79998 9.48438 8.15479C9.48438 9.45538 9.48438 10.6367 9.48438 11.9196Z" fill="currentColor"/>
<path d="M10.7733 0C5.25045 0 0.773438 4.47701 0.773438 9.99988C0.773438 15.523 5.25045 20 10.7733 20C16.2962 20 20.7732 15.523 20.7732 9.99988C20.7734 4.47726 16.2962 0 10.7733 0ZM16.7511 12.733C16.5778 13.6868 16.1209 14.1723 15.1609 14.184C12.2363 14.2199 9.31011 14.2206 6.38545 14.1843C5.39487 14.1713 4.94167 13.6785 4.7818 12.6885C4.49544 10.9165 4.49943 9.14302 4.78331 7.37104C4.93222 6.43874 5.3767 5.97557 6.30477 5.90411C7.79786 5.78906 13.5483 5.73329 14.9152 5.86477C16.2895 5.99624 16.663 6.37822 16.8266 7.73037C17.0283 9.39676 17.0527 11.0701 16.7511 12.733Z" fill="currentColor"/>
</svg>