<svg width="21" height="19" viewBox="0 0 21 19" fill="none" xmlns="http://www.w3.org/2000/svg">
<path d="M14.5626 0C12.8156 0 11.1389 0.81 10.0445 2.09C8.95008 0.81 7.27335 0 5.52633 0C2.43391 0 0.00415039 2.42 0.00415039 5.5C0.00415039 9.28 3.41786 12.36 8.58863 17.04L10.0445 18.35L11.5003 17.03C16.6711 12.36 20.0848 9.28 20.0848 5.5C20.0848 2.42 17.655 0 14.5626 0ZM10.1449 15.55L10.0445 15.65L9.94408 15.55C5.16488 11.24 2.01222 8.39 2.01222 5.5C2.01222 3.5 3.51827 2 5.52633 2C7.07254 2 8.57859 2.99 9.11073 4.36H10.9883C11.5104 2.99 13.0164 2 14.5626 2C16.5707 2 18.0767 3.5 18.0767 5.5C18.0767 8.39 14.9241 11.24 10.1449 15.55Z" fill="currentColor"/>
</svg>