<svg width="22" height="19" viewBox="0 0 22 19" fill="none" xmlns="http://www.w3.org/2000/svg">
<path fill-rule="evenodd" clip-rule="evenodd" d="M7.45636 5.90884C4.73463 5.40162 1.91032 6.71791 0.754012 9.14463C0.437821 9.8083 0.296429 10.5545 0 11.2627C0 11.6984 0 12.1329 0 12.5681C0 12.6465 0.131746 12.7237 0.143509 12.8039C0.604856 16.0223 3.62114 18.3403 6.85739 17.9968C10.1856 17.6432 12.5883 14.7403 12.3256 11.3629C12.1192 8.70305 10.0699 6.3956 7.45636 5.90884ZM6.24665 15.3085C4.37703 15.2821 2.85489 13.7423 2.87348 11.8958C2.89183 10.0264 4.43067 8.49626 6.27606 8.51272C8.13768 8.52919 9.65935 10.0687 9.64923 11.9249C9.63911 13.7859 8.08216 15.3343 6.24665 15.3085Z" fill="currentColor"/>
<path fill-rule="evenodd" clip-rule="evenodd" d="M19.0194 4.19283C18.7714 4.31187 18.5957 4.30786 18.3628 4.15141C16.97 3.21555 15.5658 2.29473 14.161 1.37745C14.0152 1.2824 13.8406 1.20548 13.6698 1.17701C11.6096 0.837998 9.5478 0.508396 7.48621 0.17903C7.08909 0.11551 6.69032 0.0632852 6.25697 0C6.25697 0.571214 6.27014 1.07726 6.25109 1.5826C6.24144 1.83997 6.32849 1.99971 6.53316 2.15569C8.21716 3.43339 9.89504 4.7184 11.5649 6.01445C11.756 6.16266 11.9286 6.36992 12.0343 6.58683C13.1035 8.77664 14.1606 10.9719 15.2096 13.1716C15.3131 13.3887 15.43 13.4699 15.6731 13.4687C17.6629 13.4593 19.7621 13.4586 21.6442 13.4687V2.95676C20.7029 3.36541 19.891 3.77524 19.0194 4.19283Z" fill="currentColor"/>
</svg>
