<svg width="20" height="20" viewBox="0 0 20 20" fill="none" xmlns="http://www.w3.org/2000/svg">
<path d="M12.4963 6.94283C12.5009 6.44145 12.7037 6.24438 13.2099 6.24256C13.6419 6.24134 14.0735 6.24256 14.5192 6.24256C14.5192 5.50343 14.5192 4.78515 14.5192 4.07254C14.4951 4.05918 14.4822 4.04502 14.4696 4.04522C13.5739 4.06404 12.6723 4.02539 11.7845 4.11887C10.7249 4.23036 10.0592 4.9025 9.86475 5.93845C9.79211 6.3243 9.78927 6.72451 9.77349 7.11886C9.75933 7.47335 9.77026 7.82864 9.77026 8.20883C9.29963 8.20883 8.85551 8.20883 8.41159 8.20883C8.41159 8.98943 8.41159 9.74453 8.41159 10.5219C8.86805 10.5219 9.3059 10.5219 9.77268 10.5219C9.77268 12.6776 9.77268 14.8103 9.77268 16.9484C10.6947 16.9484 11.587 16.9484 12.5054 16.9484C12.5054 14.7994 12.5054 12.6662 12.5054 10.5365C12.5533 10.5282 12.5758 10.5209 12.5981 10.5209C12.9859 10.5195 13.3736 10.5185 13.7617 10.5185C14.2734 10.5183 14.2809 10.5191 14.3401 10.0098C14.4093 9.41595 14.464 8.82068 14.5279 8.1979C13.8376 8.1979 13.1733 8.1979 12.4953 8.1979C12.4953 7.76228 12.4922 7.35255 12.4963 6.94283Z" fill="currentColor"/>
<path d="M9.9999 0C4.48593 0 0 4.48592 0 9.9999C0 15.5141 4.48593 20 9.9999 20C15.5139 20 19.9998 15.5141 19.9998 9.9999C19.9998 4.48612 15.5139 0 9.9999 0ZM9.9999 18.3813C5.37842 18.3813 1.61866 14.6214 1.61866 9.9999C1.61866 5.37841 5.37862 1.61866 9.9999 1.61866C14.6212 1.61866 18.3811 5.37861 18.3811 9.9999C18.3811 14.6212 14.6214 18.3813 9.9999 18.3813Z" fill="currentColor"/>
</svg>
