<svg width="22" height="21" viewBox="0 0 22 21" fill="none" xmlns="http://www.w3.org/2000/svg">
<path d="M21.2295 4.40231C20.6558 4.59449 18.9977 5.50184 18.4661 5.82926C18.4286 5.8121 16.849 4.15368 17.6695 0C16.111 0.742212 14.9979 1.63267 14.4045 4.88446C14.139 4.67277 13.0662 3.13242 12.9198 2.82009C11.8808 5.71456 12.8938 9.05921 13.4394 10.8354C14.4349 13.0444 16.0324 15.9149 18.4117 14.6505C19.7237 13.953 21.1096 11.7737 21.2428 9.28572C21.34 7.46166 21.0766 6.09114 21.2295 4.40231Z" fill="currentColor"/>
<path d="M11.317 0.0606218C11.0289 0.0366963 10.7379 0.0216064 10.4435 0.0216064C4.67562 0.0216064 0 4.69723 0 10.4651C0 16.233 4.67562 20.9086 10.4435 20.9086C12.9 20.9086 15.1566 20.0582 16.9398 18.6391C13.2701 14.7158 11.0195 9.44828 11.0195 3.65258C11.0195 2.42873 11.1243 1.22985 11.317 0.0606218ZM3.62004 5.99155C4.02833 5.34634 4.32714 4.68839 5.68362 3.74021C7.04971 2.78579 7.52354 2.60479 8.18722 2.43835C9.34188 2.14969 10.0781 2.83911 9.91246 4.01822L9.52107 6.811C9.35619 7.98959 8.26133 8.78486 7.0895 8.57759L4.4746 8.11598C3.30302 7.90871 2.98419 6.99798 3.62004 5.99155ZM3.548 15.6304C3.548 15.6304 1.20226 13.2452 1.20226 10.4583C1.20226 9.7203 1.20226 9.72029 1.20226 9.72029C1.72238 8.95026 2.69709 8.74716 3.76697 9.26832L6.30828 10.4253C7.37817 10.9467 7.88971 12.233 7.33032 13.2839L6.08177 15.3797C5.5229 16.4304 4.31154 16.5432 3.548 15.6304ZM11.9953 14.4256L13.636 16.1253C14.4625 16.9817 14.256 18.0932 13.1767 18.5964C13.1767 18.5964 12.2049 19.0489 10.4924 19.0489C8.7799 19.0489 7.80779 18.5964 7.80779 18.5964C6.72906 18.0932 6.52257 16.9817 7.34878 16.1253L8.98977 14.4256C9.8165 13.5692 11.1691 13.5692 11.9953 14.4256Z" fill="currentColor"/>
</svg>
