<svg width="20" height="21" viewBox="0 0 20 21" fill="none" xmlns="http://www.w3.org/2000/svg">
<path fill-rule="evenodd" clip-rule="evenodd" d="M15.6709 18.3634V11.2221L17.6298 13.2625V18.3634C17.6298 19.4856 16.7483 20.4038 15.6709 20.4038H1.95886C0.881489 20.4038 0 19.4856 0 18.3634V4.08076C0 2.95855 0.881489 2.04038 1.95886 2.04038H7.34574C7.09109 2.6729 6.92458 3.35643 6.87561 4.08076H1.95886V18.3634H15.6709ZM17.6298 4.59086C17.6298 5.48862 17.3751 6.31498 16.9442 7.02911L20 10.2019L18.6092 11.6506L15.5534 8.46758C14.8776 8.91646 14.0744 9.18171 13.2125 9.18171C10.7835 9.18171 8.81489 7.13113 8.81489 4.59086C8.81489 2.05058 10.7835 0 13.2223 0C15.6611 0 17.6298 2.05058 17.6298 4.59086ZM10.7738 4.59086C10.7738 5.99872 11.8707 7.14133 13.2223 7.14133C14.5739 7.14133 15.6709 5.99872 15.6709 4.59086C15.6709 3.18299 14.5739 2.04038 13.2223 2.04038C11.8707 2.04038 10.7738 3.18299 10.7738 4.59086ZM11.9715 12.7525C11.9715 12.9075 11.9599 13.0567 11.9426 13.2001L12.9088 13.9576C13.0014 14.0265 13.0245 14.147 12.9667 14.2503L12.0409 15.8399C11.9831 15.9432 11.8616 15.9833 11.7574 15.9432L10.6061 15.4841C10.3688 15.662 10.1085 15.8169 9.82496 15.9317L9.65138 17.1483C9.63981 17.263 9.54145 17.3434 9.42574 17.3434H7.57426C7.45855 17.3434 7.36597 17.263 7.34283 17.1483L7.16925 15.9317C6.88575 15.8169 6.63117 15.6677 6.38816 15.4841L5.23678 15.9432C5.13264 15.9776 5.01113 15.9432 4.95327 15.8399L4.02754 14.2503C3.97547 14.1527 3.99861 14.0265 4.0854 13.9576L5.06321 13.2001C5.04006 13.0567 5.02849 12.9017 5.02849 12.7525C5.02849 12.6033 5.04585 12.4484 5.06899 12.3049L4.09118 11.5474C3.99861 11.4785 3.97547 11.358 4.03332 11.2547L4.95906 9.66516C5.01692 9.56186 5.13842 9.52169 5.24257 9.56186L6.39395 10.0209C6.63117 9.84305 6.89153 9.68811 7.17504 9.57334L7.34862 8.35676C7.36597 8.24199 7.45855 8.16165 7.57426 8.16165H9.42574C9.54145 8.16165 9.63981 8.24199 9.65717 8.35676L9.83075 9.57334C10.1143 9.68811 10.3688 9.83731 10.6118 10.0209L11.7632 9.56186C11.8674 9.52743 11.9889 9.56186 12.0467 9.66516L12.9725 11.2547C13.0245 11.3523 13.0014 11.4785 12.9146 11.5474L11.9368 12.3049C11.9599 12.4484 11.9715 12.5976 11.9715 12.7525ZM6.76425 12.7525C6.76425 13.6994 7.54533 14.4741 8.5 14.4741C9.45467 14.4741 10.2358 13.6994 10.2358 12.7525C10.2358 11.8056 9.45467 11.0309 8.5 11.0309C7.54533 11.0309 6.76425 11.8056 6.76425 12.7525Z" fill="currentColor"/>
</svg>