<svg width="20" height="20" viewBox="0 0 20 20" fill="none" xmlns="http://www.w3.org/2000/svg">
<path d="M9.99999 0C4.47681 0 0 4.47707 0 10C0 15.5229 4.47706 20 9.99999 20C15.5229 20 20 15.5229 20 10C20 4.47682 15.5232 0 9.99999 0ZM1.87907 10.1945C1.87907 9.43523 2.49464 8.81966 3.25414 8.81966C4.01339 8.81966 4.62896 9.43548 4.62896 10.1945C4.62896 10.954 4.01314 11.5695 3.25414 11.5695C2.49439 11.5698 1.87907 10.954 1.87907 10.1945ZM5.84342 15.9211C5.30629 16.4582 4.43572 16.458 3.89884 15.9211C3.36172 15.3842 3.36147 14.5137 3.89884 13.9763C4.43547 13.4394 5.30629 13.4394 5.84342 13.9765C6.38054 14.5134 6.38054 15.3842 5.84342 15.9211ZM6.01947 6.23662C5.48259 6.77375 4.61203 6.77375 4.07465 6.23687C3.53753 5.69974 3.53777 4.82918 4.0749 4.29205C4.61153 3.75517 5.48234 3.75517 6.01947 4.29205C6.5566 4.82893 6.5566 5.69974 6.01947 6.23662ZM9.97758 18.5423C9.21808 18.5423 8.60251 17.9267 8.60251 17.1672C8.60251 16.4079 9.21833 15.7924 9.97758 15.7924C10.7368 15.7924 11.3524 16.4082 11.3524 17.1672C11.3524 17.9267 10.7368 18.5423 9.97758 18.5423ZM9.97758 11.5698C9.21808 11.5698 8.60251 10.9542 8.60251 10.1947C8.60251 9.43548 9.21833 8.81991 9.97758 8.81991C10.7368 8.81991 11.3524 9.43572 11.3524 10.1947C11.3524 10.9542 10.7368 11.5698 9.97758 11.5698ZM9.97758 4.59735C9.21808 4.59735 8.60251 3.98177 8.60251 3.22227C8.60251 2.46302 9.21833 1.84745 9.97758 1.84745C10.7368 1.84745 11.3524 2.46327 11.3524 3.22227C11.3524 3.98177 10.7368 4.59735 9.97758 4.59735ZM13.7596 4.11599C14.2963 3.57911 15.1671 3.57911 15.7042 4.11599C16.2413 4.65287 16.2411 5.52368 15.7042 6.06056C15.1671 6.59769 14.2965 6.59768 13.7596 6.0608C13.2225 5.52368 13.222 4.65312 13.7596 4.11599ZM15.88 16.0972C15.3431 16.634 14.4726 16.634 13.9354 16.0972C13.3983 15.5603 13.3986 14.6895 13.9354 14.1523C14.4723 13.6152 15.3429 13.6155 15.88 14.1523C16.4169 14.6897 16.4169 15.5603 15.88 16.0972ZM17.1991 11.5698C16.4393 11.5698 15.824 10.954 15.824 10.1947C15.824 9.43548 16.4396 8.81991 17.1991 8.81991C17.9583 8.81991 18.5739 9.43572 18.5739 10.1947C18.5739 10.954 17.9583 11.5698 17.1991 11.5698Z" fill="currentColor"/>
</svg>
