<svg width="22" height="22" viewBox="0 0 22 22" fill="none" xmlns="http://www.w3.org/2000/svg">
<path d="M11 0C4.92466 0 0 4.92466 0 11C0 17.0751 4.92456 22 11 22C17.0752 22 22 17.0752 22 11C22 4.92477 17.0753 0 11 0ZM13.48 2.54554C13.48 2.54554 14.9504 2.8358 16.4912 4.02525C17.7722 5.01416 18.4975 6.28857 18.4975 6.28857C18.952 7.08168 18.6245 8.30759 17.39 8.52547L14.6364 9.01205C13.4021 9.23014 12.2493 8.39286 12.0751 7.15089L11.6626 4.20964C11.4885 2.96767 12.1917 2.28994 13.48 2.54554ZM3.8134 6.28804C4.24324 5.60862 4.5578 4.91568 5.9869 3.91695C7.42562 2.91145 7.92477 2.72084 8.62384 2.54554C9.83992 2.24144 10.6155 2.96767 10.4413 4.20964L10.0287 7.15089C9.85482 8.39275 8.70203 9.23014 7.46778 9.01205L4.71366 8.52547C3.47919 8.30737 3.14339 7.34806 3.8134 6.28804ZM4.02155 16.4405C4.02155 16.4405 1.8358 13.9283 1.8358 10.9929C1.8358 10.2156 1.8358 10.2156 1.8358 10.2156C2.15279 9.40459 3.12521 9.19041 4.25243 9.73965L6.78677 10.9584C7.91389 11.5075 8.38145 12.8623 7.79237 13.9693L6.5839 16.1766C5.99535 17.2832 4.82597 17.4019 4.02155 16.4405ZM13.8792 19.5646C13.8792 19.5646 12.8556 20.0413 11.0517 20.0413C9.2481 20.0413 8.22422 19.5646 8.22422 19.5646C7.08792 19.0351 6.87035 17.8641 7.74091 16.9621L9.46894 15.1718C10.3395 14.2698 11.7642 14.2698 12.6347 15.1718L14.3627 16.9621C15.2334 17.8641 15.0157 19.0351 13.8792 19.5646ZM17.9002 16.4405C17.0959 17.4019 16.0133 17.2832 15.4243 16.1766L14.2705 13.9693C13.6817 12.8622 14.132 11.5075 15.2589 10.9584L17.6655 9.73965C18.7923 9.19051 19.5873 9.40459 19.9043 10.2156C19.9043 10.2156 19.9043 10.2156 19.9043 10.9929C19.9043 13.9279 17.9002 16.4405 17.9002 16.4405Z" fill="currentColor"/>
</svg>