<svg width="20" height="20" viewBox="0 0 20 20" fill="none" xmlns="http://www.w3.org/2000/svg">
<path d="M6.23313 10.8758C6.62458 11.0329 6.90346 10.9697 7.24461 10.7535C8.94064 9.67902 10.6519 8.62843 12.3631 7.57784C12.4821 7.50488 12.6425 7.50015 12.7837 7.4633C12.7189 7.58855 12.6592 7.71605 12.5884 7.83757C12.561 7.88438 12.5097 7.91675 12.4687 7.95535C11.1773 9.15758 9.89586 10.371 8.5878 11.5548C8.24242 11.8671 8.03274 12.1953 7.99141 12.6619C7.94559 13.1759 7.84574 13.6849 7.75635 14.2833C8.36369 13.732 8.90055 13.2444 9.44364 12.7516C9.52955 12.8146 9.60202 12.8666 9.67249 12.9207C10.4838 13.5422 11.2926 14.1665 12.1064 14.7843C12.4097 15.0144 12.4933 14.9783 12.5633 14.6204C13.0048 12.3773 13.4475 10.1347 13.8878 7.8916C14.0228 7.20258 14.1522 6.51281 14.2977 5.75507C10.8374 7.21204 7.44083 8.64263 3.9666 10.1056C4.77813 10.376 5.51996 10.5899 6.23313 10.8758Z" fill="currentColor"/>
<path d="M9.99987 0C4.47701 0 0 4.47701 0 9.99988C0 15.523 4.47701 20 9.99987 20C15.5227 20 19.9998 15.523 19.9998 9.99988C20 4.47701 15.5227 0 9.99987 0ZM15.068 6.76594C14.5344 9.49587 14.0058 12.2266 13.4632 14.9545C13.2923 15.8131 12.368 16.1625 11.663 15.64C10.9416 15.1049 10.2364 14.5471 9.49961 13.9806C9.07928 14.3633 8.68383 14.7299 8.28093 15.089C7.71194 15.5959 7.14493 15.4622 6.90114 14.7378C6.60806 13.8673 6.34212 12.987 6.08763 12.104C6.01641 11.856 5.89141 11.74 5.65161 11.667C5.04078 11.4815 4.43891 11.2676 3.83331 11.0649C3.75886 11.0398 3.68316 11.0171 3.61219 10.9842C3.23419 10.8099 2.93163 10.5532 2.91918 10.1112C2.90648 9.65997 3.20728 9.4 3.59325 9.23714C7.00175 7.79934 10.4132 6.36702 13.8207 4.92623C14.7605 4.5288 15.2837 5.14337 15.2498 5.74025C15.2304 6.08414 15.1345 6.42454 15.068 6.76594Z" fill="currentColor"/>
</svg>