<svg width="16" height="16" viewBox="0 0 16 16" fill="none" xmlns="http://www.w3.org/2000/svg">
<path d="M4.18909 3.13425L2.88 1.82648L1.85455 2.85662L3.15636 4.16438L4.18909 3.13425ZM2.18182 7.26941H0V8.73059H2.18182V7.26941ZM8.72727 0H7.27273V2.15525H8.72727V0ZM14.1455 2.85662L13.12 1.82648L11.8182 3.13425L12.8436 4.16438L14.1455 2.85662ZM11.8109 12.8658L13.1127 14.1808L14.1382 13.1507L12.8291 11.8429L11.8109 12.8658ZM13.8182 7.26941V8.73059H16V7.26941H13.8182ZM8 3.61644C5.59273 3.61644 3.63636 5.58173 3.63636 8C3.63636 10.4183 5.59273 12.3836 8 12.3836C10.4073 12.3836 12.3636 10.4183 12.3636 8C12.3636 5.58173 10.4073 3.61644 8 3.61644ZM7.27273 16H8.72727V13.8447H7.27273V16ZM1.85455 13.1434L2.88 14.1735L4.18182 12.8584L3.15636 11.8283L1.85455 13.1434Z" fill="#F3CA2C"/>
</svg>