<svg width="20" height="20" viewBox="0 0 20 20" fill="none" xmlns="http://www.w3.org/2000/svg">
<path d="M8.72683 11.7967L8.29776 12.0191V7.71716C9.05736 8.11342 9.81316 8.50776 10.5714 8.90335L12.4334 9.87483C11.1888 10.5199 9.96356 11.1553 8.72683 11.7967Z" fill="currentColor"/>
<path fill-rule="evenodd" clip-rule="evenodd" d="M0 9.9999C0 4.47716 4.47697 0 10.0001 0C15.523 0 20.0002 4.47696 20 9.9999C20 15.5228 15.523 20 10.0001 20C4.47718 20 0 15.523 0 9.9999ZM16.2476 13.0793C16.3505 12.5449 16.4752 11.2658 16.4836 11.1699C16.4836 11.0007 16.4935 10.8051 16.5048 10.582C16.546 9.76568 16.6059 8.58205 16.2673 6.98048C16.1032 6.18219 15.5169 5.70387 14.7042 5.62316C12.9849 5.45279 11.2617 5.45964 9.53838 5.46648C9.41496 5.46697 9.29154 5.46747 9.16812 5.46789C8.30822 5.47098 7.44832 5.49337 6.58924 5.52766C6.06964 5.5484 5.54964 5.59625 5.03249 5.65499C4.38885 5.72831 3.84728 6.25571 3.6914 6.93058C3.56695 7.46886 3.51478 8.01618 3.48726 8.56679C3.4844 8.62788 3.47786 8.68887 3.47129 8.74996C3.46844 8.77657 3.46558 8.80321 3.46303 8.82987V11.1948C3.46808 11.2608 3.47236 11.3269 3.47664 11.393C3.48626 11.542 3.49588 11.6908 3.51437 11.8386C3.52464 11.921 3.53441 12.0035 3.54417 12.0861C3.5817 12.4031 3.6193 12.7206 3.68544 13.0314C3.85467 13.8262 4.43528 14.2963 5.24465 14.3762C6.99611 14.5488 8.75165 14.5406 10.5074 14.5323L10.768 14.5311C11.6361 14.5272 12.5046 14.5058 13.3722 14.4715C13.8878 14.451 14.4031 14.4035 14.9162 14.3438C15.5573 14.2696 16.1184 13.7519 16.2476 13.0793Z" fill="currentColor"/>
</svg>
