<svg width="20" height="20" viewBox="0 0 20 20" fill="none" xmlns="http://www.w3.org/2000/svg">
<path fill-rule="evenodd" clip-rule="evenodd" d="M14.6343 5.68801C15.4349 5.76732 16.0123 6.23856 16.1742 7.02523C16.5076 8.60201 16.4487 9.76781 16.4081 10.5721C16.397 10.7924 16.3872 10.9856 16.3873 11.1526C16.379 11.2471 16.2562 12.5072 16.1548 13.0337C16.0275 13.6963 15.4748 14.2064 14.8431 14.2795C14.3376 14.3383 13.83 14.3851 13.3219 14.4053C12.4673 14.4391 11.6116 14.4599 10.7564 14.464C10.6708 14.4644 10.5852 14.4648 10.4996 14.4652C8.76983 14.4733 7.04012 14.4815 5.31482 14.3114C4.51722 14.2327 3.94542 13.7696 3.7787 12.9866C3.71356 12.6803 3.67653 12.3676 3.63958 12.0556C3.62993 11.9741 3.62029 11.8927 3.61015 11.8114C3.59194 11.6658 3.58245 11.5191 3.57297 11.3724C3.56876 11.3073 3.56455 11.2422 3.55957 11.1771V8.84723C3.56206 8.82127 3.56483 8.79532 3.5676 8.76937C3.57404 8.70899 3.58048 8.64862 3.58345 8.58805C3.61057 8.04559 3.66195 7.50637 3.78456 6.97606C3.93813 6.31119 4.47149 5.7916 5.1058 5.71937C5.61528 5.6615 6.12759 5.61456 6.63949 5.59393C7.48585 5.56014 8.33302 5.53808 9.18018 5.53505C9.30183 5.53463 9.42347 5.53414 9.54511 5.53366C11.2429 5.52691 12.9405 5.52016 14.6343 5.68801ZM8.32249 7.75059V11.9889L12.3969 9.8763C11.6418 9.48245 10.8943 9.09241 10.148 8.70303C9.53978 8.38568 8.9324 8.06877 8.32249 7.75059Z" fill="currentColor"/>
<path fill-rule="evenodd" clip-rule="evenodd" d="M0 9.9999C0 4.48592 4.48593 0 9.9999 0C15.5137 0 19.9998 4.48613 20 9.9999C20 15.5141 15.5139 20 9.9999 20C4.48593 20 0 15.5139 0 9.9999ZM1.61866 9.9999C1.61866 14.6214 5.37862 18.3813 9.9999 18.3813C14.6214 18.3813 18.3811 14.6216 18.3813 9.9999C18.3813 5.37862 14.6216 1.61866 9.9999 1.61866C5.37862 1.61866 1.61866 5.37841 1.61866 9.9999Z" fill="currentColor"/>
</svg>
