<svg width="15" height="14" viewBox="0 0 15 14" fill="none" xmlns="http://www.w3.org/2000/svg">
<path d="M13.2632 2.94737H10.3158V1.47368C10.3158 1.06842 10.1537 0.7 9.88105 0.434737C9.61579 0.162105 9.24737 0 8.84211 0H5.89474C5.08421 0 4.42105 0.663158 4.42105 1.47368V2.94737H1.47368C0.663158 2.94737 0 3.61053 0 4.42105V12.5263C0 13.3368 0.663158 14 1.47368 14H13.2632C14.0737 14 14.7368 13.3368 14.7368 12.5263V4.42105C14.7368 3.61053 14.0737 2.94737 13.2632 2.94737ZM5.89474 1.47368H8.84211V2.94737H5.89474V1.47368ZM6.63158 11.4211L5.89474 10.6842L8.10526 8.47368L5.89474 6.26316L6.63158 5.52632L9.57895 8.47368L6.63158 11.4211Z" fill="currentColor"/>
</svg>