<svg width="31" height="28" viewBox="0 0 31 28" fill="none" xmlns="http://www.w3.org/2000/svg">
<path fill-rule="evenodd" clip-rule="evenodd" d="M15.5002 0C16.0709 0 16.5335 0.462645 16.5335 1.03335V2.06669H25.8337C26.4044 2.06669 26.867 2.52934 26.867 3.10004C26.867 3.35831 26.7723 3.59445 26.6156 3.7756L26.7051 3.92802C26.8256 4.1341 26.9973 4.43019 27.2031 4.79225C27.6143 5.5156 28.1637 6.5059 28.7143 7.56977C29.2633 8.63048 29.8216 9.78006 30.2453 10.8184C30.6476 11.8044 31 12.8544 31 13.6449C31 16.5272 28.5324 18.7552 25.6266 18.7552C22.7208 18.7552 20.2532 16.5272 20.2532 13.6449C20.2532 12.8544 20.6056 11.8044 21.0079 10.8184C21.4315 9.78006 21.9899 8.63048 22.5388 7.56977C23.0895 6.5059 23.6389 5.5156 24.0501 4.79225C24.1952 4.53704 24.3233 4.31462 24.4285 4.13339H16.5335V24.8003C16.5335 24.853 16.5296 24.9048 16.522 24.9553H22.0616C22.6323 24.9553 23.0949 25.418 23.0949 25.9887C23.0949 26.5594 22.6323 27.022 22.0616 27.022H9.29972C8.72901 27.022 8.26637 26.5594 8.26637 25.9887C8.26637 25.418 8.72901 24.9553 9.29972 24.9553H14.4784C14.4708 24.9048 14.4669 24.853 14.4669 24.8003V4.13339H6.3021C6.33454 4.18478 6.37995 4.25699 6.43657 4.34774C6.55738 4.54135 6.72939 4.81957 6.93555 5.16017C7.34739 5.84055 7.89788 6.7737 8.44965 7.7807C8.99963 8.78441 9.56004 9.87805 9.98578 10.8759C10.3901 11.8235 10.7468 12.8473 10.7468 13.6449C10.7468 16.5272 8.27924 18.7552 5.3734 18.7552C2.46757 18.7552 0 16.5272 0 13.6449C0 12.8473 0.356752 11.8235 0.761026 10.8759C1.18677 9.87805 1.74718 8.78441 2.29715 7.7807C2.84893 6.7737 3.39942 5.84055 3.81126 5.16017C4.01742 4.81957 4.18942 4.54135 4.31023 4.34774C4.37065 4.25091 4.41829 4.17519 4.45105 4.12335L4.48875 4.06382L4.50254 4.04215L5.3734 4.5984L6.10142 4.13339H6.10134L5.3734 4.5984C4.50254 4.04215 4.50262 4.04203 4.50254 4.04215L4.56682 3.94151C4.30444 3.75412 4.13339 3.44705 4.13339 3.10004C4.13339 2.52934 4.59603 2.06669 5.16674 2.06669H14.4669V1.03335C14.4669 0.462645 14.9295 0 15.5002 0ZM5.3734 6.57252C5.00366 7.19069 4.55618 7.9588 4.1096 8.77381C3.57654 9.74664 3.05385 10.7699 2.66627 11.6768H8.08054C7.69296 10.7699 7.17026 9.74664 6.63721 8.77381C6.19063 7.9588 5.74314 7.19069 5.3734 6.57252ZM5.3734 16.6886C3.52373 16.6886 2.12458 15.3232 2.06844 13.7435H8.67836C8.62223 15.3232 7.22307 16.6886 5.3734 16.6886ZM24.3743 8.51971C24.8162 7.66582 25.2589 6.85787 25.6266 6.20329C25.9943 6.85787 26.437 7.66582 26.8789 8.51971C27.4149 9.55542 27.9416 10.643 28.3317 11.5991C28.3424 11.6252 28.3529 11.6511 28.3632 11.6768H22.89C22.9003 11.6511 22.9108 11.6252 22.9214 11.5991C23.3116 10.643 23.8382 9.55542 24.3743 8.51971ZM22.3216 13.7435C22.3778 15.3232 23.7769 16.6885 25.6266 16.6885C27.4763 16.6885 28.8754 15.3232 28.9316 13.7435H22.3216Z" fill="currentColor"/>
</svg>