<svg width="20" height="20" viewBox="0 0 20 20" fill="none" xmlns="http://www.w3.org/2000/svg">
<path fill-rule="evenodd" clip-rule="evenodd" d="M10.0001 0C4.47697 0 0 4.47717 0 9.9999C0 15.523 4.47717 20 10.0001 20C15.523 20 20 15.5228 20 9.9999C20.0002 4.47717 15.523 0 10.0001 0ZM16.2605 7.04661C16.0821 7.23001 15.8728 7.38302 15.6826 7.55512C15.6485 7.58593 15.6206 7.64425 15.6212 7.68902C15.6557 9.57026 15.0616 11.2317 13.8671 12.6778C13.0507 13.6658 12.0263 14.3633 10.813 14.7751C9.94568 15.0694 9.05168 15.1862 8.13653 15.1527C7.19181 15.118 6.28795 14.9106 5.42969 14.5173C5.1358 14.3826 4.85752 14.2132 4.57205 14.0591C4.56486 14.055 4.55994 14.0464 4.53981 14.0236C5.61371 14.1248 6.61553 13.9371 7.5506 13.4309C7.78884 13.3015 8.01187 13.143 8.23635 12.9869C7.08728 12.8772 6.31137 12.2958 5.88809 11.2213C6.09141 11.2299 6.27626 11.2488 6.45945 11.2418C6.63997 11.2348 6.81926 11.2011 6.99753 11.1689C5.50836 10.8007 4.94809 9.446 5.01545 8.6473C5.36048 8.82413 5.72009 8.93667 6.14049 8.95084C5.58537 8.5481 5.22904 8.04288 5.08651 7.39883C4.94521 6.75949 5.03989 6.15385 5.36397 5.57243C6.73916 7.18976 8.47294 8.07513 10.5895 8.2232C10.5735 8.0589 10.553 7.90651 10.5446 7.7533C10.5125 7.18647 10.66 6.66523 10.9855 6.20293C11.4601 5.52889 12.1163 5.15552 12.9409 5.10931C13.6613 5.06927 14.2916 5.30401 14.8176 5.8004C14.8977 5.87598 14.9634 5.89959 15.0739 5.87289C15.5362 5.75912 15.979 5.59995 16.3948 5.36665C16.4328 5.34508 16.4721 5.32639 16.5394 5.29209C16.3365 5.88871 15.981 6.33129 15.4828 6.66913C15.9599 6.62477 16.4109 6.49066 16.8489 6.30685C16.8576 6.31733 16.8658 6.32821 16.8744 6.33848C16.6709 6.57548 16.4778 6.82275 16.2605 7.04661Z" fill="currentColor"/>
</svg>
