<svg width="17" height="16" viewBox="0 0 17 16" fill="none" xmlns="http://www.w3.org/2000/svg">
<path d="M16.0687 7.2H12.7192L15.3217 4.608L14.1891 3.472L10.4461 7.2H8.83963V5.6L12.5827 1.872L11.4421 0.744L8.83963 3.336V0H7.23318V3.336L4.63073 0.744L3.49015 1.872L7.23318 5.6V7.2H5.62673L1.8837 3.472L0.75115 4.608L3.3536 7.2H0.00415039V8.8H3.3536L0.75115 11.392L1.8837 12.528L5.62673 8.8H7.23318V10.4L3.49015 14.128L4.63073 15.256L7.23318 12.664V16H8.83963V12.664L11.4421 15.256L12.5827 14.128L8.83963 10.4V8.8H10.4461L14.1891 12.528L15.3217 11.392L12.7192 8.8H16.0687V7.2Z" fill="#008BD1"/>
</svg>