<svg width="20" height="20" viewBox="0 0 20 20" fill="none" xmlns="http://www.w3.org/2000/svg">
<path d="M10.5045 5.61662C11.0658 5.70082 11.3975 6.2044 11.4112 6.95135C11.4268 7.79721 11.426 8.64339 11.4252 9.48958C11.4249 9.81592 11.4246 10.1423 11.4252 10.4686C11.4256 10.6487 11.4262 10.8288 11.4268 11.0089C11.4286 11.5579 11.4304 12.1071 11.4254 12.6562C11.4115 14.1565 10.7639 14.6796 9.22647 14.4028V5.6043C9.3619 5.6043 9.4966 5.59951 9.6303 5.59477C9.92765 5.58421 10.22 5.57383 10.5045 5.61662Z" fill="currentColor"/>
<path fill-rule="evenodd" clip-rule="evenodd" d="M0 9.9999C0 4.47717 4.47697 0 10.0001 0C15.523 0 20.0002 4.47717 20 9.9999C20 15.5228 15.523 20 10.0001 20C4.47717 20 0 15.523 0 9.9999ZM10.7052 16.7927C12.7538 16.5528 13.8575 15.5423 13.9082 13.6607C13.9745 11.2046 13.9651 8.74444 13.9098 6.28754C13.8733 4.66652 12.8797 3.51745 11.2751 3.33795C10.2376 3.2219 9.18838 3.21258 8.13255 3.20319C7.66554 3.19904 7.19723 3.19487 6.72808 3.18146V16.8185C7.02967 16.8185 7.32881 16.8186 7.62616 16.8187C8.4621 16.8189 9.28378 16.8192 10.1055 16.8175C10.3055 16.8171 10.507 16.8159 10.7052 16.7927Z" fill="currentColor"/>
</svg>
