<svg width="21" height="22" viewBox="0 0 21 22" fill="none" xmlns="http://www.w3.org/2000/svg">
<path d="M16.4316 1.06854C16.4316 1.06854 11.9872 6.33399 11.9872 9.05813C11.9872 11.466 13.9392 13.418 16.3474 13.418C18.7555 13.418 20.7075 11.466 20.7075 9.05813C20.7073 6.01958 16.4316 1.06854 16.4316 1.06854Z" fill="currentColor"/>
<path d="M10.7595 6.42659C10.7595 4.27901 11.2276 2.24222 12.0613 0.40671C11.5339 0.324791 10.9938 0.281616 10.4435 0.281616C4.67536 0.281616 0 4.95724 0 10.7251C0 16.493 4.67562 21.1686 10.4435 21.1686C13.0714 21.1686 15.4712 20.1957 17.307 18.593C13.3627 15.9835 10.7595 11.51 10.7595 6.42659ZM3.62004 6.25156C4.02833 5.60635 4.32714 4.9484 5.68362 4.00022C7.04971 3.0458 7.52355 2.8648 8.18722 2.69836C9.34189 2.4097 10.0781 3.09912 9.91246 4.27823L9.52081 7.07101C9.35593 8.2496 8.26133 9.04487 7.08924 8.8376L4.47434 8.37599C3.30303 8.16872 2.98419 7.25799 3.62004 6.25156ZM3.548 15.8904C3.548 15.8904 1.20226 13.5052 1.20226 10.7184C1.20226 9.98031 1.20226 9.9803 1.20226 9.9803C1.72238 9.21027 2.69709 9.00717 3.76697 9.52833L6.30828 10.6853C7.37817 11.2067 7.88971 12.493 7.33032 13.5439L6.08177 15.6397C5.5229 16.6904 4.31154 16.8032 3.548 15.8904ZM13.177 18.8564C13.177 18.8564 12.2051 19.3089 10.4929 19.3089C8.78016 19.3089 7.80805 18.8564 7.80805 18.8564C6.72932 18.3532 6.52283 17.2417 7.34904 16.3853L8.99003 14.6856C9.81624 13.8292 11.1688 13.8292 11.9953 14.6856L13.6363 16.3853C14.4627 17.2417 14.256 18.3535 13.177 18.8564Z" fill="currentColor"/>
</svg>
