<svg width="24" height="19" viewBox="0 0 24 19" fill="none" xmlns="http://www.w3.org/2000/svg">
<path d="M23.71 14.67C20.66 11.78 16.54 10 12 10C7.46 10 3.34 11.78 0.29 14.67C0.11 14.85 0 15.1 0 15.38C0 15.66 0.11 15.91 0.29 16.09L2.77 18.57C2.95 18.75 3.2 18.86 3.48 18.86C3.75 18.86 4 18.75 4.18 18.58C4.97 17.84 5.87 17.22 6.84 16.73C7.17 16.57 7.4 16.23 7.4 15.83V12.73C8.85 12.25 10.4 12 12 12C13.6 12 15.15 12.25 16.6 12.72V15.82C16.6 16.21 16.83 16.56 17.16 16.72C18.14 17.21 19.03 17.84 19.82 18.57C20 18.75 20.25 18.85 20.52 18.85C20.8 18.85 21.05 18.74 21.23 18.56L23.71 16.08C23.89 15.9 24 15.65 24 15.37C24 15.1 23.89 14.85 23.71 14.67ZM21.16 4.26L19.75 2.85L16.19 6.4L17.6 7.81C17.6 7.81 21.05 4.29 21.16 4.26ZM13 0H11V5H13V0ZM6.4 7.81L7.81 6.4L4.26 2.84L2.84 4.26C2.95 4.29 6.4 7.81 6.4 7.81Z" fill="currentColor"/>
</svg>