<svg width="20" height="16" viewBox="0 0 20 16" fill="none" xmlns="http://www.w3.org/2000/svg">
<path fill-rule="evenodd" clip-rule="evenodd" d="M10.5877 6.00133L9.02383 2.75896L14.4647 0.0784434L16.8155 0L17.9654 2.3841L15.317 3.6826L19.2727 11.8839L17.1918 12.9042L13.2361 4.70285L10.5877 6.00133ZM12.4826 6.24839C12.5554 6.23545 12.6237 6.21759 12.6877 6.1954L13.0726 6.97146C12.9491 7.0077 12.8182 7.05938 12.6804 7.1271L10.9529 8.0091C10.144 8.40651 9.82082 9.38692 10.2434 10.1881L11.0717 11.7855C11.4944 12.5864 12.2715 12.6724 12.8488 11.9766C12.8488 11.9766 13.8077 10.7645 14.1597 9.16366L15.1563 11.1732C13.9494 14.0117 11.153 16 7.89585 16C3.53487 16 0 12.4358 0 8.03922C0 3.64246 3.53494 0.0784512 7.89585 0.0784512C8.97803 0.0784512 10.0093 0.297932 10.9484 0.695151L9.02383 1.61691C8.37148 1.92068 8.27961 2.46438 8.37148 3.12499L8.66758 5.2536C8.79258 6.15242 9.62005 6.75836 10.5061 6.60053L12.4826 6.24839ZM2.73728 4.62915C2.77354 4.57136 2.80866 4.51343 2.84407 4.45503C3.10994 4.01651 3.39218 3.55101 4.29742 2.91317C5.33014 2.18549 5.68844 2.04754 6.19023 1.92068C7.06314 1.7006 7.61985 2.22617 7.49478 3.12499L7.19868 5.2536C7.07384 6.15234 6.24636 6.75836 5.3604 6.60053L3.38348 6.24839C2.49738 6.09055 2.25634 5.39629 2.73728 4.62915ZM2.88669 11.9766C2.88669 11.9766 1.31775 10.1584 1.31775 8.0341V7.47152C1.54528 6.88461 2.24329 6.72961 3.05241 7.1271L4.87158 8.0091C5.68062 8.40651 6.01624 9.387 5.5934 10.1881L4.72595 11.7855C4.30349 12.5864 3.4641 12.6724 2.88669 11.9766ZM9.96257 14.2375C9.96257 14.2375 9.22778 14.5825 7.93294 14.5825C6.63833 14.5825 5.90338 14.2375 5.90338 14.2375C5.08774 13.8543 4.93157 13.0068 5.55646 12.354L6.79684 11.0584C7.42174 10.4056 8.44437 10.4056 9.06926 11.0584L10.3096 12.354C10.9346 13.0068 10.7784 13.8543 9.96257 14.2375Z" fill="#008BD1"/>
</svg>