<svg width="21" height="20" viewBox="0 0 21 20" fill="none" xmlns="http://www.w3.org/2000/svg">
<path fill-rule="evenodd" clip-rule="evenodd" d="M9.94999 13.8625C9.5332 14.242 9.14111 14.6055 8.7416 14.9616C8.17741 15.4643 7.61518 15.3317 7.37345 14.6134C7.08284 13.7502 6.81913 12.8774 6.56679 12.0018C6.49617 11.7559 6.37222 11.6408 6.13444 11.5685C5.52876 11.3845 4.93198 11.1724 4.33149 10.9714C4.25766 10.9465 4.1826 10.924 4.11223 10.8914C3.73742 10.7186 3.43741 10.464 3.42507 10.0258C3.41247 9.57835 3.71075 9.32058 4.09346 9.1591C7.47321 7.73342 10.8559 6.31318 14.2347 4.88454C15.1665 4.49047 15.6853 5.09985 15.6517 5.6917C15.6322 6.03293 15.5369 6.37046 15.4712 6.70873C14.9421 9.41564 14.4179 12.1233 13.8799 14.8282C13.7105 15.6796 12.7939 16.026 12.0949 15.508C11.3799 14.9774 10.6806 14.4245 9.94999 13.8625ZM14.7085 5.70651C11.2774 7.1512 7.9095 8.56971 4.46457 10.0203C5.26876 10.2887 6.00432 10.5008 6.71173 10.7845C7.09988 10.9403 7.37642 10.8776 7.71469 10.6633C9.39642 9.59786 11.0932 8.55614 12.79 7.51441C12.908 7.44206 13.067 7.43738 13.207 7.40083C13.1428 7.52503 13.0836 7.65145 13.0134 7.77194C12.9863 7.81836 12.9354 7.85046 12.8947 7.88873C11.6142 9.08082 10.3436 10.284 9.04654 11.4579C8.70407 11.7675 8.49617 12.0929 8.45518 12.5556C8.40975 13.0653 8.31074 13.57 8.2221 14.1633C8.82432 13.6166 9.35666 13.1332 9.89518 12.6445C9.98036 12.707 10.0522 12.7586 10.1221 12.8122C10.9265 13.4285 11.7285 14.0475 12.5354 14.6601C12.8362 14.8882 12.9191 14.8524 12.9885 14.4976C13.4263 12.2734 13.8653 10.0497 14.3018 7.82552C14.4357 7.14207 14.5643 6.45787 14.7085 5.70651Z" fill="currentColor"/>
<path d="M10.4463 1.55555C15.0562 1.55555 18.8063 5.30592 18.8063 9.91554C18.8063 14.5254 15.0562 18.2758 10.4463 18.2758C5.83643 18.2758 2.08631 14.5254 2.08631 9.91554C2.08631 5.30592 5.83643 1.55555 10.4463 1.55555ZM10.4463 0C4.97001 0 0.530762 4.43925 0.530762 9.91554C0.530762 15.3921 4.97001 19.8313 10.4463 19.8313C15.9226 19.8313 20.3618 15.3921 20.3618 9.91554C20.3618 4.43925 15.9226 0 10.4463 0Z" fill="currentColor"/>
</svg>