<svg width="21" height="20" viewBox="0 0 21 20" fill="none" xmlns="http://www.w3.org/2000/svg">
<path d="M14.6428 8.69584C14.6326 8.30165 14.6172 7.90672 14.5776 7.51477C14.4884 6.636 13.965 6.03015 13.0994 5.86655C12.6372 5.77889 12.1572 5.76694 11.6845 5.75798C10.819 5.74204 9.95314 5.74378 9.08757 5.75723C8.64109 5.7642 8.19012 5.77989 7.75012 5.84837C6.99834 5.96516 6.48513 6.39595 6.27745 7.14125C6.21096 7.3803 6.17212 7.6333 6.1664 7.88106C6.14398 8.82184 6.13004 9.76336 6.13328 10.7046C6.13552 11.3033 6.14921 11.9039 6.20125 12.5003C6.2782 13.3823 6.80561 13.9861 7.67143 14.1525C8.13684 14.2416 8.62092 14.2531 9.09728 14.262C9.95886 14.2785 10.8209 14.2735 11.683 14.2638C12.0842 14.2593 12.4871 14.2376 12.8865 14.198C13.2568 14.1617 13.6034 14.0404 13.9012 13.8036C14.3838 13.4199 14.5703 12.891 14.5987 12.3043C14.6371 11.5122 14.645 10.7191 14.666 9.92621C14.659 9.92596 14.652 9.92596 14.645 9.92596C14.6453 9.51559 14.6535 9.10571 14.6428 8.69584ZM10.3802 12.6793C8.89807 12.6786 7.71874 11.4873 7.71949 9.99071C7.71999 8.51605 8.91873 7.33971 10.4193 7.34145C11.884 7.34295 13.0591 8.54568 13.0573 10.041C13.0558 11.4975 11.8559 12.6798 10.3802 12.6793ZM13.1574 7.86438C12.8101 7.85816 12.5277 7.5693 12.5342 7.22791C12.5409 6.87979 12.8218 6.60935 13.1736 6.61234C13.5242 6.61533 13.7902 6.89199 13.786 7.24957C13.7822 7.58997 13.4956 7.87086 13.1574 7.86438Z" fill="currentColor"/>
<path d="M10.3866 0C4.86348 0 0.386719 4.47701 0.386719 9.99987C0.386719 15.523 4.86373 20 10.3866 20C15.9092 20 20.3865 15.523 20.3865 9.99987C20.3867 4.47726 15.9092 0 10.3866 0ZM15.5738 11.6483C15.5678 12.1937 15.5496 12.7418 15.3679 13.2662C15.0195 14.2722 14.3113 14.8825 13.2771 15.0815C12.8075 15.1716 12.3202 15.1811 11.8401 15.2C11.355 15.2192 10.8687 15.2042 10.3826 15.2042C10.3826 15.2095 10.3826 15.214 10.3824 15.2189C9.68064 15.2065 8.97817 15.2003 8.27645 15.1801C7.6706 15.1629 7.08368 15.0531 6.55776 14.7304C5.86874 14.3076 5.44816 13.6855 5.31394 12.8956C5.23376 12.4235 5.20512 11.9384 5.1979 11.4586C5.18246 10.4299 5.18844 9.40124 5.19965 8.37257C5.20538 7.82698 5.22355 7.27916 5.40558 6.75449C5.75395 5.74872 6.46189 5.13838 7.49605 4.93992C7.96568 4.84953 8.45325 4.82961 8.9331 4.82214C9.96551 4.8062 10.9982 4.81218 12.0303 4.82364C12.5722 4.82936 13.116 4.84804 13.6372 5.02783C14.6477 5.37645 15.261 6.08563 15.4582 7.12551C15.5474 7.5954 15.5678 8.08272 15.5753 8.56257C15.591 9.59074 15.5847 10.6197 15.5738 11.6483Z" fill="currentColor"/>
<path d="M10.3844 8.27873C9.43312 8.28172 8.65371 9.06287 8.65546 10.0126C8.65695 10.9623 9.44035 11.744 10.3891 11.742C11.3396 11.7398 12.1202 10.9574 12.1185 10.0076C12.1165 9.05739 11.3323 8.27574 10.3844 8.27873Z" fill="currentColor"/>
</svg>