<svg width="27" height="27" viewBox="0 0 27 27" fill="none" xmlns="http://www.w3.org/2000/svg">
<path d="M12.1432 2.7407V0C9.41608 0.271357 6.93317 1.35678 4.92513 2.99849L6.85176 4.93869C8.35779 3.77186 10.1623 2.98492 12.1432 2.7407ZM22.0749 2.99849C20.0668 1.35678 17.5839 0.271357 14.8568 0V2.7407C16.8377 2.98492 18.6422 3.77186 20.1482 4.93869L22.0749 2.99849ZM24.2593 12.1432H27C26.7286 9.41608 25.6432 6.93317 24.0015 4.92513L22.0613 6.85176C23.2281 8.35779 24.0151 10.1623 24.2593 12.1432ZM4.93869 6.85176L2.99849 4.92513C1.35678 6.93317 0.271357 9.41608 0 12.1432H2.7407C2.98492 10.1623 3.77186 8.35779 4.93869 6.85176ZM2.7407 14.8568H0C0.271357 17.5839 1.35678 20.0668 2.99849 22.0749L4.93869 20.1347C3.77186 18.6422 2.98492 16.8377 2.7407 14.8568ZM17.5704 13.5C17.5704 11.2477 15.7523 9.42965 13.5 9.42965C11.2477 9.42965 9.42965 11.2477 9.42965 13.5C9.42965 15.7523 11.2477 17.5704 13.5 17.5704C15.7523 17.5704 17.5704 15.7523 17.5704 13.5ZM22.0613 20.1482L24.0015 22.0884C25.6432 20.0804 26.7286 17.5839 27 14.8704H24.2593C24.0151 16.8377 23.2281 18.6422 22.0613 20.1482ZM14.8568 24.2593V27C17.5839 26.7286 20.0668 25.6432 22.0749 24.0015L20.1347 22.0613C18.6422 23.2281 16.8377 24.0151 14.8568 24.2593ZM4.92513 24.0015C6.93317 25.6432 9.42965 26.7286 12.1432 27V24.2593C10.1623 24.0151 8.35779 23.2281 6.85176 22.0613L4.92513 24.0015Z" fill="currentColor"/>
</svg>