<svg width="20" height="13" viewBox="0 0 20 13" fill="none" xmlns="http://www.w3.org/2000/svg">
<path d="M15.5 4C15.47 4 15.45 4.01 15.42 4.01L11.41 0H7V2H10.59L12.59 4H4.49C2.01 4 0 6.02 0 8.5C0 10.99 2.01 13 4.5 13C6.72 13 8.56 11.38 8.92 9.27L11.04 8C11.02 8.17 11 8.33 11 8.5C11 10.99 13.01 13 15.5 13C17.99 13 20 10.99 20 8.5C20 6.01 17.99 4 15.5 4ZM6.84 9.26C6.52 10.27 5.58 11 4.47 11C3.09 11 1.97 9.88 1.97 8.5C1.97 7.12 3.09 6 4.47 6C5.59 6 6.52 6.74 6.84 7.75H4V9.25L6.84 9.26ZM15.47 11C14.09 11 12.97 9.88 12.97 8.5C12.97 7.12 14.09 6 15.47 6C16.85 6 17.97 7.12 17.97 8.5C17.97 9.88 16.85 11 15.47 11Z" fill="currentColor"/>
</svg>