<svg width="100" height="49" viewBox="0 0 100 49" fill="none" xmlns="http://www.w3.org/2000/svg">
<path fill-rule="evenodd" clip-rule="evenodd" d="M85.3453 47.9295V46.2503C85.4286 46.2343 85.5095 46.2191 85.592 46.2022C86.1985 46.0756 86.7938 45.9026 87.3722 45.6807C87.8826 45.4844 88.3889 45.2665 88.8712 45.0101L89.154 44.8611L89.9528 41.4137H85.3461V39.4773H90.4022L90.5264 38.9373C90.6874 38.2475 90.7908 37.4407 90.5897 36.7493V36.7445C90.399 36.0988 89.9696 35.6189 89.3503 35.3521C88.7358 35.0829 88.0147 35.0148 87.3498 35.0204C86.8795 35.0204 86.4116 35.0613 85.9494 35.1454L85.9421 35.147C85.7435 35.1871 85.5424 35.2319 85.3461 35.2896V33.2531C86.3956 33.1281 87.4531 33.0784 88.5067 33.0832H88.5123C89.5097 33.0784 90.5216 33.1698 91.4918 33.4165L91.495 33.4181C92.2449 33.6056 92.9707 33.9132 93.5756 34.4035C94.1084 34.8338 94.4481 35.3794 94.6379 36.0339C94.8695 36.8575 94.7701 37.8005 94.5843 38.6216L92.486 47.6788C92.4564 47.7861 92.4059 47.8606 92.3186 47.9279L92.3122 47.9327L92.3058 47.9375C92.208 48.0137 92.1079 48.0449 91.9845 48.0481H88.9874C88.9665 48.0481 88.9297 48.0457 88.9032 48.0393C88.9048 48.0241 88.9064 48.0064 88.9104 47.9952L89.3775 45.9779L87.9819 46.7919C87.4451 47.1035 86.8851 47.3711 86.3107 47.6027C85.9934 47.7284 85.6714 47.8358 85.3453 47.9295ZM55.4235 48.0401C55.4508 48.0465 55.4884 48.0489 55.5085 48.0489H58.9879C59.1089 48.0457 59.2098 48.0145 59.3068 47.9383L59.314 47.9335L59.3204 47.9287C59.4093 47.8614 59.459 47.7869 59.4862 47.6796L60.8754 41.6845H69.1691L67.7045 47.996C67.7029 48.0072 67.6997 48.0249 67.6981 48.0401C67.7254 48.0465 67.763 48.0489 67.7838 48.0489H71.2625C71.3819 48.0457 71.4844 48.0145 71.5797 47.9383L71.5862 47.9335L71.5942 47.9287C71.6815 47.8614 71.7344 47.7869 71.7616 47.6796L75.0632 33.4365C75.0656 33.4245 75.0688 33.4093 75.0704 33.3933C75.0424 33.3869 75.0055 33.3845 74.9847 33.3837H71.506C71.3843 33.3869 71.2841 33.4181 71.1864 33.4934L71.1832 33.4966L71.18 33.4998C71.0926 33.5671 71.0342 33.6464 71.0069 33.7514L69.6658 39.5382H61.3738L62.7894 33.4365C62.791 33.4245 62.7942 33.4093 62.7958 33.3933C62.7702 33.3869 62.7325 33.3845 62.7117 33.3837H59.2339C59.1121 33.3869 59.0103 33.4181 58.915 33.4934L58.9078 33.4998L58.9014 33.5046C58.8125 33.5703 58.7596 33.6472 58.7323 33.7522L55.4332 47.996C55.4292 48.0072 55.4251 48.0249 55.4235 48.0401ZM85.3453 33.2539V35.2904C85.1121 35.3569 84.8838 35.437 84.6611 35.5332C84.2797 35.6966 83.9224 35.9129 83.6116 36.1885L83.61 36.1909L83.6068 36.1933C83.4025 36.3784 83.1725 36.5274 82.9202 36.6372C82.659 36.7445 82.377 36.7878 82.0974 36.791H79.77C79.7484 36.791 79.7115 36.7878 79.6859 36.7814C79.6859 36.767 79.6891 36.7525 79.6907 36.7397C79.8421 36.114 80.1201 35.562 80.5736 35.0989C81.0663 34.5886 81.6864 34.2257 82.3425 33.9661L82.3481 33.9637C83.1998 33.62 84.1259 33.4181 85.0336 33.2915C85.1362 33.2795 85.2411 33.2667 85.3453 33.2539ZM85.3453 39.4789V41.4153H84.2677H84.2613C83.7173 41.4209 83.1765 41.5026 82.671 41.7045C82.216 41.8872 81.7993 42.1468 81.4613 42.5065L81.4597 42.5097L81.4565 42.5129C81.1376 42.859 80.9117 43.266 80.8059 43.7274C80.6953 44.1985 80.7146 44.672 80.9213 45.1151C81.1288 45.5717 81.5021 45.893 81.9484 46.1053L81.9548 46.1077L81.9612 46.1109C82.4643 46.3376 83.0411 46.4081 83.5851 46.4129H83.5923H83.5987C84.1852 46.4081 84.7692 46.3561 85.3461 46.2511V47.9303C85.0489 48.0161 84.7452 48.0866 84.4392 48.1474C83.7285 48.2884 82.9987 48.3453 82.2744 48.3501C81.3779 48.3493 80.471 48.2676 79.6002 48.0425C78.9368 47.8686 78.2742 47.6035 77.7287 47.1845L77.723 47.1812C77.2768 46.8424 76.9595 46.4209 76.7761 45.8922L76.7745 45.8898C76.567 45.3001 76.6142 44.6424 76.7488 44.0431C76.9211 43.3253 77.2239 42.6707 77.6902 42.1011L77.6918 42.1003C78.1725 41.5106 78.7557 41.0412 79.4199 40.6734C80.1682 40.2568 80.9774 39.9708 81.809 39.7825C82.7423 39.571 83.6965 39.4797 84.6555 39.4797H85.3453V39.4789ZM37.8805 33.7522L34.5814 47.996C34.5782 48.0072 34.5749 48.0241 34.5733 48.0401C34.5998 48.0465 34.6374 48.0489 34.6575 48.0489H39.031C39.188 48.0441 39.3395 48.0072 39.4853 47.9504C39.6864 47.8726 39.8786 47.7725 40.0557 47.6491C40.2239 47.5322 40.3778 47.3984 40.514 47.2445L50.1102 35.4667L47.2052 47.9968C47.2036 48.008 47.2004 48.0257 47.1988 48.0409C47.2261 48.0473 47.2637 48.0497 47.2846 48.0497H50.5381C50.6598 48.0465 50.7616 48.0153 50.8569 47.9391L50.8633 47.9343L50.8705 47.9295C50.9595 47.8622 51.01 47.7877 51.0364 47.6804L54.3388 33.4373C54.342 33.4253 54.3436 33.4101 54.3452 33.3941C54.3203 33.3877 54.2819 33.3853 54.2595 33.3845H49.8763C49.7273 33.3845 49.5623 33.4301 49.4237 33.4814C49.2242 33.5559 49.0367 33.6569 48.8612 33.7738C48.6922 33.8908 48.5416 34.0262 48.4094 34.1824L38.7995 46.0043L41.7125 33.4365C41.7165 33.4245 41.7197 33.4093 41.7197 33.3933C41.6941 33.3869 41.6556 33.3845 41.634 33.3837H38.3805C38.2587 33.3869 38.1585 33.4181 38.0616 33.4934L38.0544 33.4998L38.048 33.5046C37.9599 33.5711 37.9078 33.6472 37.8805 33.7522ZM8.79361 28.9044C8.81124 28.8235 8.82165 28.7209 8.79041 28.6424C8.75836 28.5719 8.71269 28.5246 8.64459 28.4846L8.64139 28.4822L8.63738 28.4798C8.54205 28.4189 8.42668 28.4012 8.31532 28.4012H5.36705C5.1996 28.4012 5.04178 28.4429 4.89116 28.5166L4.88635 28.5182C4.72131 28.5975 4.58351 28.7025 4.46414 28.8379C4.35839 28.9597 4.29029 29.0942 4.24943 29.2489L0.0168983 47.5161C-0.000727205 47.5995 -0.0119434 47.706 0.0217053 47.7877L0.0233077 47.7917L0.0265123 47.7957C0.0577576 47.8734 0.10102 47.9239 0.173125 47.9688L0.176329 47.972L0.181136 47.9744C0.268463 48.0321 0.393444 48.0481 0.497595 48.0497H28.9412C29.1094 48.0465 29.2649 48.0104 29.4163 47.9343L29.4211 47.9319C29.5901 47.8486 29.7311 47.7413 29.8521 47.5994L29.8569 47.5954C29.9555 47.4825 30.0292 47.3559 30.0628 47.2093L34.3002 28.9276C34.321 28.8355 34.3306 28.7361 34.2953 28.6448C34.2649 28.5751 34.2232 28.5254 34.1559 28.4854L34.1519 28.483L34.1487 28.4806C34.0542 28.4197 33.938 28.402 33.8251 28.402H30.8776C30.7094 28.402 30.5491 28.4477 30.3985 28.519C30.2359 28.5967 30.0965 28.6985 29.9771 28.8307C29.8801 28.946 29.8064 29.075 29.7672 29.2208L26.0418 45.3025H17.7498L21.5433 28.934C21.5617 28.8443 21.5737 28.7321 21.5401 28.6448C21.5088 28.5751 21.4664 28.5254 21.3999 28.4854L21.3967 28.483L21.3935 28.4806C21.2973 28.4197 21.182 28.402 21.0714 28.402H18.1223C17.9565 28.402 17.7954 28.4453 17.6472 28.5174L17.6416 28.519C17.4806 28.5967 17.3404 28.6985 17.221 28.8307C17.1241 28.946 17.0512 29.075 17.0119 29.2208L13.2849 45.3025H4.99451L8.79361 28.9044Z" fill="currentColor"/>
<path fill-rule="evenodd" clip-rule="evenodd" d="M37.0754 24.3041C36.9232 24.3073 36.775 24.341 36.638 24.4075L36.6324 24.4099C36.4857 24.4796 36.36 24.5709 36.251 24.6911C36.1621 24.7968 36.0964 24.9106 36.0619 25.0452L35.7687 26.3086C35.7519 26.3927 35.7479 26.4841 35.7767 26.5658C35.8064 26.6347 35.8464 26.6796 35.9105 26.7196L35.9137 26.722L35.9169 26.7244C35.9946 26.7749 36.1124 26.7901 36.2037 26.7925H58.7676C58.8758 26.7925 59.2107 26.8045 59.3741 26.7789C59.3773 26.557 59.2235 26.0859 59.1714 25.9417C58.5 24.0453 58.3126 23.9612 58.782 21.9335L61.679 9.43778C61.6935 9.36247 61.7047 9.27354 61.6758 9.20064C61.6486 9.14135 61.6125 9.09729 61.5565 9.06364L61.546 9.05803L61.538 9.05242C61.4507 8.99794 61.3449 8.98192 61.2448 8.98192H53.5729C52.5787 8.97711 51.5828 9.04762 50.5966 9.19263C49.652 9.33603 48.7283 9.5884 47.8422 9.95453C46.9809 10.311 46.2038 10.8134 45.5084 11.4367C44.7553 12.1169 44.1745 12.9573 43.721 13.8602L40.5781 20.2254H44.6416L47.5217 14.4426C47.8029 13.8602 48.1747 13.3322 48.6361 12.878L48.6393 12.8756C49.0944 12.4309 49.6224 12.0808 50.2112 11.8413C50.8209 11.5889 51.4658 11.4711 52.1244 11.4711H57.1621L54.1874 24.3025H37.0754V24.3041Z" fill="currentColor"/>
<path fill-rule="evenodd" clip-rule="evenodd" d="M74.1066 26.263C75.3828 25.7486 76.4708 24.9779 77.3465 23.9172C78.2838 22.7803 78.8559 21.4151 79.1915 19.9915C79.4695 18.7753 79.6106 17.3637 79.1787 16.1683C78.815 15.1661 78.1268 14.4723 77.1726 14.0036C75.9172 13.3907 74.3662 13.2289 72.9834 13.2289C72.4025 13.2289 71.8185 13.2585 71.236 13.325V15.0643C71.5813 15.0075 71.933 14.9818 72.2847 14.9834C73.0707 14.9794 73.9031 15.1068 74.5721 15.545C75.2378 15.9817 75.5911 16.6538 75.7209 17.4278C75.882 18.3403 75.7209 19.3834 75.5134 20.2759C75.2923 21.2381 74.9606 22.2387 74.4278 23.0751C73.976 23.7938 73.3871 24.3914 72.626 24.7792C72.1846 25.0035 71.7183 25.1477 71.2368 25.2295V26.968C72.2198 26.8542 73.1868 26.6315 74.1066 26.263ZM71.236 13.325C70.253 13.4372 69.282 13.6575 68.3623 14.0236C67.0892 14.5332 66.0004 15.2991 65.1272 16.355C64.1898 17.4927 63.6178 18.8522 63.2837 20.2775C63.0049 21.4921 62.8631 22.9093 63.2957 24.107C63.6562 25.1133 64.346 25.8119 65.2994 26.2846C66.5548 26.9023 68.1011 27.0681 69.4847 27.0681C70.0679 27.0681 70.6544 27.0385 71.2368 26.9704V25.2319C70.8907 25.2895 70.5382 25.3144 70.1857 25.3128C69.3966 25.3176 68.5634 25.1894 67.8936 24.744C67.2286 24.3017 66.8817 23.6199 66.7543 22.8452C66.5949 21.9335 66.7559 20.8864 66.9618 19.9939C67.1846 19.0309 67.5138 18.035 68.0482 17.1986C68.4993 16.484 69.0881 15.8935 69.846 15.5122C70.2891 15.2903 70.7577 15.1469 71.2368 15.0667V13.325H71.236Z" fill="currentColor"/>
<path fill-rule="evenodd" clip-rule="evenodd" d="M81.3066 26.7853C81.3307 26.7917 81.3643 26.7933 81.382 26.7941C84.5185 26.7941 85.1154 25.2559 86.2482 21.025H93.7647L92.4388 26.7461C92.4356 26.7565 92.434 26.7717 92.4324 26.7853C92.4564 26.7917 92.4908 26.7933 92.5109 26.7941H95.6634C95.774 26.7909 95.8661 26.7629 95.9535 26.694L95.9583 26.6892L95.9655 26.6844C96.0448 26.6251 96.0913 26.5562 96.1161 26.4601L99.1084 13.5494C99.1116 13.5381 99.1148 13.5229 99.1148 13.5093C99.09 13.5029 99.0564 13.5013 99.0363 13.5005H95.8838C95.7748 13.5037 95.6827 13.5325 95.5953 13.6006L95.5921 13.6022L95.5889 13.6046C95.5088 13.6655 95.4575 13.7376 95.4319 13.8346L94.2157 19.079H90.4591H86.7025H83.09L81.3139 26.7461C81.3098 26.7565 81.3082 26.7717 81.3066 26.7853Z" fill="currentColor"/>
<path fill-rule="evenodd" clip-rule="evenodd" d="M87.1207 17.2644L87.9811 13.5494C87.9843 13.5382 87.9859 13.5229 87.9875 13.5093C87.9635 13.5029 87.9298 13.5013 87.9098 13.5005H86.5142C85.3621 13.5005 84.3911 13.4605 83.5739 16.9856L83.509 17.2652H87.1207V17.2644Z" fill="currentColor"/>
<path fill-rule="evenodd" clip-rule="evenodd" d="M28.9676 26.2629C30.0812 25.8135 31.0546 25.1686 31.867 24.3041H29.6766C28.8755 24.3041 28.1721 24.4307 27.4887 24.7792C26.7284 25.1654 25.8919 25.316 25.0435 25.3104C24.256 25.3152 23.043 25.187 22.3741 24.7415C21.2636 24.0926 21.2084 23.9011 20.1701 23.8426C19.2215 23.7906 18.1503 23.8282 17.209 23.8763C15.3927 23.97 11.8933 24.0125 9.4233 23.8218C7.64953 23.684 6.58719 23.6303 6.55755 22.8156C6.45339 20.0604 7.27218 20.7838 7.98521 20.5763C8.81361 20.3352 9.67406 20.0956 10.2805 19.8545C12.6568 18.9083 14.5531 18.1167 16.6329 16.5537C13.9194 17.4398 4.71568 19.2079 10.2341 16.1339C10.6018 15.928 10.9719 15.7325 11.3389 15.5466C14.3352 14.0348 17.2931 13.1504 20.4248 12.3043C24.8593 11.105 30.4538 9.82554 34.7664 8.43472C38.5783 7.20575 42.4207 5.35587 46.255 4.01232C49.8002 2.77052 52.3999 1.84198 56.2022 1.72741L60.7897 1.58961C64.9669 1.46383 69.1666 1.7194 72.3584 2.57424C77.8496 4.04597 81.2081 6.54639 86.8338 10.0627C86.2153 10.7797 85.6329 11.6105 85.1185 12.5984C86.1256 12.1024 87.3217 12.2482 88.2094 12.2987C89.1107 10.7228 89.8318 9.78788 90.3036 9.33282L90.7555 8.93785C91.4661 8.31856 91.8507 7.73611 92.8153 7.71929L94.3311 7.69125C95.8949 6.75309 94.7156 6.90611 93.3993 6.50553C91.5999 5.95593 90.8628 4.94487 89.4977 3.63097C88.9136 3.06855 88.5948 3.66942 88.2527 4.07882C87.8152 4.60438 87.4723 5.0995 87.8689 5.42877L90.0633 7.25382C89.5185 7.63116 88.9625 8.03895 88.4153 8.50362C83.0051 5.46002 79.375 2.77693 74.3549 1.29559C70.6576 0.206008 65.688 -0.112053 60.9884 0.0329573L55.9186 0.187582C48.0817 0.0858345 41.5466 3.72711 34.47 6.46307C31.2581 7.70407 26.5393 8.77201 21.8381 9.99378C18.3899 10.8895 13.1102 12.6016 9.30312 14.8472C5.94946 16.8253 4.14525 18.8706 4.05712 21.4752C4.00505 23.0038 4.14445 24.067 4.3856 24.4603C4.78778 25.1141 5.7644 25.8936 7.67356 25.9665C10.7428 26.0835 14.0957 26.1932 17.3315 26.0803C18.3282 26.045 19.2359 25.8263 20.158 26.2838C22.6513 27.508 26.4488 27.2724 28.9676 26.2629Z" fill="#BBBBBB"/>
</svg>