<svg width="25" height="20" viewBox="0 0 25 20" fill="none" xmlns="http://www.w3.org/2000/svg">
<path d="M22.7672 10.0021L18.6211 5.8667L14.475 10.0021C13.3322 11.1439 12.7609 12.6663 12.7609 14.1301C12.7609 15.594 13.3322 17.1383 14.475 18.2802C15.6177 19.422 17.1194 20.0002 18.6211 20.0002C20.1228 20.0002 21.6244 19.422 22.7672 18.2802C23.9099 17.1383 24.4813 15.594 24.4813 14.1301C24.4813 12.6663 23.9099 11.1439 22.7672 10.0021ZM14.2259 14.3936C14.2332 12.9298 14.6801 12.0002 15.5152 11.1732L18.6211 8.00392L21.727 11.2098C22.5621 12.0295 23.0089 12.9298 23.0163 14.3936H14.2259Z" fill="currentColor"/>
<path fill-rule="evenodd" clip-rule="evenodd" d="M0.423918 6.89154C1.98731 1.75607 7.41739 -1.13946 12.5529 0.423931C14.9486 1.15327 16.8569 2.72416 18.0524 4.71408L16.6752 6.09723C16.5334 5.8189 16.3625 5.52625 16.1587 5.23954C15.1624 3.83761 13.9942 3.21387 13.9942 3.21387C12.9709 2.66627 12.2021 3.05819 12.0297 4.15284L11.6215 6.74523C11.4491 7.83987 12.2081 8.84427 13.3076 8.97756L13.7536 9.03162L13.4994 9.28695C12.0878 10.7072 11.3819 12.601 11.3819 14.4219C11.3819 15.9669 11.8901 17.584 12.9064 18.9062C11.0301 19.5584 8.93741 19.6433 6.89152 19.0205C1.75597 17.4571 -1.13941 12.0268 0.423918 6.89154ZM5.0476 3.72475C4.98513 3.78028 4.92317 3.83534 4.85992 3.88984C4.02078 4.61346 4.05777 5.51078 5.04514 6.0128L7.24798 7.13283C8.23517 7.6348 9.42511 7.22361 9.8917 6.21862L10.9973 3.83854C11.4642 2.83355 10.9954 2.02009 9.88924 1.96421C9.25321 1.93249 8.78222 1.96517 7.30734 2.44488C6.0145 2.86535 5.51662 3.30788 5.0476 3.72475ZM1.97754 7.35797C1.22218 9.8392 2.4233 12.5253 2.4233 12.5253C2.85587 13.545 3.8749 13.7455 4.65717 12.9615L6.2467 11.4067C7.0295 10.6226 6.98291 9.35703 6.17147 8.60281L4.34282 6.92045C3.53132 6.16611 2.65422 6.09692 2.17758 6.70086L1.97754 7.35797ZM7.43924 17.3781C8.96406 17.8423 9.95205 17.7027 9.95205 17.7027C11.049 17.5476 11.5343 16.6138 11.0305 15.6273L10.0305 13.6693C9.52671 12.6828 8.32245 12.3162 7.35444 12.8546L5.43305 13.9233C4.46504 14.4617 4.34762 15.5075 5.17189 16.2475C5.17189 16.2475 5.91468 16.914 7.43924 17.3781Z" fill="currentColor"/>
</svg>
