<svg width="20" height="20" viewBox="0 0 20 20" fill="none" xmlns="http://www.w3.org/2000/svg">
<path fill-rule="evenodd" clip-rule="evenodd" d="M8.36594 3.93616C9.30772 3.94453 10.2437 3.95285 11.1692 4.05637C12.6007 4.21641 13.4871 5.24163 13.5199 6.68791C13.5692 8.87978 13.5777 11.0749 13.5185 13.266C13.4731 14.9447 12.4886 15.8461 10.6609 16.0602C10.4841 16.0808 10.3042 16.082 10.1257 16.0824C9.39477 16.0838 8.66395 16.0836 7.92044 16.0834C7.65299 16.0833 7.38392 16.0832 7.11258 16.0832V3.91676C7.53124 3.92874 7.94916 3.93245 8.36594 3.93616ZM9.34169 13.928C10.7133 14.1748 11.291 13.7083 11.3035 12.3698C11.3078 11.8906 11.3063 11.4116 11.3048 10.9325C11.3043 10.7611 11.3038 10.5896 11.3035 10.4181C11.3029 10.1214 11.3031 9.82471 11.3034 9.528C11.3041 8.7786 11.3047 8.02921 11.291 7.28014C11.2786 6.61386 10.9828 6.16447 10.4818 6.08941C10.228 6.05115 9.96714 6.06039 9.70176 6.0698C9.58255 6.07402 9.46245 6.07828 9.34169 6.07828V13.928Z" fill="currentColor"/>
<path fill-rule="evenodd" clip-rule="evenodd" d="M0 9.9999C0 4.48592 4.48591 0 9.9999 0C15.5139 0 20 4.48613 20 9.9999C20 15.5141 15.5139 20 9.9999 20C4.48591 20 0 15.5139 0 9.9999ZM1.61867 9.9999C1.61867 14.6214 5.37862 18.3813 9.9999 18.3813C14.6216 18.3813 18.3813 14.6216 18.3813 9.9999C18.3813 5.37862 14.6216 1.61866 9.9999 1.61866C5.37862 1.61866 1.61867 5.37842 1.61867 9.9999Z" fill="currentColor"/>
</svg>
